<svg xmlns="http://www.w3.org/2000/svg" xmlns:xlink="http://www.w3.org/1999/xlink" viewBox="0 0 425.2 425.2"><defs><style>.cls-1,.cls-14,.cls-18,.cls-22,.cls-7{fill:none;}.cls-2{isolation:isolate;}.cls-3{fill:#4e2d1a;}.cls-10,.cls-11,.cls-12,.cls-13,.cls-14,.cls-16,.cls-18,.cls-20,.cls-21,.cls-22,.cls-3,.cls-6,.cls-7,.cls-8,.cls-9{stroke:#1d1d1b;}.cls-10,.cls-11,.cls-16,.cls-18,.cls-22,.cls-3,.cls-6,.cls-7,.cls-8,.cls-9{stroke-miterlimit:10;}.cls-10,.cls-11,.cls-13,.cls-14,.cls-21,.cls-22,.cls-3,.cls-6,.cls-7,.cls-8{stroke-width:1.43px;}.cls-4{fill:#422116;}.cls-5{clip-path:url(#clip-path);}.cls-6{fill:#6b2a2f;}.cls-10,.cls-20,.cls-21,.cls-8{fill:#f5d0ae;}.cls-11,.cls-9{fill:#fff;}.cls-16,.cls-18,.cls-9{stroke-width:1.54px;}.cls-10,.cls-13,.cls-14,.cls-18,.cls-20,.cls-21,.cls-22{stroke-linecap:round;}.cls-12{fill:#e6768f;stroke-width:1.36px;}.cls-12,.cls-13,.cls-14,.cls-20,.cls-21{stroke-linejoin:round;}.cls-13{fill:#e94462;}.cls-15,.cls-19{mix-blend-mode:darken;}.cls-16,.cls-19{fill:#d9a994;}.cls-17{fill:#1d1d1b;}.cls-20{stroke-width:1.26px;}</style><clipPath id="clip-path"><circle class="cls-1" cx="209.91" cy="223.25" r="179.75"/></clipPath></defs><title>девч1_2_2</title><g class="cls-2"><g id="Layer_1" data-name="Layer 1"><path class="cls-3" d="M124.69,88.64q-1.84,4-3.39,8.44c-7.85,22.55-8,47-8,70.83q-.08,30.6-.14,61.18c0,15.66-.09,31.55-4.37,46.61-3.44,12.1-9.57,23.59-10.43,36.14-1,15,6.19,28.7,12.52,41.83a41.91,41.91,0,0,1,1.64-18.87c-.71,2.18,3,12.58,3.51,15.66a50.77,50.77,0,0,0,4.81,15.2,48.66,48.66,0,0,0,22.41,22.12,77.71,77.71,0,0,0,13.67,4.62,200.3,200.3,0,0,0,61,5.92,203.13,203.13,0,0,0,30.49-4c4.88-1,10-3.2,14.95-3.74,4.16-.45,7.94.68,12.13-.8A71.67,71.67,0,0,0,293.91,380c17.12-12.58,15.57-32.64,20.28-51.21,2.42-9.55,5.85-17.82,7.12-27.89,3-24,3-49.33-6-72.11-12.9-32.64-19.42-65.51-25.13-100-2.37-14.31-3.64-33-11-45.61-8.71-15-28.12-32.29-44.14-38.75-15-6-28.33-.89-43.6.66C160.66,48.19,137.37,61.08,124.69,88.64Z"/><path class="cls-4" d="M301.61,301.56c.51-12.95-1.91-26.46-3.64-37.77-3.36-21.87-5-44-9.5-65.47-5-24.14-1.41-41.21-19.28-61-13.16-14.6-9.92-29.33-18.6-46.51S230.71,74,216.41,65.55C212.13,63,196,61.31,193.48,61.31c-21.84,0-31.83-3.19-49.2,12.78-10.22,9.4-2.87,16.44-5.38,28.23-1.51,7.1-5.27,13.49-9,19.73-8.65,14.57-8.33,28.83-7,45.8,2.41,29.72-.17,59.59,1.87,89.33.81,11.86,2.9,14.83,4.82,20.55s-4.79,10.19-4.82,17.71c0,7,12.92-5.46,17.15,1,1.55,2.36,1.51,5.36,1.65,8.17a48.48,48.48,0,0,0,12.61,30.58c12.47,13.31,27.44,13.39,44.31,12.25,15.8-1.06,31.64.6,47.56-.36,15.5-.93,32.77-2.7,42.89-14.47C298.45,323.94,301.17,313,301.61,301.56Z"/><g class="cls-5"><path class="cls-6" d="M209.35,279.85s-37.77.63-44,17.17-16.66,52.1-22.17,64,16.12,40.38,23.54,45.27,55.53,8.61,99.58-9c8.33-3.33,14.45-29.88,14.45-43.45s-5.09-45.94-10.18-59.35S231,277,209.35,279.85Z"/><path class="cls-7" d="M168.44,316.6s2.82,6.26-6.77,21.36-12,16.44-7.41,29.76c4.32,12.46,20.74,23.63,34.87,20.37,13.56-3.13,34.39,1.48,43,.64S248,387.18,253,375.1"/></g><path class="cls-8" d="M262.16,180c7-48.64-26.87-112.47-76.31-108.1-27.35,2.42-47.06,17.81-47.06,78.85,0,0,0,16.14-3.07,26.58-5.85,20.16-2.53,21.67,18.11,46.36,15.9,19,10.39,34.5,43,34.5,3.12,0,7.42-1.86,9.11-2.63,0,0,4.84,11.56,4.76,20.46a12.53,12.53,0,0,1-2.83,8.26c-1.88,2.39-6.11,5-3,8.41a6.15,6.15,0,0,0,2.48,1.54c3.82,1.41,8.06.73,12.07,0l6.9-1.21c4.87-.85,15.22-2.09,17.7-7.3,2.62-5.49-4.49-12.34-6.67-16.71-3.08-6.15-12.14-17.22-9.32-24.47C249.55,232.22,256.64,218.53,262.16,180Z"/><circle class="cls-9" cx="153.7" cy="160.9" r="21.16"/><circle class="cls-9" cx="209.58" cy="160.9" r="21.16"/><path class="cls-10" d="M175.25,165.57s-3.11,15-8.57,20.63c-5.1,5.33-8.47,10.25,1.76,14.67,6.18,2.67,12.75-4.32,12.75-4.32"/><path class="cls-11" d="M174.62,220.71l1.69,12.08s18.23,1.27,25-4.66,12.8-19.37,12.8-19.37S180.76,226.64,174.62,220.71Z"/><path class="cls-12" d="M171.44,222.94c-3.05-.41-7.08-2.29-6.92-6.05.11-2.58,2.39-7.72,16.67-6s19.07,4.07,34.86-4.31C216.05,206.54,195.58,226.16,171.44,222.94Z"/><path class="cls-12" d="M178.43,240.85c-3.07-.08-12.24.05-11.73-7.94.32-5,6.22-.74,20.42-3s16.62-9.52,28.93-23.39C216.05,206.54,212,241.64,178.43,240.85Z"/><path class="cls-13" d="M214.12,203.54s4.16,3.18,4.58,6.57"/><path class="cls-14" d="M193.48,223.7a30.2,30.2,0,0,0,15.05-8.78"/><g class="cls-15"><path class="cls-16" d="M230.53,158.4a21.14,21.14,0,0,0-39.25-8.17Z"/><path class="cls-16" d="M192.6,173.55a21.11,21.11,0,0,0,35.12-1.88Z"/></g><circle class="cls-17" cx="219.31" cy="163.08" r="2.18"/><path class="cls-18" d="M184,144.74a10,10,0,0,0,7.29,5.49s-6.95,2.71-10.36-1.16"/><g class="cls-15"><path class="cls-16" d="M174.45,158.4a21.14,21.14,0,0,0-39.25-8.17Z"/><path class="cls-16" d="M136.52,173.55a21.11,21.11,0,0,0,35.12-1.88Z"/></g><circle class="cls-17" cx="163.24" cy="163.08" r="2.18"/><path class="cls-18" d="M127.91,144.74a10,10,0,0,0,7.29,5.49s-6.95,2.71-10.36-1.16"/><path class="cls-8" d="M254.39,186.05s6-11.72,17.48-6.89c5.95,2.51,4.14,32.61-15.26,27.38"/><path class="cls-10" d="M197.87,126.6s12.57-9.75,25.71,0"/><path class="cls-10" d="M141,128.76s12.57-9.75,25.71,0"/><path class="cls-19" d="M254,139.74s-4.38,42.42-8.18,62.9c-3.91,21.06-26.3,50.58-32.65,49.59,0,0,9,2.18,10.23,11.08s21,25.58,21,25.58,2.37.91,1.46-3.74-17.27-26.5-17.38-33.92,41.15-20.53,47.7-31.92,7.88-43.21,5.93-53.74S254,139.74,254,139.74Z"/><path class="cls-10" d="M206.83,254.62s8-3.76,11.61-5.91"/><path class="cls-20" d="M212.53,365.9l2-.8c-.2-.06,6.73-5.6,9.37-5.8,5.41-.42,10.6-10.15,14.95-12.16,4-1.88,9.51,2.62-1.55,12-5.83,4.93,6.31-1.37,13.84,1.4,3.47,1.28,4.09,4.56.37,5.34-3,.63-6.58,1.1-9.44,1.41s-5,.47-5,.47,2.12-.16,5-.47c5.34-.31,13.07-.1,13.07,3.65,0,2.25-.06,3.09-7.38,3.65s-10.3,3.28-10.3,3.28,16.91-3.13,16.91,2.06c0,3.75-9,4.87-17.47,5.43s-9.81,3.42-16.82,2.72a9.94,9.94,0,0,0-4,.3C210.85,382.38,209.87,373.74,212.53,365.9Z"/><path class="cls-6" d="M141,367.54s13.54,2.27,20.28,3.95l6.1,11.25-13.92,5.05s38.39-13.83,59.1-21.89c-2.66,7.84-1.68,16.48,3.58,22.47a29.25,29.25,0,0,0-4.78,1.67c-4.81,2.08-46.14,23.23-52.61,19.48S138.88,384.41,141,367.54Z"/><path class="cls-21" d="M195.05,360.61l-2.31-.91c.22-.07-7.61-6.33-10.6-6.56-6.13-.47-12-11.48-16.92-13.76-4.57-2.12-10.76,3,1.76,13.57,6.6,5.58-7.15-1.56-15.67,1.59-3.92,1.45-4.62,5.15-.41,6,3.37.71,7.44,1.24,10.68,1.59,3.2.18,5.64.53,5.64.53s-2.4-.18-5.64-.53c-6.05-.35-14.8-.12-14.8,4.13,0,2.54.08,3.5,8.36,4.13s11.66,3.71,11.66,3.71-19.13-3.54-19.13,2.33c0,4.24,10.13,5.52,19.76,6.15s11.1,3.87,19,3.08A11.15,11.15,0,0,1,191,386C197,379.26,198.06,369.48,195.05,360.61Z"/><path class="cls-6" d="M276.42,371.39s-15.72-6.36-23.35-4.45l-6.91,12.72,15.75,5.72s-43.43-15.65-66.86-24.77c3,8.87,1.9,18.65-4.06,25.42a33.65,33.65,0,0,1,5.42,1.89c5.44,2.35,52.2,26.28,59.52,22.05S278.79,390.46,276.42,371.39Z"/><path class="cls-22" d="M295.85,212.6s10.89,48,7.25,60.27"/><path class="cls-22" d="M252.3,99.38s28.4,30.75,23.51,54.43"/><path class="cls-22" d="M122.23,230s-8.65,37.15-3.79,56.44"/><path class="cls-22" d="M140.75,236s-1.42,26.44,2.18,36.89"/><path class="cls-22" d="M129.93,122.05s-14.29,40.59-5.85,80.59"/><path class="cls-3" d="M192.45,71.43s29.61,4.62,40.69,27.95,7.52,41.59,19.34,54.43,22.39,25.35,22.39,25.35-2.71-21.43-10.53-32.64-26-67.52-23.59-74.7"/><path class="cls-6" d="M204.53,277.42c.1-3.81-.85-7.79-3.38-10.65,1.11-1.54,3.2-1.95,5.09-2.19,6.71-.88,13.89-1.32,19.34-5.32,1.66-1.23,3.13-2.76,5-3.67s4.34-1,5.77.5c1.06,1.11,1.25,2.77,1.5,4.3a32.21,32.21,0,0,0,4.78,12.38c1.51,2.32,3.34,4.47,4.38,7s1.12,5.76-.69,7.86c-1.41,1.64-3.63,2.26-5.72,2.81-8.53,2.23-17.1,4.47-25.87,5.38-3.78.39-11.85.92-13-4C200.78,287.85,204.41,281.69,204.53,277.42Z"/></g></g></svg>