<svg xmlns="http://www.w3.org/2000/svg" xmlns:xlink="http://www.w3.org/1999/xlink" viewBox="0 0 425.2 425.2"><defs><style>.cls-1,.cls-11,.cls-21,.cls-22{fill:none;}.cls-2{isolation:isolate;}.cls-3,.cls-4{fill:#9e612d;}.cls-11,.cls-13,.cls-15,.cls-17,.cls-18,.cls-19,.cls-20,.cls-21,.cls-22,.cls-3,.cls-4,.cls-6,.cls-7,.cls-8,.cls-9{stroke:#1d1d1b;}.cls-11,.cls-13,.cls-18,.cls-22,.cls-3,.cls-4,.cls-6,.cls-7,.cls-8,.cls-9{stroke-miterlimit:10;}.cls-3{stroke-width:1.54px;}.cls-11,.cls-13,.cls-17,.cls-20,.cls-21,.cls-4,.cls-6,.cls-7,.cls-8,.cls-9{stroke-width:1.43px;}.cls-5{clip-path:url(#clip-path);}.cls-16,.cls-6{fill:#f6f6f6;}.cls-15,.cls-17,.cls-7,.cls-9{fill:#f5d0ae;}.cls-8{fill:#fff;}.cls-11,.cls-15,.cls-17,.cls-20,.cls-21,.cls-22,.cls-9{stroke-linecap:round;}.cls-10{fill:#1d1d1b;}.cls-12,.cls-14{mix-blend-mode:darken;}.cls-13,.cls-14,.cls-18{fill:#d9a994;}.cls-15,.cls-17,.cls-19,.cls-20,.cls-21{stroke-linejoin:round;}.cls-15{stroke-width:1.26px;}.cls-18{stroke-width:1.36px;}.cls-19{fill:#e6768f;stroke-width:1.36px;}.cls-20{fill:#e94462;}.cls-22{stroke-width:1.22px;}</style><clipPath id="clip-path"><circle class="cls-1" cx="209.91" cy="235.55" r="179.75"/></clipPath></defs><title>девч1_2_2</title><g class="cls-2"><g id="Layer_1" data-name="Layer 1"><path class="cls-3" d="M147.54,56.06c-.94,8.92,1.9,18.62,8.23,23.85a29.13,29.13,0,0,0,8.95,4.67,83.65,83.65,0,0,0,18.94,4.36c5.45.6,11.15.72,16,3.66,2.52,1.53,4.66,3.76,7,5.72a53,53,0,0,0,19.33,10.3,94,94,0,0,1,9.66,3c4.39,1.87,8.35,4.86,12.62,7.07,10.94,5.66,23.33,5.92,35.32,6.08,3.09,0,6.23.08,9.2-.91a23.27,23.27,0,0,0,8.91-6.12C318.69,100.4,322,70.4,316.44,45c-.67-3.1-1.5-6.26-3.28-8.71-2.22-3.06-5.62-4.58-8.86-6L271.36,16c-12.42-5.37-25.51-10.83-38.63-8.6-10.45,1.78-19.95,7.78-30.52,9-6.45.75-13-1-19.41.14C166.78,19.47,149.53,37.12,147.54,56.06Z"/><path class="cls-4" d="M176.15,62.76C191.41,57,204.34,53.32,223.34,58c26.34,6.51,49.42,23.9,64.26,46.46,13.72,20.85,20,36.94,16.78,62-2.45,18.79-9.9,41.88-30,48.29-2.71.87-5.55,1.55-7.95,3.09-2.62,1.7-4.5,4.29-6.5,6.68a63,63,0,0,1-53.6,21.77c-2.26-.23-4.63-.64-6.37-2.09s-2.63-3.9-4-5.83c-4.4-6.26-13.24-6.74-20.73-8.27-28.39-5.8-47.87-30.66-56.23-57.15-9.63-30.5-1.92-58.77,13-85.65,8.4-15.17,18.11-14.62,32.15-19.94C168.39,65.77,172.34,64.2,176.15,62.76Z"/><g class="cls-5"><path class="cls-6" d="M209.05,292.15s-27.53.92-40.37,15.58c-11.76,13.44-19.47,56.69-25.41,68.56s.57,26.45,8.55,31.33,71.06,19.55,118.48,1.95c9-3.33,15.55-29.88,15.55-43.45s-1.33-49.79-11-59.35C264.63,296.56,232.38,289.3,209.05,292.15Z"/></g><path class="cls-7" d="M262.16,192.31C253.25,144,244,81.48,185.85,84.21c-40.7,1.91-47.06,17.8-47.06,78.85,0,0-1.27,14-5.08,24.16-2.17,5.79-.88,11.83-.86,17.78.05,10.69.54,21.6,7.09,30.42A98.77,98.77,0,0,0,163,257.73c3.77,2.6,7.72,4.95,11.39,7.67a51.43,51.43,0,0,0,9.73,6.1c5.9,2.55,11.22,1.25,16.86-1.36l1.61-.74s8.19,10,8.11,18.93,0,6.07-7.53,18c-2.85,4.5-2.45,34.5-2.45,34.5s27-31,42.34-40.38c7.57-4.6-2.54-12.71-5.72-19.07-3.08-6.15-12.14-17.23-9.32-24.47C249.55,244.51,268.41,226.26,262.16,192.31Z"/><circle class="cls-8" cx="151.72" cy="171.75" r="19.71"/><circle class="cls-8" cx="209.38" cy="171.75" r="19.71"/><path class="cls-9" d="M175.67,193c-.36,2.56-2.33,4.56-4.31,6.22s-4.15,3.3-5.17,5.67c-3.72,8.65,11.09,9.61,15.2,4.58"/><circle class="cls-10" cx="218.44" cy="173.78" r="2.03"/><path class="cls-11" d="M185.53,158.72a9.35,9.35,0,0,0,6.79,5.11s-6.47,2.52-9.65-1.08"/><g class="cls-12"><path class="cls-13" d="M171.06,169.42A19.71,19.71,0,0,0,151.49,152a17.83,17.83,0,0,0-17.05,11Z"/><path class="cls-13" d="M134.08,180.76c2.8,4.11,6.89,10.7,17.41,10.7,10.68,0,15-6.27,18.4-12.05Z"/></g><g class="cls-12"><path class="cls-13" d="M228.4,169.42A19.7,19.7,0,0,0,208.84,152a17.86,17.86,0,0,0-17.06,11Z"/><path class="cls-13" d="M191.42,180.76c2.8,4.11,6.9,10.7,17.42,10.7s15-6.27,18.4-12.05Z"/></g><circle class="cls-10" cx="160.61" cy="173.78" r="2.03"/><path class="cls-11" d="M127.7,157.75a9.35,9.35,0,0,0,6.79,5.11s-6.47,2.52-9.65-1.08"/><path class="cls-9" d="M197.87,138.9s12.57-9.75,25.71,0"/><path class="cls-9" d="M141,141.06s12.57-9.75,25.71,0"/><path class="cls-14" d="M225.43,91.31s29.19,97,27.54,117.78c-1.76,22-33.44,56.43-39.79,55.44,0,0,9,2.18,10.23,11.08s9.85,31.77,10,32.12c-.47-1.25,10.69-7.67,9.89-12.62-.56-3.48-5.73-8.25-7.37-11.61a50.46,50.46,0,0,1-4.1-12.25c-1.11-5.67-6.29-9.32-3.43-14.56,2.45-4.48,10.14-5.76,13.9-9a53.76,53.76,0,0,0,12-15.15c5.38-9.8,8.31-20.73,11.19-31.54,3.26-12.24,2.6-23.87.29-36.34C263.84,154.18,225.43,91.31,225.43,91.31Z"/><path class="cls-9" d="M202.61,269.4s12.18-6.24,15.83-8.39"/><path class="cls-10" d="M162.64,173.78c.59,1.08-.55,2-2,2"/><path class="cls-15" d="M215.28,376.19l2.05-.81c-.2-.06,6.72-5.6,9.36-5.8,5.42-.42,10.6-10.14,14.95-12.16,4.05-1.87,9.52,2.63-1.55,12-5.83,4.94,6.32-1.37,13.85,1.41,3.47,1.28,4.08,4.55.36,5.34-3,.62-6.58,1.09-9.44,1.4s-5,.47-5,.47,2.12-.15,5-.47c5.35-.3,13.08-.1,13.08,3.66,0,2.24-.07,3.09-7.38,3.65s-10.31,3.28-10.31,3.28,16.91-3.13,16.91,2.06c0,3.74-9,4.87-17.47,5.43s-9.81,3.42-16.81,2.72a9.55,9.55,0,0,0-4,.3C213.61,392.67,212.62,384,215.28,376.19Z"/><path class="cls-6" d="M141,388s16.22-7.94,23-6.25l6.1,11.25-13.92,5.05s38.38-13.83,59.09-21.89c-2.66,7.84-1.67,16.48,3.59,22.47a29.42,29.42,0,0,0-4.79,1.66c-4.8,2.08-46.14,23.23-52.6,19.49S138.94,404.89,141,388Z"/><path class="cls-16" d="M163,376.19s3.45,7.05.47,9.72S140.86,392.57,141,388,158.18,371.46,163,376.19Z"/><path class="cls-17" d="M197.81,370.9l-2.32-.91c.23-.07-7.6-6.34-10.59-6.57-6.13-.47-12-11.47-16.92-13.75-4.58-2.12-10.76,3,1.75,13.56,6.6,5.58-7.14-1.55-15.66,1.59-3.93,1.45-4.62,5.16-.42,6,3.37.71,7.45,1.24,10.69,1.59,3.19.19,5.64.53,5.64.53s-2.4-.17-5.64-.53c-6.05-.34-14.8-.11-14.8,4.14,0,2.54.08,3.49,8.35,4.13s11.66,3.71,11.66,3.71-19.13-3.54-19.13,2.33c0,4.24,10.14,5.51,19.77,6.15s11.09,3.87,19,3.07a11.1,11.1,0,0,1,4.54.34C199.7,389.54,200.82,379.77,197.81,370.9Z"/><path class="cls-6" d="M279.42,388s-16-12.72-23.6-10.81L248.92,390l15.75,5.71S221.24,380,197.81,370.9c3,8.87,1.89,18.64-4.06,25.42a33,33,0,0,1,5.41,1.89c5.44,2.35,52.21,26.28,59.52,22S281.79,407.11,279.42,388Z"/><polygon class="cls-16" points="257.94 370.89 256.82 379.15 277.08 395.82 282.74 387.16 279.42 372.45 257.94 370.89"/><path class="cls-18" d="M256.59,205s6-11.73,17.49-6.89c5.95,2.5,4.13,32.6-15.26,27.38"/><path class="cls-8" d="M174.17,230.61l1.69,12.08s18.23,1.27,25-4.66,12.79-19.37,12.79-19.37S180.32,236.54,174.17,230.61Z"/><path class="cls-19" d="M171,232.83c-3-.4-7.07-2.28-6.92-6.05.11-2.57,2.39-7.71,16.67-6s19.08,4.07,34.86-4.31C215.6,216.44,195.14,236.06,171,232.83Z"/><path class="cls-19" d="M178,250.75c-3.07-.08-12.23.05-11.72-7.94.31-5,6.21-.74,20.41-3s16.62-9.52,28.93-23.39C215.6,216.44,211.52,251.54,178,250.75Z"/><path class="cls-20" d="M213.67,213.44s4.16,3.18,4.59,6.57"/><path class="cls-21" d="M193,233.6a30.2,30.2,0,0,0,15.05-8.78"/><path class="cls-11" d="M226,222.34a9.71,9.71,0,0,1,.85-5.69"/><path class="cls-11" d="M209.12,344.77S231.37,323,233.07,323L239,336.55s18.87-22,18.13-28.82-5-9.75-5-9.75"/><path class="cls-11" d="M200.74,340.79l-8.68-21.19L182.41,323s1.21-13.57,5.8-18.23,15.61-11.21,15.61-11.21"/><path class="cls-22" d="M170.14,187.56c0,11.15-7.65,23-22.48,20.19-12.54-2.39-20.91-12.29-20.91-23.44s5.67-13.68,20.91-16.94C159.8,164.77,170.14,176.41,170.14,187.56Z"/><path class="cls-22" d="M185.16,187.56c0,11.15,7.66,23,22.48,20.19,12.54-2.39,20.92-12.29,20.92-23.44s-5.67-13.68-20.92-16.94C195.5,164.77,185.16,176.41,185.16,187.56Z"/></g></g></svg>