<svg xmlns="http://www.w3.org/2000/svg" xmlns:xlink="http://www.w3.org/1999/xlink" viewBox="0 0 425.2 425.2"><defs><style>.cls-1,.cls-11,.cls-15,.cls-20{fill:none;}.cls-2{isolation:isolate;}.cls-3{fill:#1e1e1e;stroke-width:1.49px;}.cls-10,.cls-11,.cls-13,.cls-15,.cls-17,.cls-18,.cls-21,.cls-3,.cls-5,.cls-6,.cls-7,.cls-8,.cls-9{stroke:#1d1d1b;}.cls-13,.cls-15,.cls-20,.cls-21,.cls-3,.cls-5,.cls-6,.cls-7,.cls-8{stroke-miterlimit:10;}.cls-4{clip-path:url(#clip-path);}.cls-19,.cls-5{fill:#9d9d9c;}.cls-13,.cls-15,.cls-17,.cls-5,.cls-7,.cls-8{stroke-width:1.43px;}.cls-17,.cls-18,.cls-6,.cls-8{fill:#f5d0ae;}.cls-6{stroke-width:1.43px;}.cls-7{fill:#fff;}.cls-11,.cls-15,.cls-17,.cls-18,.cls-20,.cls-8{stroke-linecap:round;}.cls-10,.cls-9{fill:#e6768f;}.cls-10,.cls-11,.cls-17,.cls-18,.cls-9{stroke-linejoin:round;}.cls-21,.cls-9{stroke-width:1.36px;}.cls-10,.cls-11{stroke-width:1.36px;}.cls-12,.cls-16{mix-blend-mode:darken;}.cls-13,.cls-16,.cls-21{fill:#d9a994;}.cls-14{fill:#1d1d1b;}.cls-18{stroke-width:1.26px;}.cls-20{stroke:#878787;stroke-width:1.94px;}</style><clipPath id="clip-path"><circle class="cls-1" cx="209.91" cy="217.55" r="179.75"/></clipPath></defs><title>девч1_2_2</title><g class="cls-2"><g id="Layer_1" data-name="Layer 1"><path class="cls-3" d="M268.4,181.52s17.14-10.27,18.26-14.52,3.74-15.22,3.74-15.22l-1-8.21s24.29,6.92,28.48,0c0,0-14.69-.86-18.88-13.86s.91-26.74-5.84-32.93S274.8,81,274.8,81l8.64-11s9.07-7.94,9.69-11.68C295.21,45.63,278.91,21.19,265.5,15S230.26,4.54,224.74,4.54s-14.82.77-22.3,8.4c-5.25,5.37-9.41,10.16-5.25,17.37,3.66,6.37,5,7.77-13.76,9s-12.73-2.06-33.06,3.91C132,48.56,115.68,63.8,115,70s-9.79,8.46-1.4,22.44,12.23,18.79,12.23,18.79l5.06,18.5s-22.88-8.19-25.68-18.5c0,0-.17,27.15,14,34.42s77.58,3.07,77.58,3.07l33.88,18.13Z"/><g class="cls-4"><path class="cls-5" d="M209.35,274.15s-37.77.63-44,17.17-17.19,55.59-22.7,67.46,6.16,26,13.58,30.84,66,19.55,110.07,1.95c8.33-3.33,14.45-29.88,14.45-43.45s-5.09-45.94-10.18-59.35S231,271.3,209.35,274.15Z"/></g><path class="cls-6" d="M262.16,174.31c-4.91-26.64-14.11-63.89-25.64-69.44-8.73-4.21-10.68-22-27.16-28.61-6.17-2.48-18.9,10.32-29.65,6.6C148.25,72,138.79,84,138.79,145.06c0,0-1.27,14-5.08,24.16-2.4,6.38-.41,24.81,8.15,41,5.1,9.63,14.64,16.49,21.18,24.91,19.75,25.41,24,23.5,38,17l5-2.27h0s4.84,11.56,4.76,20.46,0,6.07-7.53,18c-2.85,4.5-.61,8.83,7.41,9.9,9.87,1.31,17.13-6.43,32.48-15.78,7.57-4.6-2.54-12.71-5.72-19.07-3.08-6.15-12.14-17.23-9.32-24.47C248.74,217.72,268.41,208.26,262.16,174.31Z"/><circle class="cls-7" cx="151.72" cy="153.75" r="19.71"/><circle class="cls-7" cx="209.38" cy="153.75" r="19.71"/><path class="cls-8" d="M175.25,159.87s.22,15.72-7.28,21.65c-4.6,3.64-5.39,11.58,3.09,14.13s14.47-4,14.47-4"/><path class="cls-9" d="M185.53,217.55c-2.91.25-18.45,1-18.63-4.81-.05-1.28,1.78-6.69,14.57-6,16.5.91,18.16,3.87,33.19-4.1C214.66,202.65,205.54,215.83,185.53,217.55Z"/><path class="cls-10" d="M179.71,232.6c-2.92-.07-12.21-2-11.72-9.58.3-4.73,6-3.55,19.51-5.68s15.44-1.49,27.16-14.69C214.66,202.65,211.63,233.35,179.71,232.6Z"/><path class="cls-11" d="M211.82,198.79s6.62,7.26,5.75,11.83"/><g class="cls-12"><path class="cls-13" d="M228.89,151.42A19.7,19.7,0,0,0,209.33,134c-11.46,0-16.25,7-18.55,13.18Z"/><path class="cls-13" d="M191.16,161.07a19.24,19.24,0,0,0,18.17,12.39c9.11,0,14.78-6.27,18.22-12.05Z"/></g><circle class="cls-14" cx="218.44" cy="155.78" r="2.03"/><path class="cls-15" d="M185.53,141.72a9.35,9.35,0,0,0,6.79,5.11s-6.47,2.52-9.65-1.08"/><g class="cls-12"><path class="cls-13" d="M171.06,151.42A19.71,19.71,0,0,0,151.49,134c-10.52,0-16.11,8.69-17.94,12.82Z"/><path class="cls-13" d="M133.55,161.41c2.94,4.85,7.42,12.05,17.94,12.05,10.68,0,15-6.27,18.4-12.05Z"/></g><circle class="cls-14" cx="160.61" cy="155.78" r="2.03"/><path class="cls-15" d="M127.7,142.1a9.35,9.35,0,0,0,6.79,5.11s-6.47,2.52-9.65-1.08"/><path class="cls-8" d="M197.87,120.9s12.57-9.75,25.71,0"/><path class="cls-8" d="M141,123.06s12.57-9.75,25.71,0"/><path class="cls-16" d="M225.43,73.31s29.19,97,27.54,117.78c-1.76,22-33.44,56.43-39.79,55.44,0,0,9,2.18,10.23,11.08s10,32.12,10,32.12,12.67-7.46,11.76-12.11S223.69,250.43,223.58,243s29.48-17.67,37.13-42.36c3.89-12.55,7-43.43,5.08-54S225.43,73.31,225.43,73.31Z"/><path class="cls-8" d="M206.83,248.92s8-3.76,11.61-5.91"/><path class="cls-17" d="M163,349.5c3.24.36,5.64.53,5.64.53S166.24,349.69,163,349.5Z"/><path class="cls-18" d="M214,353.23l2-.8c-.2-.06,6.73-5.6,9.37-5.8,5.41-.42,10.6-10.14,14.95-12.16,4-1.87,9.51,2.63-1.55,12-5.83,4.94,6.31-1.37,13.84,1.41,3.47,1.28,4.09,4.55.37,5.33-3,.63-6.58,1.1-9.44,1.41-2.83.16-5,.47-5,.47s2.12-.16,5-.47c5.34-.3,13.07-.1,13.07,3.65,0,2.25-.06,3.09-7.38,3.66s-10.3,3.27-10.3,3.27,16.91-3.12,16.91,2.07c0,3.74-9,4.87-17.47,5.43s-9.81,3.42-16.82,2.71a9.94,9.94,0,0,0-4,.3C212.31,369.71,211.33,361.07,214,353.23Z"/><path class="cls-5" d="M142.07,362.76s13.9-5.62,20.64-3.93l6.1,11.24-13.92,5.05s38.39-13.82,59.1-21.89c-2.66,7.84-1.68,16.48,3.58,22.47a30.25,30.25,0,0,0-4.78,1.67c-4.81,2.08-46.14,23.23-52.61,19.48S140,379.62,142.07,362.76Z"/><path class="cls-19" d="M161.71,353.23s3.44,7.06.47,9.73-22.16,8-19.28-1C144.28,357.59,156.91,348.51,161.71,353.23Z"/><path class="cls-14" d="M162.64,155.78c.59,1.08-.55,2-2,2"/><path class="cls-17" d="M196.51,347.94l-2.31-.9c.22-.07-7.61-6.34-10.6-6.57-6.13-.47-12-11.47-16.92-13.76-4.57-2.12-10.76,3,1.76,13.57,6.6,5.58-7.15-1.55-15.67,1.59-3.92,1.45-4.62,5.15-.41,6,3.37.71,7.44,1.24,10.68,1.59,3.2.19,5.64.53,5.64.53s-2.4-.17-5.64-.53c-6-.34-14.79-.11-14.79,4.13,0,2.55.07,3.5,8.35,4.14s11.66,3.71,11.66,3.71-19.13-3.54-19.13,2.33c0,4.24,10.13,5.51,19.76,6.14s11.1,3.87,19,3.08a11.05,11.05,0,0,1,4.53.34C198.41,366.59,199.52,356.81,196.51,347.94Z"/><path class="cls-5" d="M277.88,358.72s-15.72-6.36-23.35-4.45L247.62,367l15.75,5.71s-43.43-15.64-66.86-24.77c3,8.87,1.9,18.65-4.06,25.43a33.44,33.44,0,0,1,5.42,1.88c5.44,2.36,52.2,26.29,59.52,22.05S280.25,377.8,277.88,358.72Z"/><polygon class="cls-19" points="256.64 347.94 255.53 356.19 272.52 365.08 278.12 361.3 278.12 349.5 256.64 347.94"/><path class="cls-15" d="M179.71,59.39S190.8,34.76,214.66,38"/><path class="cls-15" d="M192.18,57.05s20.21-17.93,40.63-5.16"/><path class="cls-20" d="M183.63,187.2s4.05-2,4.86,2.3c.33,1.81,1,4.53-3.08,4"/><path class="cls-21" d="M258,183.32s6-11.73,17.49-6.89c5.95,2.5,4.14,32.6-15.26,27.38"/><path class="cls-5" d="M198.13,304.64s-18-22.75-8.47-32,8.19-9.89,14.19-10-2.17-.14,6.85,10,9.41,4.75,17,.71,14.87-12.05,24.87-8.05,18.71,13.08,15.69,18.21-3,13.83-12.68,14.81-31.95,4.51-31.95,4.51"/></g></g></svg>