<svg xmlns="http://www.w3.org/2000/svg" xmlns:xlink="http://www.w3.org/1999/xlink" viewBox="0 0 425.2 425.2"><defs><style>.cls-1,.cls-11,.cls-15{fill:none;}.cls-2{isolation:isolate;}.cls-3{fill:#4e2d1a;}.cls-10,.cls-11,.cls-13,.cls-15,.cls-16,.cls-17,.cls-3,.cls-6,.cls-7,.cls-8,.cls-9{stroke:#1d1d1b;}.cls-13,.cls-15,.cls-3,.cls-7,.cls-8,.cls-9{stroke-miterlimit:10;}.cls-13,.cls-15,.cls-3,.cls-6,.cls-7,.cls-8,.cls-9{stroke-width:1.43px;}.cls-13,.cls-4{fill:#d9a994;}.cls-12,.cls-4{mix-blend-mode:darken;}.cls-5{clip-path:url(#clip-path);}.cls-6{fill:#2fac66;}.cls-11,.cls-15,.cls-16,.cls-17,.cls-6,.cls-9{stroke-linecap:round;}.cls-10,.cls-11,.cls-16,.cls-17,.cls-6{stroke-linejoin:round;}.cls-16,.cls-17,.cls-7,.cls-9{fill:#f5d0ae;}.cls-8{fill:#fff;}.cls-10{fill:#e6768f;}.cls-10,.cls-11{stroke-width:1.3px;}.cls-14{fill:#1d1d1b;}.cls-16{stroke-width:1.24px;}.cls-17{stroke-width:1.38px;}</style><clipPath id="clip-path"><circle class="cls-1" cx="209.91" cy="217.55" r="179.75"/></clipPath></defs><title>девч1_2_2</title><g class="cls-2"><g id="Layer_1" data-name="Layer 1"><path class="cls-3" d="M134.49,66.12s-28.13,13.86-22,60.48c5.67,42.89-1.53,63.06-10.67,79.94C80.52,246,134.49,272.6,134.49,272.6s-3.3,5.77,7.37-2.09S157,269.8,168,272.6s9.23-.9,17.56-2.09,39.9,10.76,49.76,8.94,49.53-14,49.53-14l29,7.11s16-20.13,16-43.9-13.71-41.55-27-84.3-16.42-57.75-24.69-71.09-31-39.49-57.65-39.5c-40.76,0-53.79,27.72-53.79,27.72S146.1,56.57,134.49,66.12Z"/><path class="cls-4" d="M265.86,265.27s-6.67-4.48-6.07-16.35,15-44.42,12-56.61-15.34-17.2-15.34-17.2,8.68,1.95,17.49-6.88c4.31-4.34-40.68-23.53-53.43-12.45"/><path class="cls-4" d="M222.6,145.08l-71.85,36.55s2.22,16.31-3.48,27.93,19.27,24.42,17.32,30.33,5.35,13.83,15.06,23c11.24,10.6,19.53-9.73,20.69-7.34s24.37,8.06,24.37,8.06l8.1,13.71"/><g class="cls-5"><path class="cls-6" d="M211.29,270.51s-28.71,7.31-35,23.84S157.19,332.12,159.05,344c2,12.93,1.5,41.32,8.92,46.2s54.24,19,98.29,1.37c8.33-3.33,14.45-29.88,14.45-43.45s-3.28-46.78-10.18-59.35C255,260.42,233,267.66,211.29,270.51Z"/></g><path class="cls-7" d="M262.16,174.31C253.25,126,245.16,71.78,187.5,80c-26.95,3.83-55.13,3.68-55.13,64.72,0,0,5.15,14.35,1.34,24.52s-3.62,44.19,22.81,62.54c27.91,19.37,32,20.65,46,14.21,1.61-.75,3.46,3.9,3.46,3.9s4.71,8.73,4.64,17.63.12-3-7.4,8.88c-2.85,4.51-20.29,33.35,1.1,36.49,24.8,3.65,28.52-21.93,38.79-42.36,4-7.92-2.55-.81-5.73-7.17-3.08-6.15-12.64-21.78-9.81-29C249.06,222,268.41,208.26,262.16,174.31Z"/><circle class="cls-8" cx="151.72" cy="153.75" r="19.71"/><circle class="cls-8" cx="209.38" cy="153.75" r="19.71"/><path class="cls-9" d="M175.25,159.87s-1.52,13.94-3.81,23.23c-1.29,5.21-8.86,10-.38,12.55s14.47-4,14.47-4"/><path class="cls-10" d="M186.7,214.33c-3,.22-18.9.86-19.09-4.28-.05-1.13,1.83-5.93,14.94-5.31,16.9.81,18.61,3.44,34-3.64C216.56,201.1,207.22,212.8,186.7,214.33Z"/><path class="cls-10" d="M180.74,227.68c-3-.06-12.51-1.76-12-8.5.31-4.2,6.14-3.15,20-5s15.83-1.32,27.84-13C216.56,201.1,213.46,228.35,180.74,227.68Z"/><path class="cls-11" d="M213.1,197.73s6.15,4.27,5.25,8.33"/><g class="cls-12"><path class="cls-13" d="M228.89,151.42A19.7,19.7,0,0,0,209.33,134c-11.46,0-16.25,7-18.55,13.18Z"/><path class="cls-13" d="M191.16,161.07a19.24,19.24,0,0,0,18.17,12.39c9.11,0,14.78-6.27,18.22-12.05Z"/></g><circle class="cls-14" cx="218.44" cy="155.78" r="2.03"/><path class="cls-15" d="M185.53,141.72a9.35,9.35,0,0,0,6.79,5.11s-6.47,2.52-9.65-1.08"/><g class="cls-12"><path class="cls-13" d="M171.06,151.42A19.71,19.71,0,0,0,151.49,134c-10.52,0-16.11,8.69-17.94,12.82Z"/><path class="cls-13" d="M133.55,161.41c2.94,4.85,7.42,12.05,17.94,12.05,10.68,0,15-6.27,18.4-12.05Z"/></g><circle class="cls-14" cx="160.61" cy="155.78" r="2.03"/><path class="cls-15" d="M127.7,142.1a9.35,9.35,0,0,0,6.79,5.11s-6.47,2.52-9.65-1.08"/><path class="cls-9" d="M189.66,126.44s14.17-17.87,33.92-5.54"/><path class="cls-9" d="M141,123.06s17.61-9.11,27.59,5.59"/><path class="cls-9" d="M203.83,245.92s8-3.76,11.61-5.91"/><path class="cls-15" d="M266.84,116.56s11.28,33.85,19,42.18,17,27.52,17,38.27"/><path class="cls-14" d="M162.64,155.78c.59,1.08-.55,2-2,2"/><path class="cls-15" d="M190.17,311.75s.23,17.12,33.66,7.19"/><path class="cls-15" d="M179.71,59.39S190.8,34.76,214.66,38"/><path class="cls-15" d="M192.18,57.05s20.21-17.93,40.63-5.16"/><path class="cls-7" d="M261.49,178.05c21.45-4.59,15.52,32.72-3.88,27.49"/><path class="cls-4" d="M225.43,73.31s29.19,97,27.54,117.78c-1.76,22-35.34,52.16-41.68,51.16,0,0,10.88,6.46,12.12,15.36s10,32.12,10,32.12,12.67-7.46,11.76-12.11-4.29-24.23-4.4-31.65,34.12-15.23,41.77-39.92c3.89-12.56-14.78-48.83-16.73-59.35S225.43,73.31,225.43,73.31Z"/><path class="cls-16" d="M160.61,378.42s38.19-16.27,57.83-24c-.19-.05,7-7.88,9.6-8.08,5.29-.41,10.36-9.91,14.61-11.88,3.95-1.83,9.29,2.57-1.51,11.72-5.7,4.82,6.17-1.34,13.52,1.37,3.39,1.25,4,4.45.36,5.22a131.68,131.68,0,0,1-14.09,1.83s17.64-2.5,17.64,3.11c0,2.19-.06,3-7.21,3.57s-10.07,3.2-10.07,3.2,16.52-3.06,16.52,2c0,3.66-8.75,4.76-17.07,5.31s-9.58,3.34-16.42,2.66c-.77-.08-2.89-.55-8.6,1.92-4.69,2-44.34,20.91-51.4,19-17.9-4.76-5.25-46.82-3.21-63.29,0,0,11,0,17.63,1.64l-6,35.49"/><path class="cls-17" d="M254.89,379.82c-5.87,1.06-35.37-11.37-57.25-21.51-.71.85-4.92-4.66-10.14-6.55-8.25-3-6.45-20.44-11.19-22.67-3.11-1.46-6.42,6.45-3.12,16.45,2.61,7.92-9,.57-17.26,3.6-3.79,1.4-4.46,5-.4,5.84a145,145,0,0,0,15.76,2s-19.73-2.78-19.73,3.48c0,2.46.07,3.38,8.06,4s11.26,3.58,11.26,3.58-18.47-3.41-18.47,2.25c0,4.1,9.78,5.33,19.08,5.94s10.72,3.73,18.37,3c.86-.09,3.22-.62,9.61,2.15,5.25,2.27,50.4,25.37,57.46,21.28S280,358,277.74,339.6c0,0-16.18-7.38-23.55-5.54l-9.45,43.12"/></g></g></svg>