<svg xmlns="http://www.w3.org/2000/svg" xmlns:xlink="http://www.w3.org/1999/xlink" viewBox="0 0 425.2 425.2"><defs><style>.cls-1,.cls-17,.cls-21{fill:none;}.cls-2{isolation:isolate;}.cls-3{fill:#36a9e1;}.cls-24,.cls-4{fill:#f2ea79;}.cls-11,.cls-12,.cls-13,.cls-14,.cls-15,.cls-16,.cls-17,.cls-19,.cls-21,.cls-22,.cls-23,.cls-25,.cls-27,.cls-4,.cls-7,.cls-8,.cls-9{stroke:#1d1d1b;}.cls-11,.cls-12,.cls-13,.cls-14,.cls-19,.cls-21,.cls-4,.cls-7{stroke-miterlimit:10;}.cls-11,.cls-12,.cls-13,.cls-19,.cls-21,.cls-25,.cls-27,.cls-4,.cls-7,.cls-8{stroke-width:1.43px;}.cls-19,.cls-5{fill:#d9a994;}.cls-18,.cls-5{mix-blend-mode:darken;}.cls-6{clip-path:url(#clip-path);}.cls-27,.cls-7{fill:#2d2e83;}.cls-23,.cls-8,.cls-9{fill:#333;}.cls-13,.cls-16,.cls-17,.cls-21,.cls-22,.cls-23,.cls-25,.cls-27,.cls-8,.cls-9{stroke-linecap:round;}.cls-15,.cls-16,.cls-17,.cls-22,.cls-23,.cls-25,.cls-27,.cls-8,.cls-9{stroke-linejoin:round;}.cls-9{stroke-width:0.8px;}.cls-10,.cls-12,.cls-14{fill:#fff;}.cls-11,.cls-13,.cls-22,.cls-25{fill:#f5d0ae;}.cls-14,.cls-15,.cls-16,.cls-17{stroke-width:1.36px;}.cls-15{fill:#e6768f;}.cls-16{fill:#e94462;}.cls-20{fill:#1d1d1b;}.cls-22{stroke-width:1.28px;}.cls-23{stroke-width:1.42px;}.cls-26{clip-path:url(#clip-path-2);}.cls-28{fill:#5f5f5e;}.cls-29{fill:#b2b2b2;mix-blend-mode:overlay;}</style><clipPath id="clip-path"><circle class="cls-1" cx="211.91" cy="215.91" r="179.75"/></clipPath><clipPath id="clip-path-2"><path class="cls-1" d="M162.42,37.68c58.33-24.31,103.73,7.45,116,21.16,22.33,25,1.45,48.42,21,81.48S322.56,211,331,231.38s.3,48.78-3.39,63.62c-7.23,29.1-18.86,27.13-24.57,33l-22.36,13.64-10.17-1.77s-5.64-24.58-10.49-26.28-57.81-9.11-65.42-7-22.15,4.46-33.77,0,20.74,10,6.09,20c-7.85,5.35-18.44-4.45-18.44-4.45h0c-12.53-15.56-22.82-10.94-31.14-60.65-5.48-32.76,14-74,7.73-118.88s-5.63-48.43,9.65-72.95c13.76-22.07,24.79-15.82,30.1-23.81C166,44.07,162.42,37.68,162.42,37.68Z"/></clipPath></defs><title>дев</title><g class="cls-2"><g id="Layer_1" data-name="Layer 1"><circle class="cls-3" cx="213.29" cy="215.91" r="179.75"/><path class="cls-4" d="M164.15,36.16c58.32-24.3,103.73,7.45,116,21.16,22.34,25,1.45,48.43,20.95,81.48s23.22,70.72,31.7,91.06.3,48.78-3.39,63.63c-7.24,29.1-18.87,27.13-24.57,33l-22.36,13.64-10.17-1.77s-5.64-24.59-10.49-26.28-57.82-9.11-65.42-7-22.15,4.46-33.78,0,20.75,10,6.09,20c-7.84,5.35-18.43-4.45-18.43-4.45h0c-12.53-15.56-22.83-10.94-31.14-60.66-5.48-32.75,14-73.94,7.73-118.87s-5.63-48.43,9.65-72.95c13.76-22.08,24.78-15.82,30.1-23.81C167.77,42.55,164.15,36.16,164.15,36.16Z"/><path class="cls-5" d="M224.6,143.44,152.75,180s2.22,16.31-3.48,27.93,19.27,24.42,17.32,30.33,5.35,13.83,15.06,23c11.24,10.59,21.26,18.63,22.42,21s-15.55,20.33-15.55,20.33l17.56-29.2,19.5,14.71,42.28-24.46s-6.67-4.48-6.07-16.35,20.42-32.83,17.35-45-20.73-28.79-20.73-28.79,6-11.72,17.49-6.89c6,2.51,4.13,32.61-15.26,27.38"/><g class="cls-6"><path class="cls-7" d="M211.35,272.5s-37.77.64-44,17.17-18,55.92-23.54,67.79,1.16,27.58,8.58,32.47,71.86,17.6,115.91,0c8.33-3.33,14.45-29.88,14.45-43.45s-5.09-46-10.18-59.35S233,269.66,211.35,272.5Z"/><path class="cls-8" d="M250,270.14S235,285.71,231.09,297s-17.94,53.64-19.18,59.6S203,395.66,203,395.66s79.4-1.73,81.9-4.28,2.93-34.34,2.93-42,4-33.49,2.55-40.27S278,268.58,250,270.14Z"/><path class="cls-9" d="M175.14,277.8s-1.21,18.47,0,29.76-.43,50.38,0,56.33S177.88,403,177.88,403s-24.78-1.73-25.56-4.28-14.6-27.85-14.6-35.48,15-41.67,15.48-48.45S166.42,276.25,175.14,277.8Z"/><circle class="cls-10" cx="200.63" cy="324.6" r="2.37"/><circle class="cls-10" cx="184.67" cy="320.62" r="2.37"/><circle class="cls-10" cx="191.66" cy="301.2" r="2.37"/><circle class="cls-10" cx="214.64" cy="330.36" r="2.37"/><circle class="cls-10" cx="208.83" cy="338.39" r="2.37"/><circle class="cls-10" cx="186.94" cy="346.56" r="2.37"/><circle class="cls-10" cx="220.44" cy="301.2" r="2.37"/><circle class="cls-10" cx="195.37" cy="354.51" r="2.37"/><circle class="cls-10" cx="198.74" cy="372.88" r="2.37"/><circle class="cls-10" cx="184.67" cy="370.51" r="2.37"/><circle class="cls-10" cx="195.37" cy="336.12" r="2.37"/></g><path class="cls-11" d="M264.16,172.67C255.25,124.34,246,61.84,187.85,64.57c-40.7,1.9-47.06,17.8-47.06,78.85,0,0-1.27,14-5.08,24.16s-.64,46.22,24.8,65.94,28.54,23.42,42.49,17l5-2.27h0s4.84,11.56,4.76,20.46-10.26,5.65-9.72,19.71a306.53,306.53,0,0,0,3.08,32.22s23.65-30.51,39-39.85c7.57-4.6-2.54-12.72-5.72-19.08-3.08-6.14-12.14-17.22-9.32-24.46C251.55,224.87,270.41,206.62,264.16,172.67Z"/><circle class="cls-12" cx="153.72" cy="152.11" r="19.71"/><circle class="cls-12" cx="211.38" cy="152.11" r="19.71"/><path class="cls-13" d="M177.25,158.23s-.19,17.73-8.9,19.53c-5.74,1.18-6.12,15.07,2.36,17.61s16.82-2.82,16.82-2.82"/><path class="cls-14" d="M177.22,214.49l1.61,11.5s17.35,1.21,23.81-4.44,12.18-18.44,12.18-18.44S183.07,220.14,177.22,214.49Z"/><path class="cls-15" d="M174.19,216.61c-2.9-.39-10.72-.3-10-6.05s5.69-7.05,19.28-5.45,18.16,3.87,33.19-4.1C216.66,201,197.18,219.68,174.19,216.61Z"/><path class="cls-15" d="M180.85,233.66c-2.92-.07-11.65.05-11.16-7.56.3-4.73,5.92-.7,19.43-2.83s15.82-9.06,27.54-22.26C216.66,201,212.77,234.41,180.85,233.66Z"/><path class="cls-16" d="M214.82,198.15s4,3,4.36,6.25"/><path class="cls-17" d="M195.17,217.34A28.74,28.74,0,0,0,209.5,209"/><g class="cls-18"><path class="cls-19" d="M230.89,149.78a19.7,19.7,0,0,0-36.57-7.61Z"/><path class="cls-19" d="M195.55,163.89a19.67,19.67,0,0,0,32.72-1.74Z"/></g><circle class="cls-20" cx="220.44" cy="154.14" r="2.03"/><path class="cls-21" d="M187.53,137.06a9.35,9.35,0,0,0,6.79,5.11s-6.47,2.52-9.65-1.08"/><g class="cls-18"><path class="cls-19" d="M173.06,149.78a19.7,19.7,0,0,0-36.57-7.61Z"/><path class="cls-19" d="M137.72,163.89a19.67,19.67,0,0,0,32.72-1.74Z"/></g><circle class="cls-20" cx="162.61" cy="154.14" r="2.03"/><path class="cls-21" d="M129.7,137.06a9.35,9.35,0,0,0,6.79,5.11s-6.47,2.52-9.65-1.08"/><path class="cls-13" d="M199.87,119.25s12.57-9.75,25.71,0"/><path class="cls-13" d="M143,121.42s12.57-9.75,25.71,0"/><path class="cls-22" d="M158.12,366.16s41.53-15,61.87-23c-.21-.06,6.8-5.67,9.47-5.88,5.48-.42,10.73-10.26,15.13-12.3,4.09-1.89,9.63,2.66-1.57,12.13-5.9,5,6.4-1.38,14,1.43,3.52,1.29,4.14,4.61.38,5.4a135.56,135.56,0,0,1-14.6,1.9s18.27-2.58,18.27,3.22c0,2.27-.07,3.13-7.47,3.69s-10.42,3.32-10.42,3.32S260.3,353,260.3,358.2c0,3.79-9.07,4.93-17.68,5.5s-9.93,3.46-17,2.74c-.79-.08-3-.56-8.9,2-4.86,2.1-46.69,23.5-53.23,19.71s-20.45-17.44-18.33-34.5c0,0,14.06-5.69,20.89-4l6.17,11.38"/><path class="cls-21" d="M211.38,324.6s22.25-21.78,24-21.78l5.93,13.56s18.87-22,18.13-28.83-5-9.75-5-9.75"/><path class="cls-21" d="M203,320.62l-8.68-21.2-9.65,3.4s1.21-13.57,5.8-18.23,15.61-11.21,15.61-11.21"/><path class="cls-5" d="M192,102.69s66.19,74.54,55.81,92.61-26.3,50.58-32.65,49.58c0,0,9,2.19,10.23,11.09s10,32.12,10,32.12,13.35-5.64,12.44-10.29-17.27-26.49-17.38-33.91,41.15-20.53,47.7-31.92,7.88-43.22,5.93-53.74S192,102.69,192,102.69Z"/><path class="cls-13" d="M208.83,247.28s8-3.77,11.61-5.91"/><path class="cls-23" d="M145.09,350.32c-2.18,26.32,18.21,42,21.36,44.52s8.66-1.53,18-2.76c8.55-1.12,49.09-19.71,49.09-19.71-.85-5.09-9.43-36.25-9.43-36.25s-28,9.22-31.69,12.08-12.78,3.85-15.85,3.82-2-1.49-2-1.49"/><path class="cls-4" d="M265.37,241.37s3.8,11.34-3.58,23.89-17.15,25.83-19.59,28.19c-8,7.75-6.93,29.68-6.93,29.68s36,.85,46.82-15.69,20.37-15,20.37-15"/><path class="cls-4" d="M166.59,39.52s10.24.34,10,39.43c-.13,23.58,2.49,35,26.38,48.32s29.28,6.84,39.2,22.51c10,15.82,23.39,28.89,34.86,45.52,8.47,12.27,15.86,82.5,15.86,82.5s18.23-2.58,9.54-61.44c-1.41-9.52.63-48.32-9.54-84s-57-94-70.45-96"/><path class="cls-4" d="M192,272.5s-5.41-2.75-1.55,12.09S192,329.91,192,329.91s-6.65,2.94-15.19-5.31-21-14.19-24.09-27.6c-1.13-4.89-.56-24-2.49-31.74-1.19-4.7-7.28-18-7.28-18"/><path class="cls-24" d="M201.71,32.17s28,55.27,36.76,64.17,18.88,31.83,18.88,31.83l16,25.84s1.69,20.84,3.69,26.1,23.46,46.95,23.46,46.95l12.87-5.72v-9.21l-10.26-56.88-26.94-72.9s-4.22-16.21-9.58-22.09-18.76-18.6-18.76-18.6Z"/><path class="cls-25" d="M265.37,371.07s-46.43-16.73-69.17-25.68c.22-.06-7.61-6.33-10.6-6.56-6.13-.47-12-11.48-16.92-13.76-4.57-2.12-10.76,3,1.76,13.57,6.6,5.58-7.15-1.55-15.67,1.59-3.92,1.45-4.62,5.15-.41,6a150.64,150.64,0,0,0,16.32,2.12s-20.43-2.89-20.43,3.6c0,2.54.07,3.5,8.35,4.13s11.66,3.71,11.66,3.71-19.13-3.54-19.13,2.34c0,4.24,10.13,5.51,19.76,6.14s11.1,3.87,19,3.08c.89-.09,3.33-.64,10,2.22,5.44,2.35,52.2,26.29,59.52,22.05s22.86-19.5,20.49-38.58c0,0-15.72-6.36-23.35-4.45l-6.91,12.73"/><path class="cls-8" d="M283.81,352.59c2.22,26.32-18.62,42-21.84,44.51s-8.85-1.52-18.44-2.75c-8.74-1.12-50.16-19.71-50.16-19.71.86-5.09,9.63-36.25,9.63-36.25s28.6,9.22,32.39,12.08,13.06,3.85,16.2,3.82,2-1.5,2-1.5"/><path class="cls-21" d="M216.66,87.42s8.45,27.3,19,34,24.9,53.43,33.14,62.3"/><path class="cls-21" d="M277.06,268.87s-.23,24.82-11.69,32.33"/><g class="cls-26"><path class="cls-10" d="M334.76,299.83s-7.67-56.57-13-86.67c-5.29-29.79-19.29-41.34-28.83-63.38-11.27-26-13.57-47.85-18.65-72.53S222.39,23,222.39,23L289.62-8.29,400.27,111.29V261Z"/></g><path class="cls-21" d="M268.84,114.92s11.28,33.85,19,42.18,17,27.52,17,38.27"/><path class="cls-27" d="M206.08,323.14a173.84,173.84,0,0,1-11.76-23.72c-5.81-14.2-21.26-30.55-21.26-30.55,4.35-7.21,39.66,2.33,39.66,2.33s-7.17,4.88-8.65,11.05-.59,11.57-.59,14.75-.4,6.37.66,7.8S206.08,323.14,206.08,323.14Z"/><path class="cls-21" d="M192,57.75s7.42,42.39,18.55,49.17"/><path class="cls-28" d="M249.26,358.32s-6.36,16.53-2.12,18.22,5.18-16.16,5.18-16.16,14.06,12.77,16.52,9.81,6.44-5.94,0-6.79-6-3-6-3,8.42,1.29,9.51-3.78-1.11-5.49-1.11-5.49h-5.85s6.51-7.67,5.85-9.44-7.55-3.28-7.55-3.28l-2.59-11s-.46,11.65,0,14.3,3.48,4.67,1.74,6.05c0,0-4.28,2.44-3.41,4.19s3.75,3.65,1.67,3.86S249.47,353.65,249.26,358.32Z"/><path class="cls-29" d="M202.34,378.59s47.5,15.71,56.82,13.85,10.87-8.69,13.47-13.35,10.08-32.61,10.08-32.61H284s-.45,18.74-2.75,25.43c-4.36,12.69-13.94,22.45-19.25,25.19S202.34,378.59,202.34,378.59Z"/></g></g></svg>