<svg xmlns="http://www.w3.org/2000/svg" xmlns:xlink="http://www.w3.org/1999/xlink" viewBox="0 0 425.2 425.2"><defs><style>.cls-1,.cls-14,.cls-18{fill:none;}.cls-2{isolation:isolate;}.cls-19,.cls-3{fill:#f2ea79;}.cls-10,.cls-11,.cls-12,.cls-13,.cls-14,.cls-16,.cls-18,.cls-20,.cls-21,.cls-22,.cls-3,.cls-6,.cls-7,.cls-8,.cls-9{stroke:#1d1d1b;}.cls-10,.cls-11,.cls-16,.cls-18,.cls-3,.cls-6,.cls-8,.cls-9{stroke-miterlimit:10;}.cls-10,.cls-16,.cls-18,.cls-20,.cls-3,.cls-6,.cls-7,.cls-8,.cls-9{stroke-width:1.43px;}.cls-16,.cls-4{fill:#d9a994;}.cls-15,.cls-4{mix-blend-mode:darken;}.cls-5{clip-path:url(#clip-path);}.cls-6{fill:#f6f6f6;}.cls-22,.cls-23,.cls-7{fill:#575756;}.cls-10,.cls-13,.cls-14,.cls-18,.cls-20,.cls-21,.cls-22,.cls-7{stroke-linecap:round;}.cls-12,.cls-13,.cls-14,.cls-20,.cls-21,.cls-22,.cls-7{stroke-linejoin:round;}.cls-10,.cls-20,.cls-21,.cls-8{fill:#f5d0ae;}.cls-11,.cls-9{fill:#fff;}.cls-11,.cls-12,.cls-13,.cls-14{stroke-width:1.36px;}.cls-12{fill:#e6768f;}.cls-13{fill:#e94462;}.cls-17{fill:#1d1d1b;}.cls-21,.cls-22{stroke-width:1.26px;}</style><clipPath id="clip-path"><circle class="cls-1" cx="209.91" cy="217.55" r="179.75"/></clipPath></defs><title>девч1_2_2</title><g class="cls-2"><g id="Layer_1" data-name="Layer 1"><path class="cls-3" d="M162.15,37.81c58.32-24.31,103.73,7.45,116,21.16,22.34,25,22.74,45.3,31.29,82.72,12.28,53.74,17.63,77,18.22,99,.89,32.89-2.11,39.62-6.66,54.23-5.53,17.69-12.46,27.3-18.16,33.2L280.45,341.8,270.28,340s-5.64-24.59-10.49-26.28-57.82-9.11-65.42-7-22.15,4.46-33.78,0,20.75,10,6.09,20c-7.84,5.35-18.43-4.45-18.43-4.45h0c-12.53-15.56-22.83-10.94-31.14-60.65-5.48-32.76,17.38-55.56,7.73-118.88-6.84-44.85-5.63-48.43,9.65-72.95C148.25,47.71,159.27,54,164.59,46,165.77,44.2,162.15,37.81,162.15,37.81Z"/><path class="cls-4" d="M222.6,145.08l-71.85,36.55s2.22,16.31-3.48,27.93,19.27,24.42,17.32,30.33,5.35,13.83,15.06,23c11.24,10.6,21.26,18.63,22.42,21s-15.55,20.32-15.55,20.32L204.08,275l25.3,29.61,36.48-39.37s-6.67-4.48-6.07-16.35,15-44.42,12-56.61-15.34-17.2-15.34-17.2,8.68,1.95,17.49-6.88c4.31-4.34-40.68-23.53-53.43-12.45"/><g class="cls-5"><path class="cls-6" d="M209.35,274.15s-37.77.63-44,17.17-11.55,55.1-17.06,67,.52,26.45,7.94,31.33,66,19.55,110.07,1.95c8.33-3.33,14.45-29.88,14.45-43.45s-5.09-45.94-10.18-59.35S231,271.3,209.35,274.15Z"/><path class="cls-7" d="M253.85,279.45s-18.74,38.84-13.1,59.51c0,0,14.78,35.28,14.78,44l13.69,4.8s13.31-18.68,11.12-47.43-7-50.06-11.12-54S253.85,279.45,253.85,279.45Z"/><path class="cls-7" d="M176.52,283.9s5.38,31.64,6.15,47.52-14,46.17-14,46.17l-20.19,8a43.14,43.14,0,0,1-6.42-22.79c-.09-13.77,4.35-9.53,6.18-20.83,1.65-10.23,12-43.33,14.55-47S175.63,280.6,176.52,283.9Z"/></g><path class="cls-8" d="M262.16,174.31C253.25,126,244,63.48,185.85,66.21c-40.7,1.91-47.06,17.8-47.06,78.85,0,0-1.27,14-5.08,24.16s-.64,46.23,24.8,65.94,28.54,23.43,42.49,17l5-2.27h0s4.84,11.56,4.76,20.46,0,6.07-7.53,18c-2.85,4.5-.61,8.83,7.41,9.9,9.87,1.31,17.13-6.43,32.48-15.78,7.57-4.6-2.54-12.71-5.72-19.07-3.08-6.15-12.14-17.23-9.32-24.47C249.55,226.51,268.41,208.26,262.16,174.31Z"/><circle class="cls-9" cx="151.72" cy="153.75" r="19.71"/><circle class="cls-9" cx="209.38" cy="153.75" r="19.71"/><path class="cls-10" d="M175.25,159.87s-.19,17.73-8.9,19.53c-5.74,1.18-6.12,15.07,2.36,17.61s16.82-2.82,16.82-2.82"/><path class="cls-11" d="M173.85,214.24l3,13.39s17.35,1.21,23.81-4.43,12.18-18.44,12.18-18.44S178.71,212.35,173.85,214.24Z"/><path class="cls-12" d="M177.85,214.24c-2.91.25-10.77,4.29-10.95-1.5-.05-1.28,1-4.34,14.57-6,16.4-2,18.16,3.87,33.19-4.1C214.66,202.65,197.87,212.52,177.85,214.24Z"/><path class="cls-12" d="M178.85,235.3c-2.92-.07-11.65,0-11.16-7.56.3-4.72,5.92-.7,19.43-2.83s15.82-9.06,27.54-22.26C214.66,202.65,210.77,236.05,178.85,235.3Z"/><path class="cls-13" d="M212.82,199.79s4,3,4.36,6.26"/><path class="cls-14" d="M193.17,219a28.74,28.74,0,0,0,14.33-8.36"/><g class="cls-15"><path class="cls-16" d="M228.89,151.42A19.7,19.7,0,0,0,209.33,134c-11.46,0-17,9.77-19.31,16Z"/><path class="cls-16" d="M191.16,161.07a19.24,19.24,0,0,0,18.17,12.39c9.11,0,14.78-6.27,18.22-12.05Z"/></g><circle class="cls-17" cx="218.44" cy="155.78" r="2.03"/><path class="cls-18" d="M185.53,144.7a9.35,9.35,0,0,0,6.79,5.11s-6.47,2.52-9.65-1.08"/><g class="cls-15"><path class="cls-16" d="M171.06,151.42A19.71,19.71,0,0,0,151.49,134c-10.52,0-17,7.65-19.48,17.38Z"/><path class="cls-16" d="M133.55,161.41c2.94,4.85,7.42,12.05,17.94,12.05,10.68,0,15-6.27,18.4-12.05Z"/></g><circle class="cls-17" cx="160.61" cy="155.78" r="2.03"/><path class="cls-18" d="M127.7,146.7a9.35,9.35,0,0,0,6.79,5.11s-6.47,2.52-9.65-1.08"/><path class="cls-10" d="M197.87,120.9s12.57-9.75,25.71,0"/><path class="cls-10" d="M141,123.06s12.57-9.75,25.71,0"/><path class="cls-4" d="M190,104.33s57.46,71.84,55.81,92.61c-1.75,22-26.3,50.58-32.65,49.59,0,0,9,2.18,10.23,11.08s10,32.12,10,32.12,12.67-7.46,11.76-12.11-4.29-24.23-4.4-31.65,18.44-10.66,26.09-35.35c3.89-12.55.9-53.4-1-63.92S190,104.33,190,104.33Z"/><path class="cls-10" d="M206.83,248.92s8-3.76,11.61-5.91"/><path class="cls-3" d="M263.37,243s3.8,11.35-3.58,23.89-17.15,25.83-19.59,28.2c-8,7.74-6.93,29.67-6.93,29.67s36,.85,46.82-15.68,20.37-15,20.37-15"/><path class="cls-3" d="M164.59,41.16s10.24.35,10,39.43c-.13,23.58.78,43.15,24.68,56.5s23.24,4.67,37.16,17.39,27.13,25.83,38.6,42.46c8.47,12.28,15.86,82.51,15.86,82.51s18.23-2.58,9.54-61.45c-1.41-9.52.63-48.32-9.54-84s-57-94-70.45-96"/><path class="cls-3" d="M190,274.14s-5.41-2.75-1.55,12.09S190,331.55,190,331.55s-6.65,2.94-15.19-5.31-21-14.19-24.09-27.6c-1.13-4.89-.56-24-2.49-31.74-1.19-4.7-7.28-18-7.28-18"/><path class="cls-19" d="M199.71,33.81s28,55.27,36.76,64.17,18.88,31.83,18.88,31.83l16,25.84s1.69,20.84,3.69,26.1,23.46,46.95,23.46,46.95L311.35,223v-9.2l-10.26-56.89L274.15,84s-4.22-16.21-9.58-22.09-18.76-18.6-18.76-18.6Z"/><path class="cls-20" d="M163,349.5c3.24.36,5.64.53,5.64.53S166.24,349.69,163,349.5Z"/><path class="cls-21" d="M214,353.23l2-.8c-.2-.06,6.73-5.6,9.37-5.8,5.41-.42,10.6-10.14,14.95-12.16,4-1.87,9.51,2.63-1.55,12-5.83,4.94,6.31-1.37,13.84,1.41,3.47,1.28,4.09,4.55.37,5.33-3,.63-6.58,1.1-9.44,1.41-2.83.16-5,.47-5,.47s2.12-.16,5-.47c5.34-.3,13.07-.1,13.07,3.65,0,2.25-.06,3.09-7.38,3.66s-10.3,3.27-10.3,3.27,16.91-3.12,16.91,2.07c0,3.74-9,4.87-17.47,5.43s-9.81,3.42-16.82,2.71a9.94,9.94,0,0,0-4,.3C212.31,369.71,211.33,361.07,214,353.23Z"/><path class="cls-22" d="M142.07,362.76s13.9-5.62,20.64-3.93l6.1,11.24-13.92,5.05s38.39-13.82,59.1-21.89c-2.66,7.84-1.68,16.48,3.58,22.47a30.25,30.25,0,0,0-4.78,1.67c-4.81,2.08-46.14,23.23-52.61,19.48S140,379.62,142.07,362.76Z"/><path class="cls-23" d="M161.7,353.23s3.45,7.06.47,9.73-20.28,4.34-20.1-.2S156.89,348.51,161.7,353.23Z"/><path class="cls-18" d="M214.66,89.07s8.45,27.29,19,34,24.9,53.44,33.14,62.3"/><path class="cls-18" d="M275.06,270.51s-.23,24.82-11.69,32.33"/><path class="cls-18" d="M266.84,116.56s11.28,33.85,19,42.18,17,27.52,17,38.27"/><path class="cls-18" d="M190,59.39s7.42,42.39,18.55,49.18"/><path class="cls-17" d="M162.64,155.78c.59,1.08-.55,2-2,2"/><path class="cls-20" d="M196.51,347.94l-2.31-.9c.22-.07-7.61-6.34-10.6-6.57-6.13-.47-12-11.47-16.92-13.76-4.57-2.12-10.76,3,1.76,13.57,6.6,5.58-7.15-1.55-15.67,1.59-3.92,1.45-4.62,5.15-.41,6,3.37.71,7.44,1.24,10.68,1.59,3.2.19,5.64.53,5.64.53s-2.4-.17-5.64-.53c-6-.34-14.79-.11-14.79,4.13,0,2.55.07,3.5,8.35,4.14s11.66,3.71,11.66,3.71-19.13-3.54-19.13,2.33c0,4.24,10.13,5.51,19.76,6.14s11.1,3.87,19,3.08a11.05,11.05,0,0,1,4.53.34C198.41,366.59,199.52,356.81,196.51,347.94Z"/><path class="cls-7" d="M277.88,358.72s-15.72-6.36-23.35-4.45L247.62,367l15.75,5.71s-43.43-15.64-66.86-24.77c3,8.87,1.9,18.65-4.06,25.43a33.44,33.44,0,0,1,5.42,1.88c5.44,2.36,52.2,26.29,59.52,22.05S280.25,377.8,277.88,358.72Z"/><polygon class="cls-23" points="256.64 347.94 255.53 356.19 272.52 365.08 278.12 361.3 278.12 349.5 256.64 347.94"/><path class="cls-18" d="M195.23,294.35s.23,17.12,33.66,7.19"/></g></g></svg>