<svg xmlns="http://www.w3.org/2000/svg" xmlns:xlink="http://www.w3.org/1999/xlink" viewBox="0 0 425.2 425.2"><defs><style>.cls-1,.cls-12,.cls-16{fill:none;}.cls-2{isolation:isolate;}.cls-3{fill:#36a9e1;}.cls-4{clip-path:url(#clip-path);}.cls-5{fill:#fff;}.cls-10,.cls-11,.cls-12,.cls-14,.cls-16,.cls-17,.cls-18,.cls-5,.cls-6,.cls-8,.cls-9{stroke:#1d1d1b;}.cls-14,.cls-16,.cls-5,.cls-6,.cls-8,.cls-9{stroke-miterlimit:10;}.cls-10,.cls-11,.cls-12,.cls-14,.cls-16,.cls-18,.cls-5,.cls-6,.cls-8,.cls-9{stroke-width:1.43px;}.cls-6{fill:#9e612d;}.cls-7{fill:#84512d;}.cls-17,.cls-18,.cls-8,.cls-9{fill:#f5d0ae;}.cls-11,.cls-12,.cls-16,.cls-17,.cls-18,.cls-9{stroke-linecap:round;}.cls-10,.cls-11{fill:#e94462;}.cls-10,.cls-11,.cls-12,.cls-17,.cls-18{stroke-linejoin:round;}.cls-13,.cls-19{mix-blend-mode:darken;}.cls-14,.cls-19{fill:#d9a994;}.cls-15{fill:#1d1d1b;}.cls-17{stroke-width:1.28px;}</style><clipPath id="clip-path"><circle class="cls-1" cx="211.91" cy="218.97" r="179.75"/></clipPath></defs><title>дев</title><g class="cls-2"><g id="Layer_1" data-name="Layer 1"><circle class="cls-3" cx="213.29" cy="218.97" r="179.75"/><g class="cls-4"><path class="cls-5" d="M211.35,275.56s-37.77.64-44,17.17-16.66,52.1-22.17,64,16.12,40.39,23.54,45.27,55.53,8.61,99.58-9c8.33-3.32,14.45-29.88,14.45-43.44s-5.09-46-10.18-59.35S233,272.71,211.35,275.56Z"/><path class="cls-5" d="M170.44,312.31s2.82,6.26-6.77,21.36-12,16.44-7.41,29.77c4.32,12.46,20.74,23.62,34.87,20.36,13.56-3.13,34.39,1.49,43,.64S250,382.89,255,370.81"/></g><path class="cls-6" d="M211.38,46.64S165.5,9.76,143,34.56,107.73,74.62,102.64,86.7,84.2,85.77,84.83,105s5.73,26.43,5.09,30.46,0,2-5.11,10.63-1.93,26.25,0,27.63,4.48,2.65,5.11,9-7.85,11.45-7.85,11.45-9.95,5.34-4.23,10.3,22.89-1.78,17.8,14.94S79.75,239.32,83.56,245s14.63-1.33,9.54,11.42-13.35,13.38-12.72,18.47,14,15.89,14,15.89,5.73,3.18,1.91,8.91S89.92,315,94.37,316.89s14.19.47,17.81,3.18c2.19,1.64,3.31,8.28,5.88,9.22,3.34,1.23,12.88.21,13.6-4.13.39-2.28,3-4.45,6.06-7s9.55-5.92,11.46-4.82,8.56-1.37,8.15-5.19,2.74-7.38,7.31-8.65,7.72,2.92,7.72,2.92,3.85-9.54,6.18-11.44,3-6.39,3-6.39l9.91-5.06,14.08-.43,34.4,7s1.38-7.89,6.47-1.5,14.94,8.93,14.94,8.93,10,2.54,10.25,11.45,7.43,5.83,12.52,8.37,12.51-13.92,17-5.19,11.44,10,17.8,7.46,10.81-8.26,13.36-16.53,13.35-3.82,10.81-21-8.27-5.72-7-28,14.76-28.83,7.38-44.31-22-14.42-22.64-32.11-1.91-33-12.72-42.5-14,8.27-21.62-19.07-1.9-29.89-12.08-36.89,3.7-3.18-9-21.62S219,29.47,211.38,46.64Z"/><path class="cls-7" d="M301.46,304.26s6.79-18.31,0-23.4-11,0-7.63-20.35,1-20.54-1.19-31.89,7.75,1.39,0-25.76-2-41.83-12.52-50-5-14.42-10.49-22.05-8-19.67-14.8-29.34-19.44-33.91-19.44-33.91-12.7-3.73-17-6.28S198,57,195.48,57H176.62s-25.44-3.57-31.69,10.51S135.28,94.46,134,105s-5.44,13.08-7.17,17.32-9.36-1.7-6,13.14,9.33,16.69,2.54,29.75S118.3,194,120,199.25s5.17-2.58,6.83,15.77-.82,26,0,37.86,2.9,14.84,4.82,20.56-4.79,10.19-4.82,17.71,7.53,17,7.53,17l8.6-8.1,19.64-9.69s13.37-9,20.58-13.93a34.67,34.67,0,0,1,22.89-5.55c6.64.86,20.77-.63,25,2.55s8.81,12.66,8.81,12.66,11.33,5.78,19.49,4.51,14.72-4.43,16.1.54,5.62,7.76,8.59,8.91S294.68,308.15,301.46,304.26Z"/><path class="cls-8" d="M264.16,175.73C255.25,127.4,246,64.9,187.85,67.62c-40.7,1.91-47.06,17.81-47.06,78.85,0,0-1.27,14-5.08,24.17s-.64,46.22,24.8,65.93,28.54,23.43,42.49,17l5-2.28h0s4.84,11.56,4.76,20.47-10.26,5.65-9.72,19.71a306.53,306.53,0,0,0,3.08,32.22s23.65-30.51,39-39.85c7.57-4.61-2.54-12.72-5.72-19.08-3.08-6.14-12.14-17.22-9.32-24.46C251.55,227.93,270.41,209.68,264.16,175.73Z"/><circle class="cls-5" cx="153.72" cy="155.17" r="19.71"/><circle class="cls-5" cx="211.38" cy="155.17" r="19.71"/><path class="cls-9" d="M177.25,161.29s-3.81,13.59-8.9,19.52-8.9,14.51-.43,17.06,15.27-5.61,15.27-5.61"/><path class="cls-5" d="M176.62,216.42l1.69,12.08s18.23,1.28,25-4.66,12.8-19.37,12.8-19.37S182.76,222.36,176.62,216.42Z"/><path class="cls-10" d="M173.44,218.65c-3.05-.41-11.27-.32-10.51-6.36s6-7.4,20.26-5.72,19.07,4.06,34.86-4.31C218.05,202.26,197.58,221.87,173.44,218.65Z"/><path class="cls-10" d="M180.43,236.56c-3.07-.07-12.24.05-11.73-7.94.32-5,6.22-.74,20.42-3s16.62-9.52,28.93-23.38C218.05,202.26,214,237.35,180.43,236.56Z"/><path class="cls-11" d="M216.12,199.25s4.16,3.18,4.58,6.57"/><path class="cls-12" d="M195.48,219.41a30.2,30.2,0,0,0,15.05-8.78"/><g class="cls-13"><path class="cls-14" d="M230.89,152.84a19.69,19.69,0,0,0-36.57-7.61Z"/><path class="cls-14" d="M195.55,167a19.66,19.66,0,0,0,32.72-1.75Z"/></g><circle class="cls-15" cx="220.44" cy="157.2" r="2.03"/><path class="cls-16" d="M187.53,140.12a9.37,9.37,0,0,0,6.79,5.11s-6.47,2.52-9.65-1.08"/><g class="cls-13"><path class="cls-14" d="M173.06,152.84a19.69,19.69,0,0,0-36.57-7.61Z"/><path class="cls-14" d="M137.72,167a19.66,19.66,0,0,0,32.72-1.75Z"/></g><circle class="cls-15" cx="162.61" cy="157.2" r="2.03"/><path class="cls-16" d="M129.7,140.12a9.37,9.37,0,0,0,6.79,5.11s-6.47,2.52-9.65-1.08"/><path class="cls-8" d="M259.39,181.77s6-11.73,17.48-6.89c5.95,2.5,4.14,32.6-15.26,27.38"/><path class="cls-9" d="M199.87,122.31s12.57-9.75,25.71,0"/><path class="cls-9" d="M143,124.48s12.57-9.75,25.71,0"/><path class="cls-17" d="M158.12,369.22s41.53-15,61.87-23c-.21-.06,6.8-5.66,9.47-5.87,5.48-.42,10.73-10.26,15.13-12.3,4.09-1.9,9.63,2.66-1.57,12.13-5.9,5,6.4-1.39,14,1.42,3.52,1.3,4.14,4.61.38,5.41a134.38,134.38,0,0,1-14.6,1.89s18.27-2.58,18.27,3.22c0,2.28-.07,3.13-7.47,3.7s-10.42,3.32-10.42,3.32,17.11-3.17,17.11,2.08c0,3.8-9.07,4.93-17.68,5.5s-9.93,3.46-17,2.75c-.79-.08-3-.57-8.9,2-4.86,2.1-46.69,23.51-53.23,19.72S143,373.77,145.14,356.7c0,0,14.06-5.68,20.89-4l6.17,11.39"/><path class="cls-16" d="M211.38,327.66s22.25-21.79,24-21.79l5.93,13.57s18.87-22.05,18.13-28.83-5-9.75-5-9.75"/><path class="cls-16" d="M203,323.68l-8.68-21.2-9.65,3.39s1.21-13.56,5.8-18.23,15.61-11.2,15.61-11.2"/><path class="cls-18" d="M265.37,374.12s-46.43-16.72-69.17-25.67c.22-.07-7.61-6.34-10.6-6.57-6.13-.47-12-11.47-16.92-13.75-4.57-2.12-10.76,3,1.76,13.56,6.6,5.59-7.15-1.55-15.67,1.59-3.92,1.45-4.62,5.16-.41,6a147.93,147.93,0,0,0,16.32,2.12s-20.43-2.88-20.43,3.61c0,2.54.07,3.5,8.35,4.13s11.66,3.71,11.66,3.71-19.13-3.54-19.13,2.33c0,4.24,10.13,5.51,19.76,6.15s11.1,3.87,19,3.07c.89-.09,3.33-.63,10,2.23,5.44,2.35,52.2,26.28,59.52,22s22.86-19.5,20.49-38.57c0,0-15.72-6.36-23.35-4.46l-6.91,12.73"/><path class="cls-19" d="M256,135.45s2.2,44.84-8.18,62.91-26.3,50.58-32.65,49.58c0,0,9,2.19,10.23,11.09s10,32.12,10,32.12,13.35-5.64,12.44-10.29-17.27-26.5-17.38-33.91,41.15-20.53,47.7-31.93,7.88-43.21,5.93-53.73S256,135.45,256,135.45Z"/><path class="cls-9" d="M208.83,250.34s8-3.77,11.61-5.91"/><path class="cls-16" d="M278.15,215s9.7,3.31,6.75,18.57-8.66,15.9,4.69,22.89,15.53,6.4,14.89,17.17,8.64,22.9,8.64,22.9"/><path class="cls-16" d="M288.6,182.39s11.8,6.39,11.17,13.22-5,15.47,0,19.41,14.6,6.72,13.33,13.6,6.36,21.72,6.36,21.72"/><path class="cls-16" d="M134,236.57s6.33,4.89-2.35,10.81-12.49,4.65-9.94,16.1,8.26,13.35,2.54,20.35-3.32,16.23-3.32,16.23"/></g></g></svg>