<svg xmlns="http://www.w3.org/2000/svg" xmlns:xlink="http://www.w3.org/1999/xlink" viewBox="0 0 425.2 425.2"><defs><style>.cls-1,.cls-11,.cls-15{fill:none;}.cls-2{isolation:isolate;}.cls-3{fill:#1e1e1e;}.cls-10,.cls-11,.cls-13,.cls-15,.cls-16,.cls-17,.cls-3,.cls-6,.cls-7,.cls-8,.cls-9{stroke:#1d1d1b;}.cls-13,.cls-15,.cls-3,.cls-6,.cls-7,.cls-8,.cls-9{stroke-miterlimit:10;}.cls-13,.cls-15,.cls-16,.cls-3,.cls-6,.cls-7,.cls-8,.cls-9{stroke-width:1.43px;}.cls-13,.cls-4{fill:#d9a994;}.cls-12,.cls-4{mix-blend-mode:darken;}.cls-5{clip-path:url(#clip-path);}.cls-18,.cls-6{fill:#f6f6f6;}.cls-16,.cls-17,.cls-7,.cls-9{fill:#f5d0ae;}.cls-8{fill:#fff;}.cls-11,.cls-15,.cls-16,.cls-17,.cls-9{stroke-linecap:round;}.cls-10{fill:#e6768f;}.cls-10,.cls-11,.cls-16,.cls-17{stroke-linejoin:round;}.cls-10,.cls-11{stroke-width:1.36px;}.cls-14{fill:#1d1d1b;}.cls-17{stroke-width:1.26px;}</style><clipPath id="clip-path"><circle class="cls-1" cx="209.91" cy="217.55" r="179.75"/></clipPath></defs><title>девч1_2_2</title><g class="cls-2"><g id="Layer_1" data-name="Layer 1"><path class="cls-3" d="M173.85,38.65c46.62-36.34,92,6.61,104.27,20.32,22.34,25,22.74,45.3,31.29,82.72,12.28,53.74,24.45,77.13,25,99.17.88,32.89-2.11,39.62-6.67,54.22-5.52,17.7-19.28,27.18-25,33.08L280.45,341.8,270.28,340s-5.64-24.59-10.49-26.28-57.82-9.11-65.42-7-22.15,4.46-33.78,0,20.75,10,6.09,20c-7.84,5.35-18.43-4.45-18.43-4.45h0c-12.53-15.56-22.83-10.94-31.14-60.65-5.48-32.76,17.38-55.56,7.73-118.88C118,97.88,119,92.87,132,69.31c13.67-24.68,29.36-14.23,34.67-22.22C167.86,45.32,171.67,40.35,173.85,38.65Z"/><path class="cls-4" d="M222.6,145.08l-71.85,36.55s2.22,16.31-3.48,27.93,19.27,24.42,17.32,30.33,5.35,13.83,15.06,23c11.24,10.6,21.26,18.63,22.42,21s-15.55,20.32-15.55,20.32L204.08,275l25.3,29.61,36.48-39.37s-6.67-4.48-6.07-16.35,15-44.42,12-56.61-15.34-17.2-15.34-17.2,8.68,1.95,17.49-6.88c4.31-4.34-40.68-23.53-53.43-12.45"/><g class="cls-5"><path class="cls-6" d="M209.35,274.15s-37.77.63-44,17.17-11.55,55.1-17.06,67,.52,26.45,7.94,31.33,66,19.55,110.07,1.95c8.33-3.33,14.45-29.88,14.45-43.45s-5.09-45.94-10.18-59.35S231,271.3,209.35,274.15Z"/><path class="cls-6" d="M253.85,279.45s-18.74,38.84-13.1,59.51c0,0,14.78,35.28,14.78,44l13.69,4.8s13.31-18.68,11.12-47.43-7-50.06-11.12-54S253.85,279.45,253.85,279.45Z"/><path class="cls-6" d="M176.52,283.9s5.38,31.64,6.15,47.52-14,46.17-14,46.17l-20.19,8a43.14,43.14,0,0,1-6.42-22.79c-.09-13.77,4.35-9.53,6.18-20.83,1.65-10.23,12-43.33,14.55-47S175.63,280.6,176.52,283.9Z"/></g><path class="cls-7" d="M262.16,174.31C253.25,126,244,63.48,185.85,66.21c-40.7,1.91-47.06,17.8-47.06,78.85,0,0-1.27,14-5.08,24.16s-.64,46.23,24.8,65.94,28.54,23.43,42.49,17l5-2.27h0s4.84,11.56,4.76,20.46,0,6.07-7.53,18c-2.85,4.5-.61,8.83,7.41,9.9,9.87,1.31,17.13-6.43,32.48-15.78,7.57-4.6-2.54-12.71-5.72-19.07-3.08-6.15-12.14-17.23-9.32-24.47C249.55,226.51,268.41,208.26,262.16,174.31Z"/><circle class="cls-8" cx="151.72" cy="153.75" r="19.71"/><circle class="cls-8" cx="209.38" cy="153.75" r="19.71"/><path class="cls-9" d="M175.25,159.87s.22,15.72-7.28,21.65c-4.6,3.64-5.39,11.58,3.09,14.13s14.47-4,14.47-4"/><path class="cls-10" d="M185.53,217.55c-2.91.25-18.45,1-18.63-4.81-.05-1.28,1.78-6.69,14.57-6,16.5.91,18.16,3.87,33.19-4.1C214.66,202.65,205.54,215.83,185.53,217.55Z"/><path class="cls-10" d="M179.71,232.6c-2.92-.07-12.21-2-11.72-9.58.3-4.73,6-3.55,19.51-5.68s15.44-1.49,27.16-14.69C214.66,202.65,211.63,233.35,179.71,232.6Z"/><path class="cls-11" d="M211.82,198.79s6.62,7.26,5.75,11.83"/><g class="cls-12"><path class="cls-13" d="M228.89,151.42A19.7,19.7,0,0,0,209.33,134c-11.46,0-16.25,7-18.55,13.18Z"/><path class="cls-13" d="M191.16,161.07a19.24,19.24,0,0,0,18.17,12.39c9.11,0,14.78-6.27,18.22-12.05Z"/></g><circle class="cls-14" cx="218.44" cy="155.78" r="2.03"/><path class="cls-15" d="M185.53,141.72a9.35,9.35,0,0,0,6.79,5.11s-6.47,2.52-9.65-1.08"/><g class="cls-12"><path class="cls-13" d="M171.06,151.42A19.71,19.71,0,0,0,151.49,134c-10.52,0-16.11,8.69-17.94,12.82Z"/><path class="cls-13" d="M133.55,161.41c2.94,4.85,7.42,12.05,17.94,12.05,10.68,0,15-6.27,18.4-12.05Z"/></g><circle class="cls-14" cx="160.61" cy="155.78" r="2.03"/><path class="cls-15" d="M127.7,142.1a9.35,9.35,0,0,0,6.79,5.11s-6.47,2.52-9.65-1.08"/><path class="cls-9" d="M197.87,120.9s12.57-9.75,25.71,0"/><path class="cls-9" d="M141,123.06s12.57-9.75,25.71,0"/><path class="cls-4" d="M225.43,73.31s29.19,97,27.54,117.78c-1.76,22-33.44,56.43-39.79,55.44,0,0,9,2.18,10.23,11.08s10,32.12,10,32.12,12.67-7.46,11.76-12.11-4.29-24.23-4.4-31.65,18.44-10.66,26.09-35.35c3.89-12.55.9-53.4-1-63.92S225.43,73.31,225.43,73.31Z"/><path class="cls-9" d="M206.83,248.92s8-3.76,11.61-5.91"/><path class="cls-3" d="M263.37,243s3.8,11.35-3.58,23.89-17.15,25.83-19.59,28.2c-8,7.74,7.43,33.32,7.43,33.32a169.75,169.75,0,0,0,32.46-19.33c15.75-11.95,20.37-15,20.37-15"/><path class="cls-3" d="M190,274.14s-5.41-2.75-1.55,12.09S190,331.55,190,331.55s-6.65,2.94-15.19-5.31-21-14.19-24.09-27.6c-1.13-4.89-.56-24-2.49-31.74-1.19-4.7-7.28-18-7.28-18"/><path class="cls-16" d="M163,349.5c3.24.36,5.64.53,5.64.53S166.24,349.69,163,349.5Z"/><path class="cls-17" d="M214,353.23l2-.8c-.2-.06,6.73-5.6,9.37-5.8,5.41-.42,10.6-10.14,14.95-12.16,4-1.87,9.51,2.63-1.55,12-5.83,4.94,6.31-1.37,13.84,1.41,3.47,1.28,4.09,4.55.37,5.33-3,.63-6.58,1.1-9.44,1.41-2.83.16-5,.47-5,.47s2.12-.16,5-.47c5.34-.3,13.07-.1,13.07,3.65,0,2.25-.06,3.09-7.38,3.66s-10.3,3.27-10.3,3.27,16.91-3.12,16.91,2.07c0,3.74-9,4.87-17.47,5.43s-9.81,3.42-16.82,2.71a9.94,9.94,0,0,0-4,.3C212.31,369.71,211.33,361.07,214,353.23Z"/><path class="cls-6" d="M142.07,362.76s13.9-5.62,20.64-3.93l6.1,11.24-13.92,5.05s38.39-13.82,59.1-21.89c-2.66,7.84-1.68,16.48,3.58,22.47a30.25,30.25,0,0,0-4.78,1.67c-4.81,2.08-46.14,23.23-52.61,19.48S140,379.62,142.07,362.76Z"/><path class="cls-18" d="M161.71,353.23s3.44,7.06.47,9.73-22.16,8-19.28-1C144.28,357.59,156.91,348.51,161.71,353.23Z"/><path class="cls-15" d="M275.06,270.51s-.23,24.82-11.69,32.33"/><path class="cls-15" d="M266.84,116.56s11.28,33.85,19,42.18,17,27.52,17,38.27"/><path class="cls-14" d="M162.64,155.78c.59,1.08-.55,2-2,2"/><path class="cls-16" d="M196.51,347.94l-2.31-.9c.22-.07-7.61-6.34-10.6-6.57-6.13-.47-12-11.47-16.92-13.76-4.57-2.12-10.76,3,1.76,13.57,6.6,5.58-7.15-1.55-15.67,1.59-3.92,1.45-4.62,5.15-.41,6,3.37.71,7.44,1.24,10.68,1.59,3.2.19,5.64.53,5.64.53s-2.4-.17-5.64-.53c-6-.34-14.79-.11-14.79,4.13,0,2.55.07,3.5,8.35,4.14s11.66,3.71,11.66,3.71-19.13-3.54-19.13,2.33c0,4.24,10.13,5.51,19.76,6.14s11.1,3.87,19,3.08a11.05,11.05,0,0,1,4.53.34C198.41,366.59,199.52,356.81,196.51,347.94Z"/><path class="cls-6" d="M277.88,358.72s-15.72-6.36-23.35-4.45L247.62,367l15.75,5.71s-43.43-15.64-66.86-24.77c3,8.87,1.9,18.65-4.06,25.43a33.44,33.44,0,0,1,5.42,1.88c5.44,2.36,52.2,26.29,59.52,22.05S280.25,377.8,277.88,358.72Z"/><polygon class="cls-18" points="256.64 347.94 255.53 356.19 272.52 365.08 278.12 361.3 278.12 349.5 256.64 347.94"/><path class="cls-15" d="M195.23,294.35s.23,17.12,33.66,7.19"/><path class="cls-15" d="M179.71,59.39S190.8,34.76,214.66,38"/><path class="cls-15" d="M192.18,57.05s20.21-17.93,40.63-5.16"/><path class="cls-11" d="M217,219.76a5.64,5.64,0,0,1,0,3.55"/><path class="cls-15" d="M206.83,351.91s1.91,19.09-6.53,23.36"/><path class="cls-15" d="M217.82,356.51s1.91,19.09-6.53,23.36"/><path class="cls-15" d="M228.6,359.44c1,2.23.51,21.27-8.08,25.21"/><path class="cls-15" d="M240.77,364s-.25,22-8.69,26.31"/><path class="cls-15" d="M248.71,367s.69,21.85-7.75,26.12"/><path class="cls-15" d="M257.39,397.3s2.49-22.58-2.9-27.81"/><path class="cls-15" d="M250.52,365.08s24.74-.33,24.54,8.29"/><path class="cls-15" d="M251.72,359.44s20.67-5.49,26.4,1.86"/><path class="cls-15" d="M254.49,349.5s22.63-7,26.22-1.38"/><path class="cls-15" d="M243.33,341.8s29.88-13.92,34.79-7.75"/><path class="cls-15" d="M187.5,375.27s5.11,6.17,4.95,11.66"/><path class="cls-15" d="M168.89,370s11.56,14.36,10.82,20.38"/><path class="cls-15" d="M163.39,373.37s3.59,16.85,2.47,22.17"/><path class="cls-15" d="M182.39,337.14s26.45,6,58-2.67"/><path class="cls-15" d="M189.66,324.78s34.26,8.8,51.11,0"/><path class="cls-15" d="M191.31,311.54s26.38,9.93,49.46,2.74"/></g></g></svg>