<svg xmlns="http://www.w3.org/2000/svg" xmlns:xlink="http://www.w3.org/1999/xlink" viewBox="0 0 425.2 425.2"><defs><style>.cls-1,.cls-11,.cls-15{fill:none;}.cls-2{isolation:isolate;}.cls-3{fill:#1e1e1e;}.cls-10,.cls-11,.cls-13,.cls-15,.cls-16,.cls-17,.cls-3,.cls-6,.cls-7,.cls-8,.cls-9{stroke:#1d1d1b;}.cls-13,.cls-15,.cls-3,.cls-6,.cls-7,.cls-8,.cls-9{stroke-miterlimit:10;}.cls-13,.cls-15,.cls-16,.cls-3,.cls-7,.cls-8,.cls-9{stroke-width:1.43px;}.cls-13,.cls-4{fill:#d9a994;}.cls-12,.cls-4{mix-blend-mode:darken;}.cls-5{clip-path:url(#clip-path);}.cls-18,.cls-6{fill:#36a9e1;}.cls-6{stroke-width:1.43px;}.cls-16,.cls-17,.cls-7,.cls-9{fill:#f5d0ae;}.cls-19,.cls-8{fill:#fff;}.cls-11,.cls-15,.cls-16,.cls-17,.cls-9{stroke-linecap:round;}.cls-10{fill:#e6768f;}.cls-10,.cls-11,.cls-16,.cls-17{stroke-linejoin:round;}.cls-10,.cls-11{stroke-width:1.36px;}.cls-14{fill:#1d1d1b;}.cls-17{stroke-width:1.26px;}</style><clipPath id="clip-path"><circle class="cls-1" cx="209.91" cy="217.55" r="179.75"/></clipPath></defs><title>девч1_2_2</title><g class="cls-2"><g id="Layer_1" data-name="Layer 1"><path class="cls-3" d="M173.85,38.65c46.62-36.34,92,6.61,104.27,20.32,22.34,25,22.74,45.3,31.29,82.72,0,9.84,6,22.07,8.84,31.46,3.27,10.89,6.47,21.84,8.47,33,4,22.37.1,42.77-5.66,64.35-1.31,4.91-2.65,9.88-5.2,14.28-3.79,6.55-9.94,11.32-15.95,15.92a12.16,12.16,0,0,0,2.84-8.37c-6.08,8.6-16.21,13.21-25.85,17.44l-20.64,9.05,8.28-8.33-22.16,3.84c-6.18,1.07-13.25,1.92-18.09-2.07.29,1-1.16,1.44-2.17,1.4l-35.6-1.37c-2.1-.08-4.43-.27-5.84-1.83l4.86,5.34a38.91,38.91,0,0,1-27.09-12.27l.79,12.85c-14.48-7.05-23.55-21.7-30.76-36.1-3.39-6.76-6.57-13.7-8.16-21.1s.2-13.48.24-20.66c0-6-.56-11.53.33-17.59,4-26.94,8.15-50.72,4-78.25C118,97.88,119,92.87,132,69.31c13.67-24.68,29.36-14.23,34.67-22.22C167.86,45.32,171.67,40.35,173.85,38.65Z"/><path class="cls-4" d="M222.6,145.08l-71.85,36.55s2.22,16.31-3.48,27.93,19.27,24.42,17.32,30.33,5.35,13.83,15.06,23c11.24,10.6,21.26,18.63,22.42,21s-15.55,20.32-15.55,20.32L204.08,275l25.3,29.61,36.48-39.37s-6.67-4.48-6.07-16.35,15-44.42,12-56.61-15.34-17.2-15.34-17.2,8.68,1.95,17.49-6.88c4.31-4.34-40.68-23.53-53.43-12.45"/><g class="cls-5"><path class="cls-6" d="M209.35,274.15s-37.77.63-44,17.17-11.55,55.1-17.06,67,.52,26.45,7.94,31.33,66,19.55,110.07,1.95c8.33-3.33,14.45-29.88,14.45-43.45s-5.09-45.94-10.18-59.35S231,271.3,209.35,274.15Z"/><path class="cls-6" d="M253.85,279.45s-18.74,38.84-13.1,59.51c0,0,14.78,35.28,14.78,44l13.69,4.8s13.31-18.68,11.12-47.43-7-50.06-11.12-54S253.85,279.45,253.85,279.45Z"/><path class="cls-6" d="M176.52,283.9s5.38,31.64,6.15,47.52-14,46.17-14,46.17l-20.19,8a43.14,43.14,0,0,1-6.42-22.79c-.09-13.77,4.35-9.53,6.18-20.83,1.65-10.23,12-43.33,14.55-47S175.63,280.6,176.52,283.9Z"/></g><path class="cls-7" d="M262.16,174.31c3.11-49-18.14-110.83-76.31-108.1-40.7,1.91-47.06,17.8-47.06,78.85,0,0-1.27,14-5.08,24.16s2.56,43.68,28,63.39,25.35,26,39.3,19.53l5-2.27h0s4.84,11.56,4.76,20.46,0,6.07-7.53,18c-2.85,4.5-.61,8.83,7.41,9.9,9.87,1.31,17.13-6.43,32.48-15.78,7.57-4.6-2.54-12.71-5.72-19.07-3.08-6.15-12.14-17.23-9.32-24.47C249.55,226.51,259.88,210.18,262.16,174.31Z"/><circle class="cls-8" cx="151.72" cy="153.75" r="19.71"/><circle class="cls-8" cx="209.38" cy="153.75" r="19.71"/><path class="cls-9" d="M175.25,159.87s.22,15.72-7.28,21.65c-4.6,3.64-5.39,11.58,3.09,14.13s14.47-4,14.47-4"/><path class="cls-10" d="M185.53,217.55c-2.91.25-18.45,1-18.63-4.81-.05-1.28,1.78-6.69,14.57-6,16.5.91,18.16,3.87,33.19-4.1C214.66,202.65,205.54,215.83,185.53,217.55Z"/><path class="cls-10" d="M179.71,232.6c-2.92-.07-12.21-2-11.72-9.58.3-4.73,6-3.55,19.51-5.68s15.44-1.49,27.16-14.69C214.66,202.65,211.63,233.35,179.71,232.6Z"/><path class="cls-11" d="M211.82,198.79s6.62,7.26,5.75,11.83"/><g class="cls-12"><path class="cls-13" d="M228.89,151.42A19.7,19.7,0,0,0,209.33,134c-11.46,0-16.25,7-18.55,13.18Z"/><path class="cls-13" d="M191.16,161.07a19.24,19.24,0,0,0,18.17,12.39c9.11,0,14.78-6.27,18.22-12.05Z"/></g><circle class="cls-14" cx="218.44" cy="155.78" r="2.03"/><path class="cls-15" d="M185.53,141.72a9.35,9.35,0,0,0,6.79,5.11s-6.47,2.52-9.65-1.08"/><g class="cls-12"><path class="cls-13" d="M171.06,151.42A19.71,19.71,0,0,0,151.49,134c-10.52,0-16.11,8.69-17.94,12.82Z"/><path class="cls-13" d="M133.55,161.41c2.94,4.85,7.42,12.05,17.94,12.05,10.68,0,15-6.27,18.4-12.05Z"/></g><circle class="cls-14" cx="160.61" cy="155.78" r="2.03"/><path class="cls-15" d="M127.7,142.1a9.35,9.35,0,0,0,6.79,5.11s-6.47,2.52-9.65-1.08"/><path class="cls-9" d="M197.87,120.9s12.57-9.75,25.71,0"/><path class="cls-9" d="M141,123.06s12.57-9.75,25.71,0"/><path class="cls-4" d="M225.43,73.31s29.19,97,27.54,117.78c-1.76,22-33.44,56.43-39.79,55.44,0,0,9,2.18,10.23,11.08s10,32.12,10,32.12,12.67-7.46,11.76-12.11-4.29-24.23-4.4-31.65,18.44-10.66,26.09-35.35c3.89-12.55.9-53.4-1-63.92S225.43,73.31,225.43,73.31Z"/><path class="cls-9" d="M206.83,248.92s8-3.76,11.61-5.91"/><path class="cls-16" d="M163,349.5c3.24.36,5.64.53,5.64.53S166.24,349.69,163,349.5Z"/><path class="cls-17" d="M214,353.23l2-.8c-.2-.06,6.73-5.6,9.37-5.8,5.41-.42,10.6-10.14,14.95-12.16,4-1.87,9.51,2.63-1.55,12-5.83,4.94,6.31-1.37,13.84,1.41,3.47,1.28,4.09,4.55.37,5.33-3,.63-6.58,1.1-9.44,1.41-2.83.16-5,.47-5,.47s2.12-.16,5-.47c5.34-.3,13.07-.1,13.07,3.65,0,2.25-.06,3.09-7.38,3.66s-10.3,3.27-10.3,3.27,16.91-3.12,16.91,2.07c0,3.74-9,4.87-17.47,5.43s-9.81,3.42-16.82,2.71a9.94,9.94,0,0,0-4,.3C212.31,369.71,211.33,361.07,214,353.23Z"/><path class="cls-6" d="M142.07,362.76s13.9-5.62,20.64-3.93l6.1,11.24-13.92,5.05s38.39-13.82,59.1-21.89c-2.66,7.84-1.68,16.48,3.58,22.47a30.25,30.25,0,0,0-4.78,1.67c-4.81,2.08-46.14,23.23-52.61,19.48S140,379.62,142.07,362.76Z"/><path class="cls-18" d="M161.71,353.23s3.44,7.06.47,9.73-22.16,8-19.28-1C144.28,357.59,156.91,348.51,161.71,353.23Z"/><path class="cls-15" d="M266.84,116.56s11.28,33.85,19,42.18,17,27.52,17,38.27"/><path class="cls-14" d="M162.64,155.78c.59,1.08-.55,2-2,2"/><path class="cls-16" d="M196.51,347.94l-2.31-.9c.22-.07-7.61-6.34-10.6-6.57-6.13-.47-12-11.47-16.92-13.76-4.57-2.12-10.76,3,1.76,13.57,6.6,5.58-7.15-1.55-15.67,1.59-3.92,1.45-4.62,5.15-.41,6,3.37.71,7.44,1.24,10.68,1.59,3.2.19,5.64.53,5.64.53s-2.4-.17-5.64-.53c-6-.34-14.79-.11-14.79,4.13,0,2.55.07,3.5,8.35,4.14s11.66,3.71,11.66,3.71-19.13-3.54-19.13,2.33c0,4.24,10.13,5.51,19.76,6.14s11.1,3.87,19,3.08a11.05,11.05,0,0,1,4.53.34C198.41,366.59,199.52,356.81,196.51,347.94Z"/><path class="cls-6" d="M277.88,358.72s-15.72-6.36-23.35-4.45L247.62,367l15.75,5.71s-43.43-15.64-66.86-24.77c3,8.87,1.9,18.65-4.06,25.43a33.44,33.44,0,0,1,5.42,1.88c5.44,2.36,52.2,26.29,59.52,22.05S280.25,377.8,277.88,358.72Z"/><polygon class="cls-18" points="256.64 347.94 255.53 356.19 272.52 365.08 278.12 361.3 278.12 349.5 256.64 347.94"/><path class="cls-15" d="M179.71,59.39S190.8,34.76,214.66,38"/><path class="cls-15" d="M192.18,57.05s20.21-17.93,40.63-5.16"/><path class="cls-3" d="M215.41,68s4.89-4.89-18.22,13.78-44.3,22.22-50.77,32.89-22.5,80-16.76,99.55c0,0-22.75-32.68-27.14-60.45-2.73-17.24,9.78-87.63,45.73-108.44,30.75-17.8,40.54-9.77,40.54-9.77"/><path class="cls-6" d="M202.52,310.2s-8.64-23.77-15-27-13.66-5-10.76-12.65,9.2-7.86,15.71-7.86,19.65,3.87,18.27,7.68,6.85,12.32,6.85,12.32,6.71-9.17,9.16-12.14S237.17,260.87,241,260s10.82-10,15.68,0,10,12.42,2.22,19.06-18.87,9.53-26.05,14.57a123.94,123.94,0,0,0-13.34,11"/><path class="cls-19" d="M171.28,324.22a5.45,5.45,0,0,1-4.1-4.1c-1.1-4.91,2.59-8.6,7.51-7.51a5.42,5.42,0,0,1,4.11,4.1C179.88,321.63,176.19,325.33,171.28,324.22Zm1.72-10a4.15,4.15,0,1,0,3.92,4.14A3.87,3.87,0,0,0,173,314.27Z"/><path class="cls-19" d="M190.94,324.31v-6.65c0-2.19-1.08-3.35-3.13-3.35-2.31,0-3.69,1.43-3.69,3.82v6.18h-2V312.5h2V314a5.21,5.21,0,0,1,4-1.62c3.07,0,4.9,1.9,4.9,5.08v6.81Z"/><path class="cls-19" d="M198.51,328.47h-2v-16h2v1.69a5.22,5.22,0,0,1,4.1-1.77,6,6,0,0,1,0,12,5.27,5.27,0,0,1-4-1.72Zm3.93-14.2a4.14,4.14,0,1,0,3.95,4.14A3.91,3.91,0,0,0,202.44,314.27Z"/><rect class="cls-19" x="231.51" y="312.51" width="2.04" height="11.81"/><path class="cls-19" d="M246.28,324.32v-6.65c0-2.19-1.08-3.35-3.13-3.35-2.31,0-3.69,1.43-3.69,3.82v6.18h-2V312.51h2v1.54a5.21,5.21,0,0,1,4-1.62c3.07,0,4.9,1.9,4.9,5.09v6.8Z"/><path class="cls-19" d="M251.6,314.27v6.52a3.22,3.22,0,0,0,3.55,3.53,3.85,3.85,0,0,0,2.54-.85l.15-.14-.77-1.57-.26.23a2.26,2.26,0,0,1-1.49.51c-1.12,0-1.68-.6-1.68-1.79v-6.44h3.41v-1.81h-3.41V310h-2v4.26Z"/><path class="cls-19" d="M219.69,310.33a8.14,8.14,0,1,0,8.12,8.12A7.87,7.87,0,0,0,219.69,310.33Zm4.78,10.73a1.09,1.09,0,0,1-1.08,1.09h-7.47a1,1,0,0,1-1-1v-5.23a1.08,1.08,0,0,1,1.08-1.09h7.43a1.09,1.09,0,0,1,1.08,1.09Z"/></g></g></svg>