<svg xmlns="http://www.w3.org/2000/svg" xmlns:xlink="http://www.w3.org/1999/xlink" viewBox="0 0 425.2 425.2"><defs><style>.cls-1,.cls-13,.cls-17,.cls-6{fill:none;}.cls-2{isolation:isolate;}.cls-23,.cls-3{fill:#9e612d;}.cls-10,.cls-11,.cls-12,.cls-13,.cls-15,.cls-17,.cls-19,.cls-20,.cls-21,.cls-22,.cls-3,.cls-5,.cls-6,.cls-8,.cls-9{stroke:#1d1d1b;}.cls-10,.cls-15,.cls-17,.cls-3,.cls-6,.cls-8,.cls-9{stroke-miterlimit:10;}.cls-10,.cls-12,.cls-13,.cls-15,.cls-17,.cls-21,.cls-22,.cls-3,.cls-5,.cls-6,.cls-8,.cls-9{stroke-width:1.43px;}.cls-4{clip-path:url(#clip-path);}.cls-5{fill:#3daa35;}.cls-10,.cls-12,.cls-13,.cls-17,.cls-19,.cls-20,.cls-21,.cls-22,.cls-5{stroke-linecap:round;}.cls-11,.cls-12,.cls-13,.cls-19,.cls-20,.cls-21,.cls-22,.cls-5{stroke-linejoin:round;}.cls-7{fill:#84512d;}.cls-10,.cls-19,.cls-21,.cls-8{fill:#f5d0ae;}.cls-9{fill:#fff;}.cls-11{fill:#e6768f;stroke-width:1.36px;}.cls-12{fill:#e94462;}.cls-14,.cls-18{mix-blend-mode:darken;}.cls-15,.cls-18{fill:#d9a994;}.cls-16{fill:#1d1d1b;}.cls-19,.cls-20{stroke-width:1.26px;}.cls-20,.cls-22{fill:#3c3c3b;}</style><clipPath id="clip-path"><circle class="cls-1" cx="209.91" cy="223.25" r="179.75"/></clipPath></defs><title>девч1_2_2</title><g class="cls-2"><g id="Layer_1" data-name="Layer 1"><path class="cls-3" d="M120.85,86.84c-13.15,31-11.11,68.8-10.93,101.75a12.76,12.76,0,0,1-.55,4.65c-.77,2-2.47,3.46-4,4.91-6.86,6.27-12.66,13.91-15.73,22.69s-3.23,18.76.66,27.2c4.65,10.1,14.28,26,23.49,32.39a45.5,45.5,0,0,1,2.44-19.26c-.67,1.88,19.42,16.56,22.25,17.59a31.75,31.75,0,0,1,.31-12.4,66.78,66.78,0,0,0,24.93,14.87l-1.75-6,19.81,5.54-1.54-4.71a114.37,114.37,0,0,0,40.62,6.47c6.92-.16,14-1,20.12-4.28l5.6,8.18a45.43,45.43,0,0,1,16.12-12l3.12,7.21,20-13.21.24,7.66c11.42-20,9.41-2.17,14.71,5.15C317,274,329,242.5,325.6,226.07c-1.85-8.95-8.24-16.13-13.64-23.5-18.8-25.69-7.36-55.94-14.11-86-2-8.91-7.62-25.07-11.33-30.91-2.91-4.58-12.67-45-71.23-45-7.35,0-16.48,3.69-23.8,4.43-24.93,2.52-58.32,14.66-69.55,39.27C121.57,85.17,121.2,86,120.85,86.84Z"/><g class="cls-4"><path class="cls-5" d="M209.35,279.85s-37.77.63-44,17.17-16.66,52.1-22.17,64,16.12,40.38,23.54,45.27,55.53,8.61,99.58-9c8.33-3.33,14.45-29.88,14.45-43.45s-5.09-45.94-10.18-59.35S231,277,209.35,279.85Z"/><path class="cls-6" d="M168.44,316.6s2.82,6.26-6.77,21.36-12,16.44-7.41,29.76c4.32,12.46,20.74,23.63,34.87,20.37,13.56-3.13,34.39,1.48,43,.64S248,387.18,253,375.1"/><path d="M248.57,352.51a.4.4,0,0,0-.54-.14.75.75,0,0,1-.91-.54,1.75,1.75,0,0,0-.76-1c-.42-.31-.75-.73-1.18-1-1.26-.86-2.56-1.66-3.83-2.5-.35-.23-.67-.49-1-.75a.52.52,0,0,1-.12-.7,2.1,2.1,0,0,0,0-2.06,1.59,1.59,0,0,1-.07-.5l1.82.27c0,.34-.07.68-.13,1a2.19,2.19,0,0,0,1,2.38c1.05.7,2.13,1.36,3.16,2.1a11.87,11.87,0,0,1,1.82,1.57,2.84,2.84,0,0,0,1.84,1.08.77.77,0,0,1,.78.77Z"/><path d="M249.18,326.55a4.78,4.78,0,0,1-1.3.33,1.32,1.32,0,0,0-1.27,1.66,5,5,0,0,0,1,2.07,4.52,4.52,0,0,1,1,3.42,5.69,5.69,0,0,1-1.16,2.66c-.27.36-.55.71-.8,1.07a2,2,0,0,0-.34,1.43,2.73,2.73,0,0,1-.49,1.93,4.09,4.09,0,0,1-4.05,1.75,28.1,28.1,0,0,0-4.29-.28,18.88,18.88,0,0,0-3.45.71c-.85.21-1.23.92-1.65,1.61a10.83,10.83,0,0,0-.89,3.39c-.12.52-.12,1.06-.24,1.58a1.23,1.23,0,0,1-.42.65,12.65,12.65,0,0,1-1.44.93c-.42.24-.86.41-1.29.61l-.14-.15.65-1.25s.06-.08.06-.11c-.14-.6.29-.75.71-.88.59-.17.73-.65.88-1.13a13.25,13.25,0,0,0,.64-4.72c-.06-.9-.17-.79.8-1.12.55-.19,1.07-.45,1.6-.67l-.08-.25c-.79.19-1.59.35-2.37.58a2,2,0,0,1-1.37.1c.72-.7,1.44-1.37,1-2.45l-3,1.27-.43-1.15c-.7.65-.47,1.32-.3,2a3.07,3.07,0,0,1-1.39-2,2.07,2.07,0,0,1,.3-1.64,5.32,5.32,0,0,1,4.62-2.73,7.67,7.67,0,0,0,3.3-1.12,8.34,8.34,0,0,1,5.45-1.21c.72.1,1.47,0,2.2.09a8.1,8.1,0,0,1,3.55,1.59,1.16,1.16,0,0,0,1.87-.51,2.4,2.4,0,0,0,.25-.77,3.9,3.9,0,0,0-.47-2.46c-.44-.78-.93-1.53-1.3-2.34a3.18,3.18,0,0,1,0-2.76,2.93,2.93,0,0,1,.83-1,.76.76,0,0,1,.73,0,4.62,4.62,0,0,0,2,.87c.14,0,.27.09.4.13Z"/></g><path class="cls-7" d="M297.19,277.13c-1.91-26.43-3.93-52.42-8.72-78.81-5-24.14-1.41-41.21-19.28-61-13.16-14.6-9.92-29.33-18.6-46.51S230.71,74,216.41,65.55C212.13,63,196,61.31,193.48,61.31c-21.84,0-31.83-3.19-49.2,12.78-10.22,9.4-2.87,16.44-5.38,28.23-1.51,7.1-5.27,13.49-9,19.73-8.65,14.57-8.33,28.83-7,45.8,1.22,15.12,1.13,30.29,1.07,45.45-.06,12.42-3.34,26.84,4.16,37.51,3.76,5.35,8.45,10.64,9,17.16,7.47-7.5,20-2.62,30.59-3.09A28.34,28.34,0,0,0,182,260.3l1.22,11.13,27.63-2.28a19.58,19.58,0,0,0,24.18-4c5.95,4.93,16.16,3.2,20.14-3.43l7.63,7.77,4.42-9.36A170.36,170.36,0,0,0,297.19,277.13Z"/><path class="cls-8" d="M262.16,180c-8.91-48.33-18.46-114.85-76.31-108.1-27.27,3.18-47.06,17.81-47.06,78.85,0,0-1.27,14-5.08,24.17s-.64,46.22,24.8,65.93,28.54,23.43,42.49,17l5-2.27h0s4.84,11.56,4.76,20.46-4.36,6.7-9.72,19.72c-7.52,18.28-3.9,20.37,2.63,22.45,12.64,4,32.45-15.64,39.45-30.09,3.86-8-2.54-12.71-5.72-19.07-3.08-6.15-12.14-17.22-9.32-24.47C249.55,232.22,268.41,214,262.16,180Z"/><circle class="cls-9" cx="151.72" cy="159.45" r="19.71"/><circle class="cls-9" cx="209.38" cy="159.45" r="19.71"/><path class="cls-10" d="M175.25,165.57s-1.33,17.59-8.9,19.53c-7.77,2-10.54,12.38-.43,17.05,8,3.71,15.27-5.6,15.27-5.6"/><path class="cls-9" d="M174.62,220.71l1.69,12.08s18.23,1.27,25-4.66,12.8-19.37,12.8-19.37S180.76,226.64,174.62,220.71Z"/><path class="cls-11" d="M171.44,222.94c-3.05-.41-7.08-2.29-6.92-6.05.11-2.58,2.39-7.72,16.67-6s19.07,4.07,34.86-4.31C216.05,206.54,195.58,226.16,171.44,222.94Z"/><path class="cls-11" d="M178.43,240.85c-3.07-.08-12.24.05-11.73-7.94.32-5,6.22-.74,20.42-3s16.62-9.52,28.93-23.39C216.05,206.54,212,241.64,178.43,240.85Z"/><path class="cls-12" d="M214.12,203.54s4.16,3.18,4.58,6.57"/><path class="cls-13" d="M193.48,223.7a30.2,30.2,0,0,0,15.05-8.78"/><g class="cls-14"><path class="cls-15" d="M228.89,157.13a19.69,19.69,0,0,0-36.57-7.62Z"/><path class="cls-15" d="M193.55,171.24a19.68,19.68,0,0,0,32.72-1.75Z"/></g><circle class="cls-16" cx="218.44" cy="161.48" r="2.03"/><path class="cls-17" d="M185.53,144.4a9.35,9.35,0,0,0,6.79,5.11s-6.47,2.52-9.65-1.08"/><g class="cls-14"><path class="cls-15" d="M171.06,157.13a19.69,19.69,0,0,0-36.57-7.62Z"/><path class="cls-15" d="M135.72,171.24a19.68,19.68,0,0,0,32.72-1.75Z"/></g><circle class="cls-16" cx="160.61" cy="161.48" r="2.03"/><path class="cls-17" d="M127.7,144.4a9.35,9.35,0,0,0,6.79,5.11s-6.47,2.52-9.65-1.08"/><path class="cls-8" d="M257.39,186.05s6-11.72,17.48-6.89c5.95,2.51,4.14,32.61-15.26,27.38"/><path class="cls-10" d="M197.87,126.6s12.57-9.75,25.71,0"/><path class="cls-10" d="M141,128.76s12.57-9.75,25.71,0"/><path class="cls-18" d="M254,139.74s-4.38,42.42-8.18,62.9c-3.91,21.06-26.3,50.58-32.65,49.59,0,0,9,2.18,10.23,11.08s21,25.58,21,25.58,2.37.91,1.46-3.74-17.27-26.5-17.38-33.92,41.15-20.53,47.7-31.92,7.88-43.21,5.93-53.74S254,139.74,254,139.74Z"/><path class="cls-10" d="M206.83,254.62s8-3.76,11.61-5.91"/><path class="cls-19" d="M212.53,365.9l2-.8c-.2-.06,6.73-5.6,9.37-5.8,5.41-.42,10.6-10.15,14.95-12.16,4-1.88,9.51,2.62-1.55,12-5.83,4.93,6.31-1.37,13.84,1.4,3.47,1.28,4.09,4.56.37,5.34-3,.63-6.58,1.1-9.44,1.41s-5,.47-5,.47,2.12-.16,5-.47c5.34-.31,13.07-.1,13.07,3.65,0,2.25-.06,3.09-7.38,3.65s-10.3,3.28-10.3,3.28,16.91-3.13,16.91,2.06c0,3.75-9,4.87-17.47,5.43s-9.81,3.42-16.82,2.72a9.94,9.94,0,0,0-4,.3C210.85,382.38,209.87,373.74,212.53,365.9Z"/><path class="cls-20" d="M141,367.54s13.54,2.27,20.28,3.95l6.1,11.25-13.92,5.05s38.39-13.83,59.1-21.89c-2.66,7.84-1.68,16.48,3.58,22.47a29.25,29.25,0,0,0-4.78,1.67c-4.81,2.08-46.14,23.23-52.61,19.48S138.88,384.41,141,367.54Z"/><path class="cls-21" d="M195.05,360.61l-2.31-.91c.22-.07-7.61-6.33-10.6-6.56-6.13-.47-12-11.48-16.92-13.76-4.57-2.12-10.76,3,1.76,13.57,6.6,5.58-7.15-1.56-15.67,1.59-3.92,1.45-4.62,5.15-.41,6,3.37.71,7.44,1.24,10.68,1.59,3.2.18,5.64.53,5.64.53s-2.4-.18-5.64-.53c-6.05-.35-14.8-.12-14.8,4.13,0,2.54.08,3.5,8.36,4.13s11.66,3.71,11.66,3.71-19.13-3.54-19.13,2.33c0,4.24,10.13,5.52,19.76,6.15s11.1,3.87,19,3.08A11.15,11.15,0,0,1,191,386C197,379.26,198.06,369.48,195.05,360.61Z"/><path class="cls-22" d="M276.42,371.39s-15.72-6.36-23.35-4.45l-6.91,12.72,15.75,5.72s-43.43-15.65-66.86-24.77c3,8.87,1.9,18.65-4.06,25.42a33.65,33.65,0,0,1,5.42,1.89c5.44,2.35,52.2,26.28,59.52,22.05S278.79,390.46,276.42,371.39Z"/><path class="cls-17" d="M252.3,99.38s28.4,30.75,23.51,54.43"/><path class="cls-17" d="M129.93,122.05s-14.29,40.59-5.85,80.59"/><path class="cls-3" d="M201,62s7.35,20.63,18.44,44,16.79,35,28.6,47.83a325.42,325.42,0,0,0,26.83,25.35s-2.71-21.43-10.53-32.64-26-67.52-23.59-74.7"/><path class="cls-5" d="M220.5,318.67c5.56-5.08,14-5.05,20.91-8a25.33,25.33,0,0,0,14.32-15.91c1.73-5.87,1.2-12.14.65-18.23a13.2,13.2,0,0,0-1.46-5.87c-1.56-2.52-4.56-3.68-7.35-4.65-3.54-1.23-8.13-2.16-10.48.76a13.61,13.61,0,0,0-1.65,3.51c-2.19,5.32-7.15,8.66-11.15,12.52-4.56,4.4-6.52,9.14-9.15,14.91.53-1.18-2.55-8.12-3.17-9.58-2.72-6.48-5.75-10.52-11.31-14.38a5.82,5.82,0,0,0-3.38-1.4,5.68,5.68,0,0,0-2.5.95c-3.35,1.93-6.81,4.17-8.44,7.68a18.85,18.85,0,0,0-1.27,7.58,35.64,35.64,0,0,0,.83,9.73c1.86,7.07,7.32,12.53,12.56,17.63,1.38,1.35,0,2.91.83,4.64"/><path class="cls-17" d="M299.85,214.32a38.78,38.78,0,0,1,9.66,35.15"/><path class="cls-17" d="M105.44,246.41c.38.48-.53,1.1-1,.75a2,2,0,0,1-.57-1.67l-.14-10.83c0-2.95,1.36-7.1,4.19-6.29"/><path class="cls-23" d="M214.12,51.54s3.14,47.55,14.77,64.44,24,34.39,24,34.39-18-32.17-18.26-42.39S225.5,56.42,214.12,51.54Z"/><path class="cls-23" d="M174.62,57.76s-57.66,14.06-56.18,66c.59,20.5-3,41.81-3,41.81s10.83-34.34,12.51-44.43C135,78.42,163.46,67.92,174.62,57.76Z"/></g></g></svg>