<svg xmlns="http://www.w3.org/2000/svg" xmlns:xlink="http://www.w3.org/1999/xlink" viewBox="0 0 425.2 425.2"><defs><style>.cls-1,.cls-11,.cls-15{fill:none;}.cls-2{isolation:isolate;}.cls-3{fill:#f2ea79;}.cls-10,.cls-11,.cls-13,.cls-15,.cls-16,.cls-17,.cls-3,.cls-6,.cls-7,.cls-8,.cls-9{stroke:#1d1d1b;}.cls-13,.cls-15,.cls-3,.cls-6,.cls-7,.cls-8,.cls-9{stroke-miterlimit:10;}.cls-13,.cls-15,.cls-16,.cls-3,.cls-6,.cls-7,.cls-8,.cls-9{stroke-width:1.43px;}.cls-13,.cls-4{fill:#d9a994;}.cls-12,.cls-4{mix-blend-mode:darken;}.cls-5{clip-path:url(#clip-path);}.cls-18,.cls-6{fill:#ca9e67;}.cls-16,.cls-17,.cls-7,.cls-9{fill:#f5d0ae;}.cls-8{fill:#fff;}.cls-11,.cls-15,.cls-16,.cls-17,.cls-9{stroke-linecap:round;}.cls-10{fill:#e6768f;}.cls-10,.cls-11,.cls-16,.cls-17{stroke-linejoin:round;}.cls-10,.cls-11{stroke-width:1.36px;}.cls-14{fill:#1d1d1b;}.cls-17{stroke-width:1.26px;}</style><clipPath id="clip-path"><circle class="cls-1" cx="215.89" cy="214.91" r="179.75"/></clipPath></defs><title>девч1_2_2</title><g class="cls-2"><g id="Layer_1" data-name="Layer 1"><path class="cls-3" d="M281.72,63.36c.8.88,1.59,1.76,2.38,2.65,15.16,17,26.36,38.19,28.82,61.22,2.49,23.32-26.15,30.82-14.37,57.33,4.06,9.15,10.51,17,15.24,25.83,15.26,28.48,10.91,63.1,5.12,94.89-3.18,17.49.66,46.49-13.23,60-3.13,3.05-7.07,5.09-10.91,7.19-8.81,4.83-17.67,15.82-26.38,19.26-8.24,3.25-19.09-2.07-27.2-3.45a328.74,328.74,0,0,1-61.33-16.65c15.36-18.46,19.32-43.8,19.95-67.81s-1.42-48.43,4.28-71.76c1.27-5.17,2.83-10.95.13-15.53a17.25,17.25,0,0,0-4.82-4.81c-18.46-13.72-42.24-21.08-56.07-39.45C121.75,143.57,124,97.36,138,66.67c4.7-10.29,12.81-17.81,23.95-20.34A79.14,79.14,0,0,1,174.61,45c6.78-.43,11.28-1.66,18.22.55a2.09,2.09,0,0,0,1.51.1,2.05,2.05,0,0,0,.63-.55c13.83-16.51,39.1-9.32,56.31-3.45a41.93,41.93,0,0,1,10.06,4.44A105.69,105.69,0,0,1,281.72,63.36Z"/><path class="cls-4" d="M164.33,215.82c-1.88,2.53-.25,6.34,2.34,8.12s5.84,2.25,8.82,3.27a49.11,49.11,0,0,1,8.39,4.13l15.89,9.16a6.18,6.18,0,0,1,3.79,5.66c3.48,19.65,9.12,38,14.51,56.88,2,7.12,3.17,15.64,9.59,19.32,3.61,2.06,8,2,12.16,1.49,9.42-1.1,18.85-4.05,26.24-10s12.47-15.19,11.9-24.65c-.41-6.67-3.47-12.85-5.58-19.19-4.49-13.44-4.11-27.7-1.64-41.47,2.37-13.2,9.81-25.58,10.32-38.91.63-16.77-5.38-35.74-11.75-51"/><g class="cls-5"><path class="cls-6" d="M215.33,271.51s-37.77.63-44,17.17-11.55,55.1-17.06,67,.52,26.45,7.94,31.33,66,19.55,110.07,1.95c8.33-3.33,14.45-29.88,14.45-43.45s-5.09-45.94-10.18-59.35S237,268.66,215.33,271.51Z"/></g><path class="cls-7" d="M268.14,171.67c-7.17-38.9-14.55-87-47.49-102.84-8-3.84-16.6-2.64-28-2.11-10,.47-18.76-1.37-25,1.23-19.28,8-22.91,28.39-22.91,74.47,0,0-1.27,14-5.08,24.17s-.64,46.22,24.8,65.93S193,256,207,249.5l4.95-2.27h0s4.84,11.56,4.77,20.46,0,6.07-7.54,18c-2.85,4.5-.61,8.84,7.41,9.9,9.87,1.31,17.13-6.43,32.48-15.77,7.57-4.61-2.54-12.72-5.72-19.08-3.07-6.15-12.14-17.22-9.32-24.47C255.53,223.88,274.39,205.63,268.14,171.67Z"/><circle class="cls-8" cx="157.7" cy="151.11" r="19.71"/><circle class="cls-8" cx="215.36" cy="151.11" r="19.71"/><path class="cls-9" d="M181.23,157.23s.22,15.72-7.28,21.66c-4.59,3.63-5.39,11.58,3.09,14.12s14.47-4,14.47-4"/><path class="cls-10" d="M191.51,214.91c-2.91.26-18.45,1-18.63-4.81,0-1.28,1.78-6.69,14.57-6,16.5.91,18.16,3.87,33.19-4.1C220.64,200,211.53,213.19,191.51,214.91Z"/><path class="cls-10" d="M185.7,230c-2.93-.07-12.22-2-11.73-9.58.3-4.73,6-3.55,19.51-5.68s15.44-1.49,27.16-14.69C220.64,200,217.61,230.71,185.7,230Z"/><path class="cls-11" d="M217.8,196.15s6.62,7.26,5.75,11.83"/><g class="cls-12"><path class="cls-13" d="M234.87,148.79a19.7,19.7,0,0,0-19.56-17.39c-11.46,0-16.25,7-18.55,13.18Z"/><path class="cls-13" d="M197.14,158.44a19.24,19.24,0,0,0,18.17,12.39c9.11,0,14.78-6.27,18.22-12.06Z"/></g><circle class="cls-14" cx="224.42" cy="153.14" r="2.03"/><path class="cls-15" d="M191.51,139.08a9.35,9.35,0,0,0,6.79,5.11s-6.47,2.52-9.65-1.08"/><g class="cls-12"><path class="cls-13" d="M177,148.79a19.71,19.71,0,0,0-19.56-17.39c-10.53,0-16.12,8.69-17.95,12.82Z"/><path class="cls-13" d="M139.53,158.77c2.94,4.86,7.42,12.06,17.95,12.06s15-6.27,18.39-12.06Z"/></g><circle class="cls-14" cx="166.59" cy="153.14" r="2.03"/><path class="cls-15" d="M133.68,139.46a9.35,9.35,0,0,0,6.79,5.11s-6.47,2.52-9.65-1.08"/><path class="cls-9" d="M197.3,120.42s19.12-11.91,32.26-2.16"/><path class="cls-9" d="M147,120.42s12.57-9.75,25.71,0"/><path class="cls-4" d="M231.41,70.68s29.19,97,27.54,117.77c-1.76,22-33.44,56.43-39.79,55.44,0,0,9,2.18,10.23,11.09s10,32.12,10,32.12S252,279.63,251.13,275s-4.29-24.23-4.4-31.65,18.44-10.65,26.09-35.35c3.89-12.55.9-53.39-1.05-63.92S231.41,70.68,231.41,70.68Z"/><path class="cls-9" d="M212.81,246.29s8-3.77,11.61-5.92"/><path class="cls-16" d="M169,346.86c3.24.36,5.64.53,5.64.53S172.22,347.05,169,346.86Z"/><path class="cls-17" d="M220,350.6l2-.81c-.2-.06,6.73-5.6,9.37-5.8,5.41-.42,10.6-10.14,15-12.16,4-1.87,9.51,2.63-1.55,12-5.83,4.94,6.31-1.37,13.84,1.41,3.47,1.28,4.09,4.55.37,5.34-3,.62-6.58,1.09-9.44,1.4s-5,.47-5,.47,2.12-.15,5-.47c5.34-.3,13.08-.1,13.08,3.66,0,2.24-.07,3.09-7.39,3.65s-10.3,3.28-10.3,3.28,16.91-3.13,16.91,2.06c0,3.74-9,4.87-17.47,5.43s-9.81,3.42-16.82,2.72a9.55,9.55,0,0,0-4,.3C218.29,367.08,217.31,358.44,220,350.6Z"/><path class="cls-6" d="M148.05,360.12s13.9-5.62,20.64-3.93l6.1,11.25-13.92,5.05s38.39-13.83,59.1-21.89c-2.66,7.84-1.68,16.48,3.58,22.47a29,29,0,0,0-4.78,1.66c-4.81,2.08-46.14,23.23-52.61,19.49S146,377,148.05,360.12Z"/><path class="cls-18" d="M167.69,350.6s3.44,7,.47,9.72-22.16,8-19.28-1C150.26,355,162.89,345.87,167.69,350.6Z"/><path class="cls-14" d="M168.62,153.14c.59,1.08-.55,2-2,2"/><path class="cls-16" d="M202.49,345.31l-2.31-.91c.23-.07-7.61-6.34-10.6-6.57-6.13-.47-12-11.47-16.92-13.75-4.57-2.12-10.76,3,1.76,13.56,6.6,5.58-7.15-1.55-15.66,1.59-3.93,1.45-4.63,5.16-.42,6,3.37.71,7.45,1.24,10.68,1.59,3.2.19,5.64.53,5.64.53s-2.4-.17-5.64-.53c-6.05-.34-14.79-.11-14.79,4.14,0,2.54.07,3.49,8.35,4.13s11.66,3.71,11.66,3.71-19.13-3.54-19.13,2.33c0,4.24,10.13,5.51,19.76,6.15s11.1,3.87,19,3.07a11.1,11.1,0,0,1,4.54.34C204.39,364,205.5,354.18,202.49,345.31Z"/><path class="cls-6" d="M283.86,356.08s-15.72-6.36-23.35-4.45l-6.91,12.73,15.75,5.71s-43.43-15.64-66.86-24.76c3,8.87,1.9,18.64-4.05,25.42a33,33,0,0,1,5.41,1.89c5.44,2.35,52.21,26.28,59.52,22S286.23,375.16,283.86,356.08Z"/><polygon class="cls-18" points="262.63 345.31 261.51 353.56 278.5 362.44 284.1 358.66 284.1 346.87 262.63 345.31"/><path class="cls-15" d="M192.84,55.75c8.1-10.56,23.39-14.91,35.84-10.2"/><path class="cls-15" d="M211.89,60.79c11.39-5.12,26.34.05,32.15,11.11"/><path class="cls-15" d="M176.54,59.53c-4-2.34-8.76-3.86-13.27-2.78s-8.43,5.37-7.87,10"/><path class="cls-15" d="M302.84,220.91c3.44,6.51,7,13.27,7.45,20.62.29,4.41-.52,8.82-1.39,13.17q-3.48,17.49-8.09,34.75"/><path class="cls-15" d="M319.09,253.37A62.43,62.43,0,0,1,312.2,301c-.3.5-.61,1.18-.23,1.62s1.17-.54.58-.59"/><path class="cls-15" d="M259.75,82.11a75.6,75.6,0,0,1,22.68,36.59"/><path class="cls-15" d="M267.57,70.29c6.09,5.15,12.22,10.35,17.14,16.64s8.57,13.81,9,21.78"/><path class="cls-15" d="M290.78,230.66a209.35,209.35,0,0,0,.52,28"/></g></g></svg>