<svg xmlns="http://www.w3.org/2000/svg" xmlns:xlink="http://www.w3.org/1999/xlink" viewBox="0 0 425.2 425.2"><defs><style>.cls-1,.cls-12,.cls-16,.cls-6{fill:none;}.cls-2{isolation:isolate;}.cls-3{fill:#5558a3;}.cls-10,.cls-11,.cls-12,.cls-14,.cls-16,.cls-18,.cls-20,.cls-21,.cls-3,.cls-5,.cls-6,.cls-7,.cls-8,.cls-9{stroke:#1d1d1b;}.cls-14,.cls-16,.cls-21,.cls-3,.cls-5,.cls-6,.cls-7,.cls-8,.cls-9{stroke-miterlimit:10;}.cls-11,.cls-12,.cls-14,.cls-16,.cls-20,.cls-3,.cls-5,.cls-6,.cls-7,.cls-8,.cls-9{stroke-width:1.43px;}.cls-4{clip-path:url(#clip-path);}.cls-19,.cls-5{fill:#9d9d9c;}.cls-18,.cls-20,.cls-7,.cls-9{fill:#f5d0ae;}.cls-8{fill:#fff;}.cls-11,.cls-12,.cls-16,.cls-18,.cls-20,.cls-9{stroke-linecap:round;}.cls-10{fill:#e6768f;stroke-width:1.36px;}.cls-10,.cls-11,.cls-12,.cls-18,.cls-20{stroke-linejoin:round;}.cls-11{fill:#e94462;}.cls-13,.cls-17{mix-blend-mode:darken;}.cls-14,.cls-17,.cls-21{fill:#d9a994;}.cls-15{fill:#1d1d1b;}.cls-18{stroke-width:1.26px;}.cls-21{stroke-width:1.36px;}</style><clipPath id="clip-path"><circle class="cls-1" cx="209.91" cy="223.25" r="179.75"/></clipPath></defs><title>девч1_2_2</title><g class="cls-2"><g id="Layer_1" data-name="Layer 1"><path class="cls-3" d="M143.63,144.26a66.56,66.56,0,0,1-19.12-42.4,61.23,61.23,0,0,1,15-43.83c7.27-8.16,16.67-14.09,26-19.87a11.25,11.25,0,0,0-4.64,7.18,115.48,115.48,0,0,1,47.4-9.18l-1.15,3.57,53.24-2.11a57.2,57.2,0,0,0-5.71,3.68l12.84,3.84a22.41,22.41,0,0,1-4.2,6.29q12.28,6.14,24.7,12l-5,.74a284.15,284.15,0,0,1,27.15,15.36c-3.74-.42-5.54,4.87-4.24,8.4s4.23,6.38,5,10.06l-7.08,1.18a144.87,144.87,0,0,1,1,31.9l-2.18-5a67.47,67.47,0,0,1-11.94,49.27l-2.21-7c-5.74.47-9.41,6-13.13,10.45a46.35,46.35,0,0,1-36,16.19"/><g class="cls-4"><path class="cls-5" d="M210.91,279.85s-37.84-.4-45.07,16.13-24.91,53.14-31.26,65,18.59,40.38,27.14,45.27,64,8.61,114.81-9c9.6-3.33,16.66-29.88,16.66-43.45s-3.08-46.3-16.81-59.17C264.71,283.71,235.91,277,210.91,279.85Z"/><path class="cls-6" d="M168.44,316.6s2.82,6.26-6.77,21.36-12,16.44-7.41,29.76c4.32,12.46,20.74,23.63,34.87,20.37,13.56-3.13,34.39,1.48,43,.64S248,387.18,253,375.1"/></g><path class="cls-7" d="M262.16,180C253.25,131.68,244,69.18,185.85,71.91c-40.7,1.91-47.06,17.81-47.06,78.85,0,0-1.27,14-5.08,24.17s-.64,46.22,24.8,65.93,28.54,23.43,42.49,17l5-2.27-5,2.27s7.5,10.57,7.43,19.47-6.68.83-6.13,14.89c.67,17.11,20,9.11,20,9.11s7.33-2.89,20.78-13.2c7-5.38-2.54-12.71-5.72-19.07-3.08-6.15-12.14-17.22-9.32-24.47C249.55,232.22,268.41,214,262.16,180Z"/><circle class="cls-8" cx="151.72" cy="159.45" r="19.71"/><circle class="cls-8" cx="209.38" cy="159.45" r="19.71"/><path class="cls-9" d="M175.25,165.57s-3.81,13.59-8.9,19.53-8.9,14.51-.43,17.05,15.27-5.6,15.27-5.6"/><path class="cls-8" d="M174.62,220.71l1.69,12.08s18.23,1.27,25-4.66,12.8-19.37,12.8-19.37S180.76,226.64,174.62,220.71Z"/><path class="cls-10" d="M171.44,222.94c-3.05-.41-7.08-2.29-6.92-6.05.11-2.58,2.39-7.72,16.67-6s19.07,4.07,34.86-4.31C216.05,206.54,195.58,226.16,171.44,222.94Z"/><path class="cls-10" d="M178.43,240.85c-3.07-.08-12.24.05-11.73-7.94.32-5,6.22-.74,20.42-3s16.62-9.52,28.93-23.39C216.05,206.54,212,241.64,178.43,240.85Z"/><path class="cls-11" d="M214.12,203.54s4.16,3.18,4.58,6.57"/><path class="cls-12" d="M193.48,223.7a30.2,30.2,0,0,0,15.05-8.78"/><g class="cls-13"><path class="cls-14" d="M228.89,157.13a19.69,19.69,0,0,0-36.57-7.62Z"/><path class="cls-14" d="M193.55,171.24a19.68,19.68,0,0,0,32.72-1.75Z"/></g><circle class="cls-15" cx="218.44" cy="161.48" r="2.03"/><path class="cls-16" d="M185.53,144.4a9.35,9.35,0,0,0,6.79,5.11s-6.47,2.52-9.65-1.08"/><g class="cls-13"><path class="cls-14" d="M171.06,157.13a19.69,19.69,0,0,0-36.57-7.62Z"/><path class="cls-14" d="M135.72,171.24a19.68,19.68,0,0,0,32.72-1.75Z"/></g><circle class="cls-15" cx="160.61" cy="161.48" r="2.03"/><path class="cls-16" d="M127.7,144.4a9.35,9.35,0,0,0,6.79,5.11s-6.47,2.52-9.65-1.08"/><path class="cls-9" d="M197.87,126.6s12.57-9.75,25.71,0"/><path class="cls-9" d="M141,128.76s12.57-9.75,25.71,0"/><path class="cls-17" d="M254,139.74s-4.38,42.42-8.18,62.9c-3.91,21.06-26.3,50.58-32.65,49.59,0,0,9,2.18,10.23,11.08s21,25.58,21,25.58,2.37.91,1.46-3.74-17.27-26.5-17.38-33.92,23.85-22.92,31.13-38.63c5.52-11.93,1.33-43.68-.62-54.2A126.84,126.84,0,0,0,254,139.74Z"/><path class="cls-9" d="M206.83,254.62s8-3.76,11.61-5.91"/><path class="cls-18" d="M204.84,367.06l2-.81c-.2-.06,6.72-5.6,9.36-5.8,5.42-.42,10.6-10.14,14.95-12.16,4.05-1.87,9.52,2.63-1.55,12-5.83,4.94,6.32-1.37,13.85,1.41,3.47,1.28,4.08,4.55.36,5.34-3,.62-6.58,1.09-9.44,1.4s-5,.47-5,.47,2.12-.15,5-.47c5.35-.3,13.08-.1,13.08,3.66,0,2.24-.07,3.09-7.38,3.65S229.81,379,229.81,379s16.91-3.13,16.91,2.06c0,3.74-9,4.87-17.47,5.43s-9.81,3.42-16.81,2.72a9.55,9.55,0,0,0-4,.3C203.17,383.54,202.18,374.9,204.84,367.06Z"/><path class="cls-5" d="M133.29,368.7s13.53,2.26,20.28,3.95l6.1,11.25L145.75,389s38.38-13.83,59.09-21.89c-2.66,7.84-1.67,16.48,3.59,22.47a29.42,29.42,0,0,0-4.79,1.66c-4.8,2.08-46.14,23.23-52.6,19.49S131.2,385.56,133.29,368.7Z"/><path class="cls-19" d="M142.85,359.15a6.83,6.83,0,0,0-4.8,2.65,20,20,0,0,0-2.75,4.91,10,10,0,0,0-1.19,4.58c.18,2.68,2.44,4.7,4.57,6.34a17.32,17.32,0,0,0,6.55,3.61c2.44.55,5.34-.12,6.71-2.22a7.34,7.34,0,0,0,1-3.46,17.15,17.15,0,0,0-4.16-12.67,7.15,7.15,0,0,0-2.59-2c-2.57-1-5.44.48-7.58,2.24"/><path class="cls-20" d="M203.8,364.61l-2.32-.91c.23-.07-7.6-6.33-10.59-6.56-6.13-.47-12-11.48-16.92-13.76-4.57-2.12-10.76,3,1.76,13.57,6.59,5.58-7.15-1.56-15.67,1.59-3.92,1.45-4.62,5.15-.41,6,3.36.71,7.44,1.24,10.68,1.59,3.2.18,5.64.53,5.64.53s-2.4-.18-5.64-.53c-6.05-.35-14.8-.12-14.8,4.13,0,2.54.08,3.5,8.36,4.13s11.66,3.71,11.66,3.71-19.13-3.54-19.13,2.33c0,4.24,10.13,5.52,19.76,6.15s11.1,3.87,19,3.08a11.15,11.15,0,0,1,4.53.33C205.7,383.26,206.81,373.48,203.8,364.61Z"/><path class="cls-5" d="M285.17,375.39s-15.72-6.36-23.35-4.45l-6.91,12.72,15.75,5.72s-43.43-15.65-66.86-24.77c3,8.87,1.9,18.65-4.06,25.42a34,34,0,0,1,5.42,1.89c5.44,2.35,52.2,26.28,59.52,22.05S287.54,394.46,285.17,375.39Z"/><path class="cls-19" d="M261.48,379.92a5,5,0,0,0,3.6,3.38,21.77,21.77,0,0,0,19.63-3.1,6.22,6.22,0,0,0,1.73-1.7,6.38,6.38,0,0,0,.69-4.08,11.82,11.82,0,0,0-4.16-7.8c-4.81-3.87-10.25-1.2-15.37.15S259.2,374,261.48,379.92Z"/><path class="cls-16" d="M130.69,165.57h29.89s5.25,16.5.12,20.2-22.52,2.16-24.49,1.48S130.93,178.7,130.69,165.57Z"/><path class="cls-16" d="M185.36,165.87h29.9s3.06,17.92.11,20.19-22.56,2.39-25.36,0C187.63,184,185.61,179,185.36,165.87Z"/><path class="cls-16" d="M197.87,297.65s7,24.33,40.65,1.66"/><path class="cls-16" d="M258.82,376.86a80.06,80.06,0,0,0,2.83-33.77"/><path class="cls-16" d="M251.34,100.89a34.57,34.57,0,0,1,25.83,6.22"/><path class="cls-16" d="M271,119.23a11.55,11.55,0,0,1,11.77,4.12"/><path class="cls-16" d="M233.21,64.47a66.05,66.05,0,0,1,12.39-3.75"/><path class="cls-21" d="M257.76,190s6-11.73,17.48-6.89c5.95,2.5,4.14,32.6-15.26,27.38"/><path class="cls-16" d="M252.3,102.65s7-1.34,11.07,7.11"/><path class="cls-16" d="M228.86,69.46a12.72,12.72,0,0,1,16.53.53"/><path class="cls-16" d="M259,85.33c3.15-.39,6.39-.78,9.48-.06s6.08,2.79,7,5.84"/><path class="cls-16" d="M260.74,132.67a15.45,15.45,0,0,1,15,13.54"/><path class="cls-16" d="M144.86,75.86A18.61,18.61,0,0,1,160.28,64.2"/><path class="cls-16" d="M175.68,66.25c-.15-1.94,1.76-3.33,3.44-4.31,6.82-4,14.21-8.1,22.07-7.41"/></g></g></svg>