<svg xmlns="http://www.w3.org/2000/svg" xmlns:xlink="http://www.w3.org/1999/xlink" viewBox="0 0 425.2 425.2"><defs><style>.cls-1,.cls-10,.cls-14,.cls-20{fill:none;}.cls-2{isolation:isolate;}.cls-3{fill:#936037;}.cls-10,.cls-12,.cls-14,.cls-16,.cls-17,.cls-19,.cls-20,.cls-3,.cls-5,.cls-6,.cls-7,.cls-8,.cls-9{stroke:#1d1d1b;}.cls-12,.cls-14,.cls-17,.cls-3,.cls-6,.cls-7,.cls-8{stroke-miterlimit:10;}.cls-12,.cls-14,.cls-20,.cls-3,.cls-5,.cls-6,.cls-7,.cls-8{stroke-width:1.43px;}.cls-4{clip-path:url(#clip-path);}.cls-5{fill:#575756;}.cls-10,.cls-14,.cls-16,.cls-19,.cls-20,.cls-5,.cls-8{stroke-linecap:round;}.cls-10,.cls-16,.cls-19,.cls-20,.cls-5,.cls-9{stroke-linejoin:round;}.cls-16,.cls-19,.cls-6,.cls-8{fill:#f5d0ae;}.cls-7{fill:#fff;}.cls-9{fill:#e6768f;}.cls-10,.cls-9{stroke-width:1.3px;}.cls-11,.cls-15{mix-blend-mode:darken;}.cls-12,.cls-15,.cls-17{fill:#d9a994;}.cls-13{fill:#1d1d1b;}.cls-16{stroke-width:1.24px;}.cls-17{stroke-width:1.36px;}.cls-18{fill:#b5873b;}.cls-19{stroke-width:1.38px;}</style><clipPath id="clip-path"><circle class="cls-1" cx="209.91" cy="217.55" r="179.75"/></clipPath></defs><title>девч1_2_2</title><g class="cls-2"><g id="Layer_1" data-name="Layer 1"><path class="cls-3" d="M138,164.11c-7.19-17.2-21.41-31.56-24.53-50-2-11.67.9-23.87,6.73-34.17s14.45-18.83,24-25.76a117,117,0,0,1,50.53-20.69c6.6-1,13.39-1.45,19.9,0,8,1.75,15,6.17,22.44,9.53,8.74,3.95,18.2,6.55,26.08,12,6.37,4.43,11.37,10.52,17.06,15.8,12.36,11.49,27.78,19,43,26.41l-10.6-.42a46,46,0,0,1,7,16.33,26.18,26.18,0,0,0-12.2-6.64A103.92,103.92,0,0,1,327.2,139.4a68.66,68.66,0,0,0-18.3-7.63,28,28,0,0,1-1.76,20.34,18,18,0,0,0-13.08-6.81,7.31,7.31,0,0,1,1.36,6.16l-2.84-1.56q-5.28,13.5-11.12,26.76c-2.87,6.52-5.95,13.15-11,18.14-6.43,6.34-15.33,9.37-24,11.88-9.8,2.85-19.83,5.29-30,5.34-15.21.07-30-5.23-43.44-12.35-6.59-3.49-13.21-7.71-16.86-14.21-2.23-4-3.24-8.67-6.07-12.26-3.95-5-10.92-7.22-14.21-12.7"/><g class="cls-4"><path class="cls-5" d="M211.29,270.51s-28.71,7.31-35,23.84S157.19,332.12,159.05,344c2,12.93,1.5,41.32,8.92,46.2s54.24,19,98.29,1.37c8.33-3.33,14.45-29.88,14.45-43.45s-3.28-46.78-10.18-59.35C255,260.42,233,267.66,211.29,270.51Z"/></g><path class="cls-6" d="M262.16,174.31C253.25,126,245.16,71.78,187.5,80c-26.95,3.83-55.13,3.68-55.13,64.72,0,0,5.15,14.35,1.34,24.52s-3.62,44.19,22.81,62.54c27.91,19.37,32,20.65,46,14.21,1.61-.75,3.46,3.9,3.46,3.9s4.71,8.73,4.64,17.63.12-3-7.4,8.88c-2.85,4.51-.68,15.6,9.4,16.93,15,2,20.22-2.37,30.49-22.8,4-7.92-2.55-.81-5.73-7.17-3.08-6.15-12.64-21.78-9.81-29C249.06,222,268.41,208.26,262.16,174.31Z"/><circle class="cls-7" cx="151.72" cy="153.75" r="19.71"/><circle class="cls-7" cx="209.38" cy="153.75" r="19.71"/><path class="cls-8" d="M175.25,159.87s-1.52,13.94-3.81,23.23c-1.29,5.21-8.86,10-.38,12.55s14.47-4,14.47-4"/><path class="cls-9" d="M186.7,214.33c-3,.22-18.9.86-19.09-4.28-.05-1.13,1.83-5.93,14.94-5.31,16.9.81,18.61,3.44,34-3.64C216.56,201.1,207.22,212.8,186.7,214.33Z"/><path class="cls-9" d="M180.74,227.68c-3-.06-12.51-1.76-12-8.5.31-4.2,6.14-3.15,20-5s15.83-1.32,27.84-13C216.56,201.1,213.46,228.35,180.74,227.68Z"/><path class="cls-10" d="M213.1,197.73s6.15,4.27,5.25,8.33"/><g class="cls-11"><path class="cls-12" d="M228.89,151.42A19.7,19.7,0,0,0,209.33,134c-11.46,0-16.25,7-18.55,13.18Z"/><path class="cls-12" d="M191.16,161.07a19.24,19.24,0,0,0,18.17,12.39c9.11,0,14.78-6.27,18.22-12.05Z"/></g><circle class="cls-13" cx="218.44" cy="155.78" r="2.03"/><path class="cls-14" d="M185.53,141.72a9.35,9.35,0,0,0,6.79,5.11s-6.47,2.52-9.65-1.08"/><g class="cls-11"><path class="cls-12" d="M171.06,151.42A19.71,19.71,0,0,0,151.49,134c-10.52,0-16.11,8.69-17.94,12.82Z"/><path class="cls-12" d="M133.55,161.41c2.94,4.85,7.42,12.05,17.94,12.05,10.68,0,15-6.27,18.4-12.05Z"/></g><circle class="cls-13" cx="160.61" cy="155.78" r="2.03"/><path class="cls-14" d="M127.7,142.1a9.35,9.35,0,0,0,6.79,5.11s-6.47,2.52-9.65-1.08"/><path class="cls-8" d="M189.66,126.44s14.17-17.87,33.92-5.54"/><path class="cls-8" d="M141,123.06s17.61-9.11,27.59,5.59"/><path class="cls-8" d="M203.83,245.92s8-3.76,11.61-5.91"/><path class="cls-13" d="M162.64,155.78c.59,1.08-.55,2-2,2"/><path class="cls-14" d="M190.17,311.75s.23,17.12,33.66,7.19"/><path class="cls-14" d="M179.71,59.39S190.8,34.76,214.66,38"/><path class="cls-14" d="M192.18,57.05s20.21-17.93,40.63-5.16"/><path class="cls-15" d="M225.43,73.31s29.19,97,27.54,117.78c-1.76,22-35.34,52.16-41.68,51.16,0,0,10.88,6.46,12.12,15.36s10,32.12,10,32.12,10-13.33,9.09-18-14.93-23.33-14.93-37.44c0,0,28.15-13.43,35.8-38.12,3.89-12.55,4.39-39,2.44-49.49S225.43,73.31,225.43,73.31Z"/><path class="cls-16" d="M160.61,378.42s38.19-16.27,57.83-24c-.19-.05,7-7.88,9.6-8.08,5.29-.41,10.36-9.91,14.61-11.88,3.95-1.83,9.29,2.57-1.51,11.72-5.7,4.82,6.17-1.34,13.52,1.37,3.39,1.25,4,4.45.36,5.22a131.68,131.68,0,0,1-14.09,1.83s17.64-2.5,17.64,3.11c0,2.19-.06,3-7.21,3.57s-10.07,3.2-10.07,3.2,16.52-3.06,16.52,2c0,3.66-8.75,4.76-17.07,5.31s-9.58,3.34-16.42,2.66c-.77-.08-2.89-.55-8.6,1.92-4.69,2-44.34,20.91-51.4,19-17.9-4.76-5.25-46.82-3.21-63.29,0,0,11,0,17.63,1.64l-6,35.49"/><path class="cls-17" d="M256.66,183s6-11.72,17.48-6.89c5.95,2.51,4.14,32.61-15.26,27.38"/><path class="cls-18" d="M303.62,137.82s-1.34-7.43-12.34-9.58-19-13.14-21-21.48-7.39-22.33-12.53-25.66-27.56-8.34-27.56-8.34,3.09-4.33,20.43,0,24.66,5,29,20.67,7,25.16,12,26.91S303.62,137.82,303.62,137.82Z"/><path class="cls-19" d="M255.57,380.76c-5.87,1.06-35.37-11.36-57.25-21.5-.71.84-4.91-4.67-10.14-6.56-8.25-3-6.44-20.43-11.18-22.67-3.11-1.46-6.42,6.45-3.13,16.45,2.61,7.92-9,.57-17.26,3.61-3.79,1.39-4.46,5-.4,5.83A145,145,0,0,0,172,358s-19.73-2.78-19.73,3.48c0,2.46.07,3.38,8.06,4S171.56,369,171.56,369s-18.47-3.42-18.47,2.25c0,4.09,9.79,5.32,19.08,5.93s10.72,3.74,18.37,3c.86-.09,3.22-.61,9.61,2.15,5.25,2.27,50.41,25.38,57.47,21.28s23.09-44.64,20.81-63.06c0,0-16.19-7.38-23.56-5.53l-9.44,43.11"/><path class="cls-20" d="M122.19,148.06h40.45s7.1,27.34.16,33.46-30.47,3.6-33.14,2.46S122.52,169.82,122.19,148.06Z"/><path class="cls-20" d="M182,148.06h40.45s4.14,29.69.16,33.46c-4.18,3.95-30.54,3.95-34.32,0C185.08,178.16,182.34,169.82,182,148.06Z"/></g></g></svg>