<svg xmlns="http://www.w3.org/2000/svg" xmlns:xlink="http://www.w3.org/1999/xlink" viewBox="0 0 425.2 425.2"><defs><style>.cls-1,.cls-13,.cls-17{fill:none;}.cls-2{isolation:isolate;}.cls-3{fill:#4e2d1a;}.cls-10,.cls-11,.cls-12,.cls-13,.cls-15,.cls-17,.cls-18,.cls-20,.cls-3,.cls-6,.cls-8,.cls-9{stroke:#1d1d1b;}.cls-10,.cls-15,.cls-17,.cls-3,.cls-8,.cls-9{stroke-miterlimit:10;}.cls-10,.cls-15,.cls-17,.cls-20,.cls-3,.cls-6,.cls-8,.cls-9{stroke-width:1.43px;}.cls-15,.cls-4{fill:#d9a994;}.cls-14,.cls-4{mix-blend-mode:darken;}.cls-5{clip-path:url(#clip-path);}.cls-19,.cls-6{fill:#575756;}.cls-10,.cls-13,.cls-17,.cls-18,.cls-20,.cls-6{stroke-linecap:round;}.cls-11,.cls-12,.cls-13,.cls-18,.cls-20,.cls-6{stroke-linejoin:round;}.cls-7{fill:#68b762;}.cls-10,.cls-18,.cls-20,.cls-8{fill:#f5d0ae;}.cls-9{fill:#fff;}.cls-11,.cls-12{fill:#e6768f;}.cls-11,.cls-13{stroke-width:1.57px;}.cls-12{stroke-width:1.46px;}.cls-16{fill:#1d1d1b;}.cls-18{stroke-width:1.26px;}</style><clipPath id="clip-path"><circle class="cls-1" cx="209.91" cy="217.55" r="179.75"/></clipPath></defs><title>девч1_2_2</title><g class="cls-2"><g id="Layer_1" data-name="Layer 1"><path class="cls-3" d="M173.45,40.68c8.36.65,16.88,2.24,25.73-1.27,29.93-11.86,57.48-4.47,78.94,19.56,22.34,25,22.74,45.3,31.29,82.72,12.28,53.74,24.45,77.13,25,99.17.88,32.89-2.11,39.62-6.67,54.22-5.52,17.7-19.28,27.18-25,33.08L280.45,341.8,270.28,340s-5.64-24.59-10.49-26.28-57.82-9.11-65.42-7-22.15,4.46-33.78,0,20.75,10,6.09,20c-7.84,5.35-18.43-4.45-18.43-4.45h0c-12.53-15.56-22.83-10.94-31.14-60.65-5.48-32.76,17.38-55.56,7.73-118.88C118,97.88,119,92.87,132,69.31c5.93-10.69,14.56-23.93,27-27.64C163.81,40.25,168.61,40.31,173.45,40.68Z"/><path class="cls-4" d="M222.6,145.08l-71.85,36.55s2.22,16.31-3.48,27.93,19.27,24.42,17.32,30.33,5.35,13.83,15.06,23c11.24,10.6,21.26,18.63,22.42,21s-15.55,20.32-15.55,20.32L204.08,275l25.3,29.61,36.48-39.37s-6.67-4.48-6.07-16.35,15-44.42,12-56.61-15.34-17.2-15.34-17.2,8.68,1.95,17.49-6.88c4.31-4.34-40.68-23.53-53.43-12.45"/><g class="cls-5"><path class="cls-6" d="M209.35,274.15s-37.77.63-44,17.17-11.55,55.1-17.06,67,.52,26.45,7.94,31.33,66,19.55,110.07,1.95c8.33-3.33,14.45-29.88,14.45-43.45s-5.09-45.94-10.18-59.35S231,271.3,209.35,274.15Z"/><polygon class="cls-7" points="232.71 343.07 232.71 321.8 214.28 311.16 195.86 321.8 195.86 343.07 214.28 353.71 232.71 343.07"/></g><path class="cls-8" d="M262.16,174.31C253.25,126,244,63.48,185.85,66.21c-40.7,1.91-47.06,17.8-47.06,78.85,0,0-1.27,14-5.08,24.16s-.64,46.23,24.8,65.94,28.54,23.43,42.49,17l5-2.27h0s4.84,11.56,4.76,20.46,0,6.07-7.53,18c-2.85,4.5-.61,8.83,7.41,9.9,9.87,1.31,17.13-6.43,32.48-15.78,7.57-4.6-2.54-12.71-5.72-19.07-3.08-6.15-12.14-17.23-9.32-24.47C249.55,226.51,268.41,208.26,262.16,174.31Z"/><circle class="cls-9" cx="151.72" cy="153.75" r="19.71"/><circle class="cls-9" cx="209.38" cy="153.75" r="19.71"/><path class="cls-10" d="M175.25,159.87s.22,15.72-7.28,21.65c-4.6,3.64-5.39,11.58,3.09,14.13s14.47-4,14.47-4"/><path class="cls-11" d="M183.42,220c-3.15.31-19.94,1.2-20.14-5.9-.05-1.56,1.93-8.19,15.75-7.33,17.83,1.12,19.63,4.74,35.87-5A43.13,43.13,0,0,1,183.42,220Z"/><path class="cls-12" d="M180.15,236c-2.92-.09-12.2-2.33-11.76-11.06.28-5.43,6-4,19.46-6.44s15.41-1.64,27.05-16.75C214.9,201.7,212,237,180.15,236Z"/><path class="cls-13" d="M211.83,197s7.16,8.89,6.22,14.49"/><g class="cls-14"><path class="cls-15" d="M228.89,151.42A19.7,19.7,0,0,0,209.33,134c-11.46,0-16.25,7-18.55,13.18Z"/><path class="cls-15" d="M191.16,161.07a19.24,19.24,0,0,0,18.17,12.39c9.11,0,14.78-6.27,18.22-12.05Z"/></g><circle class="cls-16" cx="218.44" cy="155.78" r="2.03"/><path class="cls-17" d="M185.53,141.72a9.35,9.35,0,0,0,6.79,5.11s-6.47,2.52-9.65-1.08"/><g class="cls-14"><path class="cls-15" d="M171.06,151.42A19.71,19.71,0,0,0,151.49,134c-10.52,0-16.11,8.69-17.94,12.82Z"/><path class="cls-15" d="M133.55,161.41c2.94,4.85,7.42,12.05,17.94,12.05,10.68,0,15-6.27,18.4-12.05Z"/></g><circle class="cls-16" cx="160.61" cy="155.78" r="2.03"/><path class="cls-17" d="M127.7,142.1a9.35,9.35,0,0,0,6.79,5.11s-6.47,2.52-9.65-1.08"/><path class="cls-10" d="M197.87,120.9s12.57-9.75,25.71,0"/><path class="cls-10" d="M141,123.06s12.57-9.75,25.71,0"/><path class="cls-4" d="M225.43,73.31s29.19,97,27.54,117.78c-1.76,22-33.44,56.43-39.79,55.44,0,0,9,2.18,10.23,11.08s10,32.12,10,32.12,12.67-7.46,11.76-12.11-4.29-24.23-4.4-31.65,18.44-10.66,26.09-35.35c3.89-12.55.9-53.4-1-63.92S225.43,73.31,225.43,73.31Z"/><path class="cls-10" d="M206.83,248.92s8-3.76,11.61-5.91"/><path class="cls-3" d="M263.37,243s3.8,11.35-3.58,23.89-17.15,25.83-19.59,28.2c-8,7.74,7.43,33.32,7.43,33.32a169.75,169.75,0,0,0,32.46-19.33c15.75-11.95,20.37-15,20.37-15"/><path class="cls-3" d="M190,274.14s-5.41-2.75-1.55,12.09S190,331.55,190,331.55s-6.65,2.94-15.19-5.31-21-14.19-24.09-27.6c-1.13-4.89-.56-24-2.49-31.74-1.19-4.7-7.28-18-7.28-18"/><path class="cls-17" d="M275.06,270.51s-.23,24.82-11.69,32.33"/><path class="cls-17" d="M266.84,116.56s11.28,33.85,19,42.18,17,27.52,17,38.27"/><path class="cls-16" d="M162.64,155.78c.59,1.08-.55,2-2,2"/><path class="cls-18" d="M215.28,358.19l2.05-.81c-.2-.06,6.72-5.6,9.36-5.8,5.42-.42,10.6-10.14,14.95-12.16,4.05-1.87,9.52,2.63-1.55,12-5.83,4.94,6.32-1.37,13.85,1.41,3.47,1.28,4.08,4.55.36,5.34-3,.62-6.58,1.09-9.44,1.4s-5,.47-5,.47,2.12-.15,5-.47c5.35-.3,13.08-.1,13.08,3.66,0,2.24-.07,3.09-7.38,3.65s-10.31,3.28-10.31,3.28,16.91-3.13,16.91,2.06c0,3.74-9,4.87-17.47,5.43s-9.81,3.42-16.81,2.72a9.55,9.55,0,0,0-4,.3C213.61,374.67,212.62,366,215.28,358.19Z"/><path class="cls-6" d="M143.37,367.71s13.89-5.62,20.64-3.93l6.1,11.25-13.92,5.05s38.38-13.83,59.09-21.89c-2.66,7.84-1.67,16.48,3.59,22.47a29.42,29.42,0,0,0-4.79,1.66c-4.8,2.08-46.14,23.23-52.6,19.49S141.27,384.57,143.37,367.71Z"/><path class="cls-19" d="M163,358.19s3.45,7.05.47,9.72-20.28,4.34-20.1-.2S158.18,353.46,163,358.19Z"/><path class="cls-20" d="M197.81,352.9l-2.32-.91c.23-.07-7.6-6.34-10.59-6.57-6.13-.47-12-11.47-16.92-13.75-4.58-2.12-10.76,3,1.75,13.56,6.6,5.58-7.14-1.55-15.66,1.59-3.93,1.45-4.62,5.16-.42,6,3.37.71,7.45,1.24,10.69,1.59,3.19.19,5.64.53,5.64.53s-2.4-.17-5.64-.53c-6.05-.34-14.8-.11-14.8,4.14,0,2.54.08,3.49,8.35,4.13s11.66,3.71,11.66,3.71-19.13-3.54-19.13,2.33c0,4.24,10.14,5.51,19.77,6.15s11.09,3.87,19,3.07a11.1,11.1,0,0,1,4.54.34C199.7,371.54,200.82,361.77,197.81,352.9Z"/><path class="cls-6" d="M279.17,363.67s-15.72-6.36-23.35-4.45L248.92,372l15.75,5.71S221.24,362,197.81,352.9c3,8.87,1.89,18.64-4.06,25.42a33,33,0,0,1,5.41,1.89c5.44,2.35,52.21,26.28,59.52,22S281.54,382.75,279.17,363.67Z"/><polygon class="cls-19" points="257.94 352.89 256.82 361.15 273.82 370.03 279.42 366.25 279.42 354.45 257.94 352.89"/><path class="cls-17" d="M191.36,60.36a2.65,2.65,0,0,1,1.25-1.31c17.09-10.75,42-6.39,54.45,9.53"/><path class="cls-17" d="M227.85,70.63a26.88,26.88,0,0,1,24.74,18.11"/><path class="cls-17" d="M161.33,62.14c-.84-2.7-4.43-3.65-7.08-2.66S149.73,62.8,148,65c-3.5,4.45-7.17,9.33-7.29,15"/><path class="cls-17" d="M198.28,297.34a20.45,20.45,0,0,0,32.12,3.21"/></g></g></svg>