<svg xmlns="http://www.w3.org/2000/svg" xmlns:xlink="http://www.w3.org/1999/xlink" viewBox="0 0 425.2 425.2"><defs><style>.cls-1,.cls-10,.cls-14{fill:none;}.cls-2{isolation:isolate;}.cls-3{fill:#4e2d1a;}.cls-10,.cls-12,.cls-14,.cls-16,.cls-17,.cls-3,.cls-5,.cls-6,.cls-7,.cls-8,.cls-9{stroke:#1d1d1b;}.cls-12,.cls-14,.cls-3,.cls-5,.cls-6,.cls-7,.cls-8{stroke-miterlimit:10;}.cls-12,.cls-14,.cls-17,.cls-3,.cls-5,.cls-6,.cls-7,.cls-8{stroke-width:1.43px;}.cls-4{clip-path:url(#clip-path);}.cls-5{fill:#1e1e1e;}.cls-16,.cls-17,.cls-6,.cls-8{fill:#f5d0ae;}.cls-7{fill:#fff;}.cls-10,.cls-14,.cls-16,.cls-17,.cls-8{stroke-linecap:round;}.cls-9{fill:#e6768f;}.cls-10,.cls-16,.cls-17,.cls-9{stroke-linejoin:round;}.cls-10,.cls-9{stroke-width:1.36px;}.cls-11,.cls-15{mix-blend-mode:darken;}.cls-12,.cls-15{fill:#d9a994;}.cls-13{fill:#1d1d1b;}.cls-16{stroke-width:1.28px;}</style><clipPath id="clip-path"><circle class="cls-1" cx="209.91" cy="217.55" r="179.75"/></clipPath></defs><title>девч1_2_2</title><g class="cls-2"><g id="Layer_1" data-name="Layer 1"><path class="cls-3" d="M319.74,183.87c-9.38-18.59-24.71-35.41-26.61-57-1.41-15.93-8.48-33.59-17.35-46.84A80.28,80.28,0,0,0,228.62,47.1c-17.6-4.28-30.33-6.88-46-.8-10.83,4.21-16.74,8-27.39,9.64-24.55,3.8-35.46,37.8-38.91,58.6-.39,2.38-.78,4.75-1.12,7.11-1.52,10.29-.58,20.26-1.45,30.38-.34,3.93-1.83,7-1.66,11.13.23,5.41,2.36,10.53,2,16-.42,6.49-4,12.29-6.47,18.31a57.42,57.42,0,0,0,42.13,78.27,31.91,31.91,0,0,0-4.44-11.6l16.29,6.37c1.31-1.69-.6-4.62-2.68-4.11a81,81,0,0,0,34.37,6.15,2.8,2.8,0,0,0,2.22-.8c.49-.65-.12-1.9-.87-1.58q10.56,2.19,21.23,3.72a11.82,11.82,0,0,0-5.79-5.52l30-.61c3.83-.08,7.74-.17,11.37-1.43,7.37-2.55,12.81-9.65,20.5-10.93l-1.28,11.48a118.89,118.89,0,0,1,22-6.65,19.49,19.49,0,0,0-3.31,10.56c0-1.06,13.74-6.86,15.19-7.64C313,258.6,315.44,253,320.73,245,333.55,225.82,329.66,203.52,319.74,183.87Z"/><g class="cls-4"><path class="cls-5" d="M209.35,274.15s-37.77.63-44,17.17-15.15,54.2-20.66,66.07,4.12,27.35,11.54,32.23,66,19.55,110.07,1.95c8.33-3.33,14.45-29.88,14.45-43.45s-5.09-45.94-10.18-59.35S231,271.3,209.35,274.15Z"/></g><path class="cls-6" d="M262.16,174.31c-7.17-38.9-14.55-87-47.5-102.84-8-3.84-16.59-2.64-27.94-2.11-10,.47-18.76-1.38-25,1.23-19.28,8-22.91,28.39-22.91,74.47,0,0-1.27,14-5.08,24.16s-.64,46.23,24.8,65.94,28.54,23.43,42.49,17l5-2.27h0s4.84,11.56,4.76,20.46-5.32,7.52-12.85,19.4c-2.85,4.51,10.52,9.32,18.54,10.38,9.88,1.31,19.44,3.43,26.67-17.7,2.87-8.38-2.54-12.71-5.72-19.07-3.08-6.15-12.14-17.23-9.32-24.47C249.55,226.51,268.41,208.26,262.16,174.31Z"/><circle class="cls-7" cx="151.72" cy="153.75" r="19.71"/><circle class="cls-7" cx="209.38" cy="153.75" r="19.71"/><path class="cls-8" d="M175.25,159.87s.22,15.72-7.28,21.65c-4.6,3.64-5.39,11.58,3.09,14.13s14.47-4,14.47-4"/><path class="cls-9" d="M186.55,218.72c-2.92.25-19.47-.19-19.65-6-.05-1.28,1.76-6,14.57-6,19.05-.06,19.64,10.23,34.67,2.26C216.14,209,206.56,217,186.55,218.72Z"/><path class="cls-9" d="M179.71,232.6c-2.92-.07-12.21-2-11.72-9.58.3-4.73,6.11-3.24,19.51-4.37,13.76-1.17,15.24-2.55,28-8.47C215.51,210.18,211.63,233.35,179.71,232.6Z"/><path class="cls-10" d="M212.6,204.27s6.62,7.25,5.75,11.83"/><g class="cls-11"><path class="cls-12" d="M228.89,151.42A19.7,19.7,0,0,0,209.33,134c-11.46,0-16.25,7-18.55,13.18Z"/><path class="cls-12" d="M191.16,161.07a19.24,19.24,0,0,0,18.17,12.39c9.11,0,14.78-6.27,18.22-12.05Z"/></g><circle class="cls-13" cx="218.44" cy="155.78" r="2.03"/><path class="cls-14" d="M185.53,141.72a9.35,9.35,0,0,0,6.79,5.11s-6.47,2.52-9.65-1.08"/><g class="cls-11"><path class="cls-12" d="M171.06,151.42A19.71,19.71,0,0,0,151.49,134c-10.52,0-16.11,8.69-17.94,12.82Z"/><path class="cls-12" d="M133.55,161.41c2.94,4.85,7.42,12.05,17.94,12.05,10.68,0,15-6.27,18.4-12.05Z"/></g><circle class="cls-13" cx="160.61" cy="155.78" r="2.03"/><path class="cls-14" d="M127.7,142.1a9.35,9.35,0,0,0,6.79,5.11s-6.47,2.52-9.65-1.08"/><path class="cls-8" d="M191.31,123.06s19.13-11.91,32.27-2.16"/><path class="cls-8" d="M141,123.06s12.57-9.75,25.71,0"/><path class="cls-15" d="M225.43,73.31s29.19,97,27.54,117.78c-1.76,22-33.44,56.43-39.79,55.44,0,0,9,2.18,10.23,11.08s10,32.12,10,32.12,12.67-7.46,11.76-12.11-4.29-24.23-4.4-31.65,18.44-10.66,26.09-35.35c3.89-12.55.9-53.4-1-63.92S225.43,73.31,225.43,73.31Z"/><path class="cls-8" d="M206.83,248.92s8-3.76,11.61-5.91"/><path class="cls-13" d="M162.64,155.78c.59,1.08-.55,2-2,2"/><path class="cls-14" d="M253.77,84.74a75.64,75.64,0,0,1,22.68,36.59"/><path class="cls-3" d="M217.24,59.61c-1.39.23-2.41-1.19-3.51-2.06-1.68-1.33-4-1.48-6.11-1.54a162.41,162.41,0,0,0-21.15,1.17c-2.84.3-4.6,0-6.86,1.59s-4.18,4.76-5.67,7.08a18.23,18.23,0,0,0-3.18,7.83,17.42,17.42,0,0,0,2.18,9.37,35.82,35.82,0,0,0,18.81,17.2C206.56,106,222.68,102,238,105c2.87.57,5.85,1.18,8.2,2.93,2.88,2.15,4.35,5.67,5.7,9l4,9.87a36.52,36.52,0,0,0,2.65-18.53"/><path class="cls-16" d="M244.7,350.13c-2.85.16-5,.47-5,.47S241.81,350.45,244.7,350.13Z"/><path class="cls-5" d="M155,374.89l14.09-5.11-6.18-11.39c-6.82-1.7-18.43,5.05-18.43,5.05-2.12,17.06,9.33,29.65,15.87,33.44s48.37-17.61,53.24-19.72a23.37,23.37,0,0,1,6.77-2c-4.48-5.37-6.54-14.13-7.86-21.5C191.11,361.87,155,374.89,155,374.89Z"/><path class="cls-16" d="M257.94,357.83c0-3.8-7.83-4-13.24-3.7-2.89.32-5,.47-5,.47s2.19-.31,5-.47,6.55-.79,9.56-1.42c3.76-.8,3.14-4.11-.37-5.41-7.62-2.81-19.91,3.58-14-1.42,11.19-9.47,5.66-14,1.57-12.13-4.41,2-9.65,11.88-15.13,12.3-2.68.21-9.68,5.81-9.48,5.88l-4.37,1.7c1.32,7.37,3.38,16.13,7.86,21.5a9.11,9.11,0,0,1,2.13,0c7.09.71,8.4-2.18,17-2.75s17.68-1.7,17.68-5.49c0-5.26-17.11-2.09-17.11-2.09s3-2.75,10.43-3.32S257.94,360.1,257.94,357.83Z"/><polygon class="cls-17" points="246.48 370.09 246.48 370.08 246.48 370.08 246.48 370.09"/><path class="cls-17" d="M161.9,352.59c3.24.35,5.63.53,5.63.53S165.09,352.77,161.9,352.59Z"/><path class="cls-17" d="M195.4,355l-2.35-.92c.23-.07-7.61-6.34-10.59-6.57-6.13-.47-12-11.47-16.92-13.75-4.58-2.12-10.77,3,1.75,13.57,6.6,5.58-7.14-1.56-15.66,1.58-3.93,1.45-4.62,5.16-.42,6.05,3.37.71,7.45,1.24,10.69,1.59,3.19.18,5.63.53,5.63.53s-2.39-.18-5.63-.53c-6.05-.35-14.8-.12-14.8,4.13,0,2.54.08,3.5,8.35,4.13s11.66,3.71,11.66,3.71S148,365,148,370.89c0,4.24,10.14,5.51,19.77,6.15s11.09,3.87,19,3.07a10,10,0,0,1,2.7,0C194.44,373.39,196.31,363.71,195.4,355Z"/><path class="cls-5" d="M276.73,365.81s-15.72-6.36-23.35-4.46l-6.9,12.73h0l15.75,5.71s-6.47-2.33-15.75-5.71h0c-14.78-5.38-36.69-13.44-51.08-19,.91,8.67-1,18.35-5.93,25.06a27.33,27.33,0,0,1,7.25,2.24c5.44,2.35,52.21,26.28,59.52,22S279.1,384.88,276.73,365.81Z"/><path class="cls-7" d="M198.24,286.62l-5.46,13.49c-2,4.9-4,10.37-2.11,15.3a2.69,2.69,0,0,0,1,1.41,3,3,0,0,0,2.27.07A30.65,30.65,0,0,0,215,297.11l3.77,18.8a8.65,8.65,0,0,0,7.16,7c2,.38,3.76-.47,5.44-1.67,6.43-4.56,8.62-10.65,10.59-18.28a115.3,115.3,0,0,0,3.5-22.55c.1-1.9-.11-4.24-1.85-5-2.3,4.54-5.09,9.06-9.36,11.83-4.71,3.07-14.44,4.83-19.58,2.54-2.54-1.12-3.88-2.8-4.8-6-.48-1.66-.61-6.8-1.84-7.45C203.34,273.82,199.48,283.56,198.24,286.62Z"/></g></g></svg>