<svg xmlns="http://www.w3.org/2000/svg" xmlns:xlink="http://www.w3.org/1999/xlink" viewBox="0 0 425.2 425.2"><defs><style>.cls-1,.cls-11,.cls-15{fill:none;}.cls-2{isolation:isolate;}.cls-3{fill:#f2ea79;}.cls-10,.cls-11,.cls-13,.cls-15,.cls-16,.cls-17,.cls-3,.cls-6,.cls-7,.cls-8,.cls-9{stroke:#1d1d1b;}.cls-13,.cls-15,.cls-3,.cls-6,.cls-7,.cls-8,.cls-9{stroke-miterlimit:10;}.cls-13,.cls-15,.cls-16,.cls-3,.cls-6,.cls-7,.cls-8,.cls-9{stroke-width:1.43px;}.cls-13,.cls-4{fill:#d9a994;}.cls-12,.cls-4{mix-blend-mode:darken;}.cls-5{clip-path:url(#clip-path);}.cls-18,.cls-6{fill:#9d9d9c;}.cls-16,.cls-17,.cls-7,.cls-9{fill:#f5d0ae;}.cls-8{fill:#fff;}.cls-11,.cls-15,.cls-16,.cls-17,.cls-9{stroke-linecap:round;}.cls-10{fill:#e6768f;}.cls-10,.cls-11,.cls-16,.cls-17{stroke-linejoin:round;}.cls-10,.cls-11{stroke-width:1.36px;}.cls-14{fill:#1d1d1b;}.cls-17{stroke-width:1.26px;}</style><clipPath id="clip-path"><circle class="cls-1" cx="209.91" cy="217.55" r="179.75"/></clipPath></defs><title>девч1_2_2</title><g class="cls-2"><g id="Layer_1" data-name="Layer 1"><path class="cls-3" d="M115.39,121.67c-3.07,31.5,7,63,21.87,91,3.91,7.39,8.22,14.76,9.85,23,1.91,9.56,0,19.43.33,29.16s3.63,20.51,12.28,25a30.19,30.19,0,0,1,5.49-23.58,90.82,90.82,0,0,0,28.11,34.17,33,33,0,0,0-1.59-13.95,170.79,170.79,0,0,0,28.17,24.37A31,31,0,0,0,217.42,294a150.62,150.62,0,0,1,25.8,30.4,29.81,29.81,0,0,1,8.4-18.31A36.44,36.44,0,0,1,250,331.06a31.46,31.46,0,0,1,16.56-20.43,28.08,28.08,0,0,1-2.77,17.69c11.55-8.51,23.21-17.13,32.47-28.08s16-24.64,16-39l1.81,9.31c7.34-32.83-.88-66.91-9.06-99.53Q300,151,295,130.94c-4.43-17.69-9-35.77-19.19-50.92A80.28,80.28,0,0,0,228.62,47.1c-17.6-4.28-30.33-6.88-46-.8-10.83,4.21-16.74,8-27.39,9.64C130.18,59.82,117.45,100.51,115.39,121.67Z"/><path class="cls-4" d="M158.35,218.46c-1.88,2.53-.25,6.34,2.34,8.12s5.84,2.25,8.82,3.27A47.68,47.68,0,0,1,177.9,234l15.89,9.16a8.5,8.5,0,0,1,2.46,1.86,8.36,8.36,0,0,1,1.33,3.8c3.48,19.65,9.12,38,14.5,56.88,2,7.11,3.18,15.64,9.6,19.31,3.61,2.07,8,2,12.16,1.49,9.42-1.1,18.85-4.05,26.23-10s12.48-15.19,11.9-24.65c-.4-6.68-3.46-12.85-5.57-19.19-4.49-13.44-4.11-27.7-1.64-41.47,2.37-13.2,9.81-25.58,10.32-38.91.63-16.77-5.38-35.74-11.75-51"/><g class="cls-5"><path class="cls-6" d="M209.35,274.15s-37.77.63-44,17.17-11.55,55.1-17.06,67,.52,26.45,7.94,31.33,66,19.55,110.07,1.95c8.33-3.33,14.45-29.88,14.45-43.45s-5.09-45.94-10.18-59.35S231,271.3,209.35,274.15Z"/></g><path class="cls-7" d="M262.16,174.31c-7.17-38.9-14.55-87-47.5-102.84-8-3.84-16.59-2.64-27.94-2.11-10,.47-18.76-1.38-25,1.23-19.28,8-22.91,28.39-22.91,74.47,0,0-1.27,14-5.08,24.16s-.64,46.23,24.8,65.94,28.54,23.43,42.49,17l5-2.27h0s4.84,11.56,4.76,20.46,0,6.07-7.53,18c-2.85,4.5-.61,8.83,7.41,9.9,9.87,1.31,17.13-6.43,32.48-15.78,7.57-4.6-2.54-12.71-5.72-19.07-3.08-6.15-12.14-17.23-9.32-24.47C249.55,226.51,268.41,208.26,262.16,174.31Z"/><circle class="cls-8" cx="151.72" cy="153.75" r="19.71"/><circle class="cls-8" cx="209.38" cy="153.75" r="19.71"/><path class="cls-9" d="M175.25,159.87s.22,15.72-7.28,21.65c-4.6,3.64-5.39,11.58,3.09,14.13s14.47-4,14.47-4"/><path class="cls-10" d="M185.53,217.55c-2.91.25-18.45,1-18.63-4.81-.05-1.28,1.78-6.69,14.57-6,16.5.91,18.16,3.87,33.19-4.1C214.66,202.65,205.54,215.83,185.53,217.55Z"/><path class="cls-10" d="M179.71,232.6c-2.92-.07-12.21-2-11.72-9.58.3-4.73,6-3.55,19.51-5.68s15.44-1.49,27.16-14.69C214.66,202.65,211.63,233.35,179.71,232.6Z"/><path class="cls-11" d="M221,210.18s-8.39-7.53-8.73-14.42"/><g class="cls-12"><path class="cls-13" d="M228.89,151.42A19.7,19.7,0,0,0,209.33,134c-11.46,0-16.25,7-18.55,13.18Z"/><path class="cls-13" d="M191.16,161.07a19.24,19.24,0,0,0,18.17,12.39c9.11,0,14.78-6.27,18.22-12.05Z"/></g><circle class="cls-14" cx="218.44" cy="155.78" r="2.03"/><path class="cls-15" d="M185.53,141.72a9.35,9.35,0,0,0,6.79,5.11s-6.47,2.52-9.65-1.08"/><g class="cls-12"><path class="cls-13" d="M171.06,151.42A19.71,19.71,0,0,0,151.49,134c-10.52,0-16.11,8.69-17.94,12.82Z"/><path class="cls-13" d="M133.55,161.41c2.94,4.85,7.42,12.05,17.94,12.05,10.68,0,15-6.27,18.4-12.05Z"/></g><circle class="cls-14" cx="160.61" cy="155.78" r="2.03"/><path class="cls-15" d="M127.7,142.1a9.35,9.35,0,0,0,6.79,5.11s-6.47,2.52-9.65-1.08"/><path class="cls-9" d="M191.31,123.06s19.13-11.91,32.27-2.16"/><path class="cls-9" d="M141,123.06s12.57-9.75,25.71,0"/><path class="cls-4" d="M225.43,73.31s29.19,97,27.54,117.78c-1.76,22-33.44,56.43-39.79,55.44,0,0,9,2.18,10.23,11.08s10,32.12,10,32.12,12.67-7.46,11.76-12.11-4.29-24.23-4.4-31.65,18.44-10.66,26.09-35.35c3.89-12.55.9-53.4-1-63.92S225.43,73.31,225.43,73.31Z"/><path class="cls-9" d="M206.83,248.92s8-3.76,11.61-5.91"/><path class="cls-16" d="M163,349.5c3.24.36,5.64.53,5.64.53S166.24,349.69,163,349.5Z"/><path class="cls-17" d="M214,353.23l2-.8c-.2-.06,6.73-5.6,9.37-5.8,5.41-.42,10.6-10.14,14.95-12.16,4-1.87,9.51,2.63-1.55,12-5.83,4.94,6.31-1.37,13.84,1.41,3.47,1.28,4.09,4.55.37,5.33-3,.63-6.58,1.1-9.44,1.41-2.83.16-5,.47-5,.47s2.12-.16,5-.47c5.34-.3,13.07-.1,13.07,3.65,0,2.25-.06,3.09-7.38,3.66s-10.3,3.27-10.3,3.27,16.91-3.12,16.91,2.07c0,3.74-9,4.87-17.47,5.43s-9.81,3.42-16.82,2.71a9.94,9.94,0,0,0-4,.3C212.31,369.71,211.33,361.07,214,353.23Z"/><path class="cls-6" d="M146,361s13.89-5.62,20.64-3.94l6.1,11.25-13.92,5.05s38.38-13.82,59.09-21.89c-2.66,7.84-1.68,16.48,3.59,22.47a30.65,30.65,0,0,0-4.79,1.67c-4.81,2.08-45.32,21.15-52.6,19.48C151.72,392.2,143.9,377.81,146,361Z"/><path class="cls-18" d="M164.71,353.23s3.44,7.06.47,9.73-20.76,8.2-17.88-.87C148.67,357.76,159.91,348.51,164.71,353.23Z"/><path class="cls-14" d="M162.64,155.78c.59,1.08-.55,2-2,2"/><path class="cls-16" d="M196.51,347.94l-2.31-.9c.22-.07-7.61-6.34-10.6-6.57-6.13-.47-12-11.47-16.92-13.76-4.57-2.12-10.76,3,1.76,13.57,6.6,5.58-7.15-1.55-15.67,1.59-3.92,1.45-4.62,5.15-.41,6,3.37.71,7.44,1.24,10.68,1.59,3.2.19,5.64.53,5.64.53s-2.4-.17-5.64-.53c-6-.34-14.79-.11-14.79,4.13,0,2.55.07,3.5,8.35,4.14s11.66,3.71,11.66,3.71-19.13-3.54-19.13,2.33c0,4.24,10.13,5.51,19.76,6.14s11.1,3.87,19,3.08a11.05,11.05,0,0,1,4.53.34C198.41,366.59,199.52,356.81,196.51,347.94Z"/><path class="cls-6" d="M277.88,358.72s-15.72-6.36-23.35-4.45L247.62,367l15.75,5.71s-43.43-15.64-66.86-24.77c3,8.87,1.9,18.65-4.06,25.43a33.44,33.44,0,0,1,5.42,1.88c5.44,2.36,52.2,26.29,59.52,22.05S280.25,377.8,277.88,358.72Z"/><polygon class="cls-18" points="256.64 347.94 255.53 356.19 272.52 365.08 278.12 361.3 278.12 349.5 256.64 347.94"/><path class="cls-15" d="M296.86,223.54c3.44,6.52,6.95,13.28,7.45,20.62.29,4.42-.52,8.83-1.39,13.17q-3.48,17.51-8.09,34.76"/><path class="cls-15" d="M253.77,84.74a75.64,75.64,0,0,1,22.68,36.59"/><path class="cls-15" d="M284.8,233.3a209.35,209.35,0,0,0,.52,28"/><path class="cls-3" d="M183.86,65l-1.66-.16a47.23,47.23,0,0,1,7.47,6q16.72,15.47,33.08,31.35c5,4.83,9.94,9.72,13.9,15.4,4.2,6,7.19,12.77,10.72,19.2,9.42,17.12,23.2,33,24.95,52.44,3.91-24.56-4.78-49.16-12.54-72.79-6.7-20.37-13.34-41.85-28.66-56.86-1.68-1.65-4.48-3.22-6.14-1.55"/><path class="cls-3" d="M150.83,65.26c-3.4,1.49-5.81,4.56-8,7.59a104.54,104.54,0,0,0-12.22,22.5c-4.87,12.68-6.73,26.28-8.56,39.74-1.12,8.26-2,17.46,2.9,24.19-1.56-8.71.32-17.7,3.33-26a57.82,57.82,0,0,1,7.13-14.2c3-4.26,6.87-7.89,10.38-11.78C157.4,94.48,165.55,79,173.57,63.79L171.88,65"/><path class="cls-15" d="M196.77,295.52a4.2,4.2,0,0,0,.34,4.31,9.64,9.64,0,0,0,3.46,2.9,28.9,28.9,0,0,0,33.28-4.27"/><path class="cls-3" d="M173.57,63.79s34.48,52.63,37.72,63.3c0,0-19.64-61.62-25.76-67.7"/></g></g></svg>