<svg xmlns="http://www.w3.org/2000/svg" xmlns:xlink="http://www.w3.org/1999/xlink" viewBox="0 0 425.2 425.2"><defs><style>.cls-1,.cls-12,.cls-16,.cls-22{fill:none;}.cls-2{isolation:isolate;}.cls-3{fill:#1e1e1e;}.cls-10,.cls-11,.cls-12,.cls-14,.cls-16,.cls-17,.cls-18,.cls-20,.cls-21,.cls-22,.cls-3,.cls-6,.cls-7,.cls-8,.cls-9{stroke:#1d1d1b;}.cls-14,.cls-16,.cls-21,.cls-22,.cls-3,.cls-7,.cls-8,.cls-9{stroke-miterlimit:10;}.cls-14,.cls-16,.cls-20,.cls-3,.cls-6,.cls-7,.cls-8,.cls-9{stroke-width:1.43px;}.cls-14,.cls-21,.cls-4{fill:#d9a994;}.cls-13,.cls-4{mix-blend-mode:darken;}.cls-5{clip-path:url(#clip-path);}.cls-18,.cls-19,.cls-6{fill:#f6f6f6;}.cls-12,.cls-16,.cls-17,.cls-18,.cls-20,.cls-22,.cls-6,.cls-9{stroke-linecap:round;}.cls-10,.cls-11,.cls-12,.cls-17,.cls-18,.cls-20,.cls-6{stroke-linejoin:round;}.cls-17,.cls-20,.cls-7,.cls-9{fill:#f5d0ae;}.cls-8{fill:#fff;}.cls-10,.cls-11{fill:#e6768f;}.cls-10,.cls-12{stroke-width:1.57px;}.cls-11{stroke-width:1.46px;}.cls-15{fill:#1d1d1b;}.cls-17,.cls-18{stroke-width:1.26px;}.cls-21{stroke-width:1.36px;}.cls-22{stroke-width:1.22px;}</style><clipPath id="clip-path"><circle class="cls-1" cx="216.94" cy="221.7" r="179.75"/></clipPath></defs><title>девч1_2_2</title><g class="cls-2"><g id="Layer_1" data-name="Layer 1"><path class="cls-3" d="M180.88,42.8c46.62-36.33,92,6.61,104.27,20.32,13.35,14.95,26.9,34.35,15.12,53,6.81-2.3,13.43-1.12,20.17,1.37,6.17,2.28,12.83,5.18,15.7,11.09s-1.5,15-8,13.8c12.71,2.54,20.18,19.17,13.63,30.36-2.52,4.3-6.34,10.4-2.24,13.22,1.38.94,3.18.94,4.85.95,5.52,0,11.37.71,15.74,4.09s6.44,10.22,3.06,14.59-10.49,4.79-12.91,9.69c-4.06,8.25,9.31,14.46,11.93,23.27,1.83,6.13-2.14,12.63-7.24,16.5s-11.28,6-16.64,9.52c-1.55,1-3.16,2.36-3.35,4.21-.43,4.25,6.17,5.41,8.18,9.19,1.28,2.42.38,5.38-.71,7.88-7.36,16.83-24.38,28.25-35.21,42.73-7.07,9.44-17,21.23-30,15.64-1.41-6-3.89-24-10.5-26.29-4.85-1.7-57.81-9.11-65.42-7s-22.15,4.46-33.77,0,20.74,10,6.09,20c-7.85,5.34-18.44-4.46-18.44-4.46l4.76,5.92c-6.26-11.16-20.5-13.3-28.33-23.64-3.55-4.68-6.24-10.44-5.48-16.26s6-11.27,11.83-10.57a104.52,104.52,0,0,1-20.88-17.56c-2.53-2.76-5-6.7-3.22-10,2.12-3.82,8-3.05,11.44-5.76,4-3.18,2.92-9.79-.21-13.85s-7.73-6.82-10.76-11-3.82-10.85.41-13.76c1.47-1,3.34-1.4,4.65-2.6,3.43-3.12.8-9-2.79-11.9s-8.29-5.3-9.54-9.77c-1.43-5.13,2.56-10.19,6.87-13.32s9.44-5.61,12.06-10.26c4.13-7.35.21-16.45-3.69-23.93,1.87,3.58,9.93-9.19,10.22-10.73,1-5.38-3.91-8.7-4.65-13.74-2.15-14.66,4.2-27.87,11.08-40.28,13.67-24.69,29.35-14.24,34.67-22.23C174.89,49.47,178.69,44.5,180.88,42.8Z"/><path class="cls-4" d="M229.63,149.23l-71.86,36.55s2.22,16.32-3.48,27.93,19.28,24.42,17.32,30.33,5.36,13.83,15.07,23c11.23,10.6,21.25,18.63,22.41,21s-15.55,20.32-15.55,20.32l17.56-29.19,25.31,29.61,36.48-39.37s-6.67-4.48-6.08-16.35,15-44.41,12-56.61-15.34-17.19-15.34-17.19,8.67,1.94,17.48-6.89c4.32-4.33-40.68-23.53-53.42-12.45"/><g class="cls-5"><path class="cls-6" d="M216.38,278.3s-37.78.63-44,17.17-11.55,55.1-17.06,67,.52,26.45,7.94,31.33,66,19.55,110.08,2c8.32-3.33,14.44-29.88,14.44-43.45s-5.08-45.94-10.17-59.35S238.05,275.45,216.38,278.3Z"/><path class="cls-6" d="M261.61,282.06s-18.74,38.84-13.1,59.51c0,0,14.78,35.28,14.78,44l13.69,4.8S290.29,371.7,288.1,343s-7-50.07-11.12-54S261.61,282.06,261.61,282.06Z"/><path class="cls-6" d="M184.28,286.51s5.38,31.64,6.15,47.52-14,46.17-14,46.17l-20.19,8a43.2,43.2,0,0,1-6.42-22.8c-.09-13.76,4.35-9.52,6.17-20.83,1.66-10.23,12.05-43.33,14.56-47S183.39,283.21,184.28,286.51Z"/></g><path class="cls-7" d="M269.18,178.46c-8.9-48.33-18.13-110.83-76.31-108.1-40.69,1.91-47.05,17.81-47.05,78.85,0,0-1.27,14-5.09,24.17s-.63,46.22,24.8,65.93,28.54,23.43,42.5,17l5-2.27h0s4.83,11.56,4.76,20.46,0,6.07-7.54,18c-2.85,4.5-.61,8.84,7.41,9.9,9.88,1.31,17.14-6.43,32.49-15.78,7.56-4.6-2.55-12.71-5.73-19.07-3.07-6.15-12.14-17.22-9.31-24.47C256.58,230.67,275.44,212.42,269.18,178.46Z"/><circle class="cls-8" cx="158.75" cy="157.9" r="19.71"/><circle class="cls-8" cx="216.4" cy="157.9" r="19.71"/><path class="cls-9" d="M182.28,164c0,10.28-5.92,17.19-7.52,26.53a19.2,19.2,0,0,0-.39,6.22,6.57,6.57,0,0,0,3.32,5c3.43,1.63,12.32-3.42,14.87-6"/><path class="cls-10" d="M190.44,224.11c-3.14.3-19.93,1.19-20.14-5.9,0-1.57,1.93-8.2,15.76-7.34,17.82,1.12,19.62,4.74,35.86-5A43.15,43.15,0,0,1,190.44,224.11Z"/><path class="cls-11" d="M187.18,240.1C184.26,240,175,237.77,175.42,229c.27-5.43,6-4,19.45-6.43s15.42-1.65,27-16.76C221.92,205.85,219.06,241.1,187.18,240.1Z"/><path class="cls-12" d="M218.86,201.12s7.15,8.89,6.21,14.49"/><g class="cls-13"><path class="cls-14" d="M235.92,155.58a19.72,19.72,0,0,0-19.57-17.39c-11.46,0-16.25,7-18.55,13.18Z"/><path class="cls-14" d="M198.19,165.22a19.22,19.22,0,0,0,18.16,12.39c9.12,0,14.79-6.27,18.22-12.05Z"/></g><circle class="cls-15" cx="225.47" cy="159.93" r="2.03"/><path class="cls-16" d="M192.56,145.87a9.35,9.35,0,0,0,6.79,5.11s-6.48,2.52-9.65-1.08"/><g class="cls-13"><path class="cls-14" d="M178.08,155.58a19.7,19.7,0,0,0-19.56-17.39c-10.52,0-16.12,8.69-17.94,12.82Z"/><path class="cls-14" d="M140.58,165.56c2.94,4.86,7.42,12.05,17.94,12.05,10.68,0,15-6.27,18.4-12.05Z"/></g><circle class="cls-15" cx="167.64" cy="159.93" r="2.03"/><path class="cls-16" d="M134.72,146.25a9.35,9.35,0,0,0,6.8,5.11s-6.48,2.52-9.66-1.08"/><path class="cls-9" d="M204.89,125.05s12.57-9.75,25.71,0"/><path class="cls-9" d="M148,127.21s12.57-9.75,25.71,0"/><path class="cls-4" d="M232.46,77.47s29.18,97,27.53,117.77c-1.75,22-33.43,56.43-39.78,55.44,0,0,9,2.18,10.22,11.08s10,32.13,10,32.13,12.66-7.47,11.76-12.12-4.3-24.23-4.41-31.65,18.44-10.66,26.09-35.35c3.89-12.55.91-53.4-1-63.92S232.46,77.47,232.46,77.47Z"/><path class="cls-9" d="M213.86,253.07s8-3.76,11.61-5.91"/><path class="cls-16" d="M273.86,120.71s11.28,33.85,18.95,42.18,17,27.52,17,38.27"/><path class="cls-15" d="M169.67,159.93c.58,1.08-.55,2-2,2"/><path class="cls-16" d="M186.74,63.54s11.08-24.63,34.95-21.35"/><path class="cls-16" d="M199.21,61.2s20.2-17.92,40.63-5.16"/><path class="cls-17" d="M222.31,362.34l2-.8c-.2-.06,6.73-5.61,9.37-5.81,5.41-.41,10.6-10.14,14.95-12.16,4-1.87,9.51,2.63-1.55,12-5.83,4.94,6.31-1.37,13.84,1.41,3.47,1.28,4.09,4.55.37,5.34-3,.63-6.58,1.09-9.44,1.41-2.83.16-5,.46-5,.46s2.12-.15,5-.46c5.34-.31,13.08-.11,13.08,3.65,0,2.24-.07,3.09-7.39,3.65s-10.3,3.28-10.3,3.28,16.91-3.13,16.91,2.06c0,3.75-9,4.87-17.47,5.43s-9.81,3.42-16.82,2.72a9.74,9.74,0,0,0-4,.3C220.63,378.82,219.65,370.18,222.31,362.34Z"/><path class="cls-18" d="M150.39,371.86s13.9-5.62,20.64-3.93l6.1,11.25-13.92,5.05s38.39-13.83,59.1-21.89c-2.66,7.84-1.68,16.48,3.58,22.47a29,29,0,0,0-4.78,1.66C216.3,388.55,175,409.7,168.5,406S148.3,388.72,150.39,371.86Z"/><path class="cls-19" d="M170,362.34s3.44,7.05.46,9.72-20.28,4.34-20.1-.2S165.21,357.61,170,362.34Z"/><path class="cls-20" d="M204.83,357.05l-2.31-.91c.23-.07-7.61-6.34-10.6-6.57-6.13-.47-12-11.47-16.92-13.75-4.57-2.12-10.76,3,1.76,13.56,6.6,5.59-7.15-1.55-15.66,1.59-3.93,1.45-4.63,5.16-.42,6,3.37.71,7.44,1.24,10.68,1.6,3.2.18,5.64.52,5.64.52s-2.4-.17-5.64-.52c-6.05-.35-14.79-.12-14.79,4.13,0,2.54.07,3.49,8.35,4.13s11.66,3.71,11.66,3.71-19.13-3.54-19.13,2.33c0,4.24,10.13,5.51,19.76,6.15s11.1,3.87,19,3.07a11.05,11.05,0,0,1,4.53.34C206.73,375.69,207.84,365.92,204.83,357.05Z"/><path class="cls-6" d="M286.2,367.82s-15.72-6.35-23.35-4.45l-6.91,12.73,15.75,5.71s-43.43-15.64-66.86-24.76c3,8.87,1.9,18.64-4.06,25.42a33.65,33.65,0,0,1,5.42,1.89c5.44,2.35,52.21,26.28,59.52,22S288.57,386.9,286.2,367.82Z"/><polygon class="cls-19" points="264.96 357.05 263.85 365.3 280.84 374.18 286.44 370.4 286.44 358.61 264.96 357.05"/><path class="cls-21" d="M263.62,191.12s6-11.73,17.49-6.89c5.94,2.5,4.13,32.61-15.27,27.38"/><path class="cls-6" d="M203.53,304.43a24.62,24.62,0,0,1-2.54-17,22.81,22.81,0,0,0,.95-5.52c-.08-2.86-1.7-5.73-.81-8.45,1-2.95,4.37-4.2,7.35-5.07a8.47,8.47,0,0,1,4.88-.43,6.15,6.15,0,0,1,2.7,2c3.6,4.19,3.63,10.27,3.6,15.79s.33,11.68,4.3,15.53c0-5.56,3.85-10.41,8.22-13.85s9.44-6,13.5-9.76a28.81,28.81,0,0,0,6.53-9l2.67-2.67c.47-1.8,3.33-2.19,4.86-1.14s2.2,3,2.66,4.78a34.77,34.77,0,0,1,1.2,8.95,26.8,26.8,0,0,1-11.12,21.2c-3.57,2.53-7.69,4.13-11.77,5.7-.49.19-1.1.35-1.48,0s.33-1.16.58-.7"/><path class="cls-22" d="M175.14,176.56c0,11.15-7.65,23-22.48,20.19-12.54-2.39-20.91-12.29-20.91-23.44s5.67-13.68,20.91-16.94C164.8,153.77,175.14,165.41,175.14,176.56Z"/><path class="cls-22" d="M190.16,176.56c0,11.15,7.66,23,22.48,20.19,12.54-2.39,20.92-12.29,20.92-23.44s-5.67-13.68-20.92-16.94C200.5,153.77,190.16,165.41,190.16,176.56Z"/></g></g></svg>