<svg xmlns="http://www.w3.org/2000/svg" xmlns:xlink="http://www.w3.org/1999/xlink" viewBox="0 0 425.2 425.2"><defs><style>.cls-1,.cls-14,.cls-18,.cls-6{fill:none;}.cls-2{isolation:isolate;}.cls-3{fill:#9e612d;}.cls-10,.cls-11,.cls-12,.cls-13,.cls-14,.cls-16,.cls-18,.cls-20,.cls-21,.cls-22,.cls-3,.cls-5,.cls-6,.cls-7,.cls-9{stroke:#1d1d1b;}.cls-10,.cls-11,.cls-16,.cls-18,.cls-3,.cls-5,.cls-6,.cls-9{stroke-miterlimit:10;}.cls-10,.cls-11,.cls-13,.cls-14,.cls-16,.cls-18,.cls-21,.cls-22,.cls-3,.cls-5,.cls-6,.cls-9{stroke-width:1.43px;}.cls-4{clip-path:url(#clip-path);}.cls-5{fill:#1d71b8;}.cls-22,.cls-7{fill:#ca9e67;}.cls-11,.cls-13,.cls-14,.cls-18,.cls-20,.cls-21,.cls-22,.cls-7{stroke-linecap:round;}.cls-12,.cls-13,.cls-14,.cls-20,.cls-21,.cls-22,.cls-7{stroke-linejoin:round;}.cls-20,.cls-7{stroke-width:1.26px;}.cls-8{fill:#84512d;}.cls-11,.cls-20,.cls-21,.cls-9{fill:#f5d0ae;}.cls-10{fill:#fff;}.cls-12{fill:#e6768f;stroke-width:1.36px;}.cls-13{fill:#e94462;}.cls-15,.cls-19{mix-blend-mode:darken;}.cls-16,.cls-19{fill:#d9a994;}.cls-17{fill:#1d1d1b;}</style><clipPath id="clip-path"><circle class="cls-1" cx="209.91" cy="223.25" r="179.75"/></clipPath></defs><title>девч1_2_2</title><g class="cls-2"><g id="Layer_1" data-name="Layer 1"><path class="cls-3" d="M120.85,86.84c-10.58,24.89-10.44,51.52-9.65,78.26.35,11.69,1.39,23.42.12,35.05a88.87,88.87,0,0,1-8.3,29c-4.59,9.53-11,18.65-11.84,29.2-1,12.19,5.75,23.52,12.21,33.91,5.73,9.19,12.45,19.14,22.94,21.8a44,44,0,0,1,2.75-14.49,33.12,33.12,0,0,0,8.79,12.88,21.12,21.12,0,0,1,9.1-19.28,15.35,15.35,0,0,0,5.17,8.75A354.53,354.53,0,0,1,189,279.42a27.3,27.3,0,0,1,7.56-3,26.83,26.83,0,0,1,8.05.05,245.37,245.37,0,0,1,25.25,4.23c3.6.8,7.27,1.69,10.94,1.31,5.22-.53,10.15-3.62,15.37-3,3.81.44,7.09,2.78,10.18,5l17.95,13.16,3.57-6.33a25.67,25.67,0,0,1,12.47,22.4c18.28-14.58,27.3-39.88,22.37-62.74-1.62-7.48-4.57-14.59-7.38-21.7-6.91-17.5-13.14-35.66-13.65-54.47-.6-21.69.91-36.59-3.84-57.76-2-8.91-7.62-25.07-11.33-30.91-2.91-4.58-12.67-45-71.23-45-7.35,0-16.48,3.69-23.8,4.43-24.93,2.52-58.32,14.66-69.55,39.27C121.57,85.17,121.2,86,120.85,86.84Z"/><g class="cls-4"><path class="cls-5" d="M209.35,279.85s-37.77.63-44,17.17-16.66,52.1-22.17,64,16.12,40.38,23.54,45.27,55.53,8.61,99.58-9c8.33-3.33,14.45-29.88,14.45-43.45s-5.09-45.94-10.18-59.35S231,277,209.35,279.85Z"/><path class="cls-6" d="M168.44,316.6s2.82,6.26-6.77,21.36-12,16.44-7.41,29.76c4.32,12.46,20.74,23.63,34.87,20.37,13.56-3.13,34.39,1.48,43,.64S248,387.18,253,375.1"/><path class="cls-7" d="M156.19,399l-1-18s38.63,7.9,45.81,6.95,51.85-1.9,51.85-1.9l7.69,13.4L201,404.65Z"/></g><path class="cls-8" d="M301.47,301.55c4.53-10.67-1.82-26.81-3.5-37.76-3.36-21.87-5-44-9.5-65.47-5-24.14-1.41-41.21-19.28-61-13.16-14.6-9.92-29.33-18.6-46.51S230.71,74,216.41,65.55C212.13,63,196,61.31,193.48,61.31c-21.84,0-31.83-3.19-49.2,12.78-10.22,9.4-2.87,16.44-5.38,28.23-1.51,7.1-5.27,13.49-9,19.73-8.65,14.57-8.33,28.83-7,45.8,2.41,29.72-.17,59.59,1.87,89.33.81,11.86,2.9,14.83,4.82,20.55s-4.79,10.19-4.82,17.71,10.88-2.13,10.88-2.13l16-8,8.89,9.35s13.37-9,20.58-13.93a34.62,34.62,0,0,1,22.9-5.55c21,2.69,42.69-4.05,63,1.93,7,2.07,17.79,7.37,22.88,12.29C290.32,289.7,299.23,306.82,301.47,301.55Z"/><path class="cls-9" d="M262.16,180C253.25,131.68,244,69.18,185.85,71.91c-40.7,1.91-47.06,17.81-47.06,78.85,0,0-1.27,14-5.08,24.17s-.64,46.22,24.8,65.93,28.54,23.43,42.49,17l5-2.27h0s4.84,11.56,4.76,20.46-10.26,5.65-9.72,19.72c.67,17.11,9.61,10.23,9.61,10.23s17.12-8.52,32.47-17.87c7.57-4.6-2.54-12.71-5.72-19.07-3.08-6.15-12.14-17.22-9.32-24.47C249.55,232.22,268.41,214,262.16,180Z"/><circle class="cls-10" cx="151.72" cy="159.45" r="19.71"/><circle class="cls-10" cx="209.38" cy="159.45" r="19.71"/><path class="cls-11" d="M175.25,165.57s-3.81,13.59-8.9,19.53-8.9,14.51-.43,17.05,15.27-5.6,15.27-5.6"/><path class="cls-10" d="M174.62,220.71l1.69,12.08s18.23,1.27,25-4.66,12.8-19.37,12.8-19.37S180.76,226.64,174.62,220.71Z"/><path class="cls-12" d="M171.44,222.94c-3.05-.41-7.08-2.29-6.92-6.05.11-2.58,2.39-7.72,16.67-6s19.07,4.07,34.86-4.31C216.05,206.54,195.58,226.16,171.44,222.94Z"/><path class="cls-12" d="M178.43,240.85c-3.07-.08-12.24.05-11.73-7.94.32-5,6.22-.74,20.42-3s16.62-9.52,28.93-23.39C216.05,206.54,212,241.64,178.43,240.85Z"/><path class="cls-13" d="M214.12,203.54s4.16,3.18,4.58,6.57"/><path class="cls-14" d="M193.48,223.7a30.2,30.2,0,0,0,15.05-8.78"/><g class="cls-15"><path class="cls-16" d="M228.89,157.13a19.69,19.69,0,0,0-36.57-7.62Z"/><path class="cls-16" d="M193.55,171.24a19.68,19.68,0,0,0,32.72-1.75Z"/></g><circle class="cls-17" cx="218.44" cy="161.48" r="2.03"/><path class="cls-18" d="M185.53,144.4a9.35,9.35,0,0,0,6.79,5.11s-6.47,2.52-9.65-1.08"/><g class="cls-15"><path class="cls-16" d="M171.06,157.13a19.69,19.69,0,0,0-36.57-7.62Z"/><path class="cls-16" d="M135.72,171.24a19.68,19.68,0,0,0,32.72-1.75Z"/></g><circle class="cls-17" cx="160.61" cy="161.48" r="2.03"/><path class="cls-18" d="M127.7,144.4a9.35,9.35,0,0,0,6.79,5.11s-6.47,2.52-9.65-1.08"/><path class="cls-9" d="M257.39,186.05s6-11.72,17.48-6.89c5.95,2.51,4.14,32.61-15.26,27.38"/><path class="cls-11" d="M197.87,126.6s12.57-9.75,25.71,0"/><path class="cls-11" d="M141,128.76s12.57-9.75,25.71,0"/><path class="cls-19" d="M254,139.74s-4.38,42.42-8.18,62.9c-3.91,21.06-26.3,50.58-32.65,49.59,0,0,9,2.18,10.23,11.08s21,25.58,21,25.58,2.37.91,1.46-3.74-17.27-26.5-17.38-33.92,41.15-20.53,47.7-31.92,7.88-43.21,5.93-53.74S254,139.74,254,139.74Z"/><path class="cls-11" d="M206.83,254.62s8-3.76,11.61-5.91"/><path class="cls-5" d="M187.5,302.28s-5.23-20.75-2.49-22.86-13.42-8.77-13.95-11.44-.2-7.33,10.63-5.33,22.81,4.18,32.43,4,40.13-32.24,43.27-25.79,8.17,11.79,6,19.79-.75,28,.54,33.33-.26,12.73-4.83,13.37-18,7.39-38.61,6.68S187.5,302.28,187.5,302.28Z"/><path class="cls-20" d="M212.53,365.9l2-.8c-.2-.06,6.73-5.6,9.37-5.8,5.41-.42,10.6-10.15,14.95-12.16,4-1.88,9.51,2.62-1.55,12-5.83,4.93,6.31-1.37,13.84,1.4,3.47,1.28,4.09,4.56.37,5.34-3,.63-6.58,1.1-9.44,1.41s-5,.47-5,.47,2.12-.16,5-.47c5.34-.31,13.07-.1,13.07,3.65,0,2.25-.06,3.09-7.38,3.65s-10.3,3.28-10.3,3.28,16.91-3.13,16.91,2.06c0,3.75-9,4.87-17.47,5.43s-9.81,3.42-16.82,2.72a9.94,9.94,0,0,0-4,.3C210.85,382.38,209.87,373.74,212.53,365.9Z"/><path class="cls-7" d="M141,367.54s13.54,2.27,20.28,3.95l6.1,11.25-13.92,5.05s38.39-13.83,59.1-21.89c-2.66,7.84-1.68,16.48,3.58,22.47a29.25,29.25,0,0,0-4.78,1.67c-4.81,2.08-46.14,23.23-52.61,19.48S138.88,384.41,141,367.54Z"/><path class="cls-21" d="M195.05,360.61l-2.31-.91c.22-.07-7.61-6.33-10.6-6.56-6.13-.47-12-11.48-16.92-13.76-4.57-2.12-10.76,3,1.76,13.57,6.6,5.58-7.15-1.56-15.67,1.59-3.92,1.45-4.62,5.15-.41,6,3.37.71,7.44,1.24,10.68,1.59,3.2.18,5.64.53,5.64.53s-2.4-.18-5.64-.53c-6.05-.35-14.8-.12-14.8,4.13,0,2.54.08,3.5,8.36,4.13s11.66,3.71,11.66,3.71-19.13-3.54-19.13,2.33c0,4.24,10.13,5.52,19.76,6.15s11.1,3.87,19,3.08A11.15,11.15,0,0,1,191,386C197,379.26,198.06,369.48,195.05,360.61Z"/><path class="cls-22" d="M276.42,371.39s-15.72-6.36-23.35-4.45l-6.91,12.72,15.75,5.72s-43.43-15.65-66.86-24.77c3,8.87,1.9,18.65-4.06,25.42a33.65,33.65,0,0,1,5.42,1.89c5.44,2.35,52.2,26.28,59.52,22.05S278.79,390.46,276.42,371.39Z"/><path class="cls-18" d="M295.85,212.6s10.89,48,7.25,60.27"/><path class="cls-18" d="M252.3,99.38s28.4,30.75,23.51,54.43"/><path class="cls-18" d="M194.37,272.87s2,.44,3.5,8.44S201,300,201,300"/><path class="cls-18" d="M223.58,272.87s-3.82,21.33-3.11,25.33"/><path class="cls-18" d="M250.52,254.62s-6.67,32-5.33,38.25"/><path class="cls-18" d="M122.23,230s-8.65,37.15-3.79,56.44"/><path class="cls-18" d="M140.75,236s-1.42,26.44,2.18,36.89"/><path class="cls-18" d="M129.93,122.05s-14.29,40.59-5.85,80.59"/></g></g></svg>