<svg xmlns="http://www.w3.org/2000/svg" xmlns:xlink="http://www.w3.org/1999/xlink" viewBox="0 0 425.2 425.2"><defs><style>.cls-1,.cls-11,.cls-15{fill:none;}.cls-2{isolation:isolate;}.cls-3{clip-path:url(#clip-path);}.cls-4{fill:#fff;}.cls-10,.cls-11,.cls-13,.cls-15,.cls-16,.cls-17,.cls-4,.cls-5,.cls-7,.cls-8,.cls-9{stroke:#1d1d1b;}.cls-13,.cls-15,.cls-4,.cls-5,.cls-7,.cls-8{stroke-miterlimit:10;}.cls-10,.cls-11,.cls-13,.cls-15,.cls-17,.cls-4,.cls-5,.cls-7,.cls-8{stroke-width:1.43px;}.cls-5{fill:#9e612d;}.cls-6{fill:#84512d;}.cls-16,.cls-17,.cls-7,.cls-8{fill:#f5d0ae;}.cls-10,.cls-11,.cls-15,.cls-16,.cls-17,.cls-8{stroke-linecap:round;}.cls-9{fill:#e6768f;stroke-width:1.36px;}.cls-10,.cls-11,.cls-16,.cls-17,.cls-9{stroke-linejoin:round;}.cls-10{fill:#e94462;}.cls-12,.cls-18{mix-blend-mode:darken;}.cls-13,.cls-18{fill:#d9a994;}.cls-14{fill:#1d1d1b;}.cls-16{stroke-width:1.28px;}</style><clipPath id="clip-path"><circle class="cls-1" cx="209.91" cy="223.25" r="179.75"/></clipPath></defs><title>девч1_2_2</title><g class="cls-2"><g id="Layer_1" data-name="Layer 1"><g class="cls-3"><path class="cls-4" d="M209.35,279.85s-37.77.63-44,17.17-16.66,52.1-22.17,64,16.12,40.38,23.54,45.27,55.53,8.61,99.58-9c8.33-3.33,14.45-29.88,14.45-43.45s-5.09-45.94-10.18-59.35S231,277,209.35,279.85Z"/><path class="cls-4" d="M168.44,316.6s2.82,6.26-6.77,21.36-12,16.44-7.41,29.76c4.32,12.46,20.74,23.63,34.87,20.37,13.56-3.13,34.39,1.48,43,.64S248,387.18,253,375.1"/></g><path class="cls-5" d="M209.38,50.93S163.5,14,141,38.84,105.73,78.91,100.64,91s-18.44-.94-17.81,18.29,5.73,26.43,5.09,30.46,0,2-5.11,10.63-1.93,26.24,0,27.62,4.48,2.66,5.11,9-7.85,11.44-7.85,11.44-9.95,5.35-4.23,10.31S98.73,207,93.64,223.7s-15.89,19.9-12.08,25.62S96.19,248,91.1,260.74s-13.35,13.38-12.72,18.47,14,15.9,14,15.9,5.73,3.18,1.91,8.9-6.36,15.26-1.91,17.17,14.19.47,17.81,3.18c2.19,1.64,3.31,8.28,5.88,9.22,3.34,1.23,12.88.21,13.6-4.13.39-2.28,3-4.45,6.06-7s9.55-5.91,11.46-4.81,8.56-1.38,8.15-5.19,2.74-7.38,7.31-8.65,7.72,2.92,7.72,2.92,3.85-9.54,6.18-11.45,3-6.38,3-6.38l9.91-5.06,14.08-.44,34.4,7s1.38-7.89,6.47-1.5,14.94,8.93,14.94,8.93,10,2.54,10.25,11.44,7.43,5.84,12.52,8.38,12.51-13.93,17-5.19,11.44,10,17.8,7.46,10.81-8.27,13.36-16.53,13.35-3.82,10.81-21-8.27-5.72-7-28,14.76-28.83,7.38-44.3-22-14.42-22.64-32.12S316.84,145,306,135.5s-14,8.27-21.62-19.08-1.9-29.88-12.08-36.88,3.7-3.18-9-21.62S217,33.76,209.38,50.93Z"/><path class="cls-6" d="M299.46,308.54s6.79-18.31,0-23.39-11,0-7.63-20.35,1-20.55-1.19-31.89,7.75,1.38,0-25.76-2-41.83-12.52-50-5-14.42-10.49-22-8-19.68-14.8-29.34-19.44-33.92-19.44-33.92-12.7-3.73-17-6.27S196,61.31,193.48,61.31H174.62s-25.44-3.56-31.69,10.51S133.28,98.74,132,109.28s-5.44,13.08-7.17,17.32-9.36-1.7-6,13.14,9.33,16.68,2.54,29.75-5.11,28.75-3.4,34,5.17-2.59,6.83,15.77-.82,26,0,37.86,2.9,14.84,4.82,20.56-4.79,10.19-4.82,17.71,7.53,17,7.53,17l8.6-8.1,19.64-9.69s13.37-9,20.58-13.93a34.68,34.68,0,0,1,22.89-5.56c6.64.86,20.77-.62,25,2.56s8.81,12.66,8.81,12.66,11.33,5.78,19.49,4.51,14.72-4.44,16.1.54,5.62,7.75,8.59,8.91S292.68,312.44,299.46,308.54Z"/><path class="cls-7" d="M262.16,180C253.25,131.68,244,69.18,185.85,71.91c-40.7,1.91-47.06,17.81-47.06,78.85,0,0-1.27,14-5.08,24.17s-.64,46.22,24.8,65.93,28.54,23.43,42.49,17l5-2.27h0s4.84,11.56,4.76,20.46-10.26,5.65-9.72,19.72A306.15,306.15,0,0,0,204.08,328s23.65-30.5,39-39.85c7.57-4.6-2.54-12.71-5.72-19.07-3.08-6.15-12.14-17.22-9.32-24.47C249.55,232.22,268.41,214,262.16,180Z"/><circle class="cls-4" cx="151.72" cy="159.45" r="19.71"/><circle class="cls-4" cx="209.38" cy="159.45" r="19.71"/><path class="cls-8" d="M175.25,165.57s-3.81,13.59-8.9,19.53-8.9,14.51-.43,17.05,15.27-5.6,15.27-5.6"/><path class="cls-4" d="M174.62,220.71l1.69,12.08s18.23,1.27,25-4.66,12.8-19.37,12.8-19.37S180.76,226.64,174.62,220.71Z"/><path class="cls-9" d="M171.44,222.94c-3.05-.41-7.08-2.29-6.92-6.05.11-2.58,2.39-7.72,16.67-6s19.07,4.07,34.86-4.31C216.05,206.54,195.58,226.16,171.44,222.94Z"/><path class="cls-9" d="M178.43,240.85c-3.07-.08-12.24.05-11.73-7.94.32-5,6.22-.74,20.42-3s16.62-9.52,28.93-23.39C216.05,206.54,212,241.64,178.43,240.85Z"/><path class="cls-10" d="M214.12,203.54s4.16,3.18,4.58,6.57"/><path class="cls-11" d="M193.48,223.7a30.2,30.2,0,0,0,15.05-8.78"/><g class="cls-12"><path class="cls-13" d="M228.89,157.13a19.69,19.69,0,0,0-36.57-7.62Z"/><path class="cls-13" d="M193.55,171.24a19.68,19.68,0,0,0,32.72-1.75Z"/></g><circle class="cls-14" cx="218.44" cy="161.48" r="2.03"/><path class="cls-15" d="M185.53,144.4a9.35,9.35,0,0,0,6.79,5.11s-6.47,2.52-9.65-1.08"/><g class="cls-12"><path class="cls-13" d="M171.06,157.13a19.69,19.69,0,0,0-36.57-7.62Z"/><path class="cls-13" d="M135.72,171.24a19.68,19.68,0,0,0,32.72-1.75Z"/></g><circle class="cls-14" cx="160.61" cy="161.48" r="2.03"/><path class="cls-15" d="M127.7,144.4a9.35,9.35,0,0,0,6.79,5.11s-6.47,2.52-9.65-1.08"/><path class="cls-7" d="M257.39,186.05s6-11.72,17.48-6.89c5.95,2.51,4.14,32.61-15.26,27.38"/><path class="cls-8" d="M197.87,126.6s12.57-9.75,25.71,0"/><path class="cls-8" d="M141,128.76s12.57-9.75,25.71,0"/><path class="cls-16" d="M156.12,373.5s41.53-15,61.87-23c-.21-.06,6.8-5.67,9.47-5.87,5.48-.42,10.73-10.26,15.13-12.3,4.09-1.9,9.63,2.65-1.57,12.13-5.9,5,6.4-1.39,14,1.42,3.52,1.3,4.14,4.61.38,5.4a135.56,135.56,0,0,1-14.6,1.9s18.27-2.58,18.27,3.22c0,2.28-.07,3.13-7.47,3.7s-10.42,3.32-10.42,3.32,17.11-3.17,17.11,2.08c0,3.79-9.07,4.93-17.68,5.5s-9.93,3.46-17,2.75c-.79-.08-3-.57-8.9,2-4.86,2.1-46.69,23.51-53.23,19.71S141,378.05,143.14,361c0,0,14.06-5.69,20.89-4l6.17,11.38"/><path class="cls-15" d="M209.38,331.94s22.25-21.78,24-21.78l5.93,13.56s18.87-22,18.13-28.82-5-9.75-5-9.75"/><path class="cls-15" d="M201,328l-8.68-21.19-9.65,3.39s1.21-13.57,5.8-18.23,15.61-11.2,15.61-11.2"/><path class="cls-17" d="M263.37,378.41s-46.43-16.72-69.17-25.67c.22-.07-7.61-6.34-10.6-6.57-6.13-.47-12-11.47-16.92-13.75-4.57-2.12-10.76,3,1.76,13.56,6.6,5.58-7.15-1.55-15.67,1.59-3.92,1.45-4.62,5.15-.41,6a150.64,150.64,0,0,0,16.32,2.12s-20.43-2.88-20.43,3.6c0,2.55.07,3.5,8.35,4.14s11.66,3.71,11.66,3.71-19.13-3.54-19.13,2.33c0,4.24,10.13,5.51,19.76,6.15s11.1,3.86,19,3.07c.89-.09,3.33-.64,10,2.23,5.44,2.35,52.2,26.28,59.52,22s22.86-19.5,20.49-38.58c0,0-15.72-6.36-23.35-4.45l-6.91,12.73"/><path class="cls-18" d="M254,139.74s-4.38,42.42-8.18,62.9c-3.91,21.06-26.3,50.58-32.65,49.59,0,0,9,2.18,10.23,11.08s21,25.58,21,25.58,2.37.91,1.46-3.74-17.27-26.5-17.38-33.92,41.15-20.53,47.7-31.92,7.88-43.21,5.93-53.74S254,139.74,254,139.74Z"/><path class="cls-8" d="M206.83,254.62s8-3.76,11.61-5.91"/><path class="cls-15" d="M276.15,219.31s9.7,3.31,6.75,18.57-8.66,15.9,4.69,22.89,15.53,6.4,14.89,17.17,8.64,22.89,8.64,22.89"/><path class="cls-15" d="M286.6,186.68s11.8,6.39,11.17,13.21-5,15.48,0,19.42,14.6,6.72,13.33,13.6,6.36,21.71,6.36,21.71"/><path class="cls-15" d="M132,240.86s6.33,4.89-2.35,10.81-12.49,4.65-9.94,16.1,8.26,13.35,2.54,20.34-3.32,16.24-3.32,16.24"/></g></g></svg>